%TF.GenerationSoftware,KiCad,Pcbnew,5.1.9-73d0e3b20d~88~ubuntu20.04.1*%
%TF.CreationDate,2021-02-04T03:58:01+01:00*%
%TF.ProjectId,MorphWatch-STM32,4d6f7270-6857-4617-9463-682d53544d33,rev?*%
%TF.SameCoordinates,Original*%
%TF.FileFunction,Legend,Top*%
%TF.FilePolarity,Positive*%
%FSLAX46Y46*%
G04 Gerber Fmt 4.6, Leading zero omitted, Abs format (unit mm)*
G04 Created by KiCad (PCBNEW 5.1.9-73d0e3b20d~88~ubuntu20.04.1) date 2021-02-04 03:58:01*
%MOMM*%
%LPD*%
G01*
G04 APERTURE LIST*
%ADD10C,0.125000*%
%ADD11C,0.150000*%
%ADD12C,0.120000*%
%ADD13C,0.254000*%
%ADD14C,0.200000*%
%ADD15C,0.152000*%
G04 APERTURE END LIST*
D10*
X147320023Y-74076714D02*
X147700976Y-74076714D01*
X147510500Y-74267190D02*
X147510500Y-73886238D01*
X123190023Y-104655928D02*
X123570976Y-104655928D01*
X127381023Y-93606928D02*
X127761976Y-93606928D01*
X127571523Y-98016214D02*
X127952476Y-98016214D01*
X127762000Y-98206690D02*
X127762000Y-97825738D01*
X151066523Y-100302214D02*
X151447476Y-100302214D01*
X151257000Y-100492690D02*
X151257000Y-100111738D01*
X151066523Y-98587714D02*
X151447476Y-98587714D01*
D11*
X144653047Y-99321928D02*
X145414952Y-99321928D01*
X140398547Y-96845428D02*
X141160452Y-96845428D01*
X140779500Y-97226380D02*
X140779500Y-96464476D01*
D12*
X146812000Y-90487500D02*
G75*
G03*
X146812000Y-90487500I-190500J0D01*
G01*
X145288000Y-94932500D02*
G75*
G03*
X145288000Y-94932500I-190500J0D01*
G01*
X149796500Y-97790000D02*
G75*
G03*
X149796500Y-97790000I-190500J0D01*
G01*
X145298305Y-78676500D02*
G75*
G03*
X145298305Y-78676500I-200805J0D01*
G01*
X135102953Y-73977500D02*
G75*
G03*
X135102953Y-73977500I-228953J0D01*
G01*
X128714500Y-79946500D02*
G75*
G03*
X128714500Y-79946500I-190500J0D01*
G01*
D10*
X148863928Y-70687380D02*
X148935357Y-70711190D01*
X149054404Y-70711190D01*
X149102023Y-70687380D01*
X149125833Y-70663571D01*
X149149642Y-70615952D01*
X149149642Y-70568333D01*
X149125833Y-70520714D01*
X149102023Y-70496904D01*
X149054404Y-70473095D01*
X148959166Y-70449285D01*
X148911547Y-70425476D01*
X148887738Y-70401666D01*
X148863928Y-70354047D01*
X148863928Y-70306428D01*
X148887738Y-70258809D01*
X148911547Y-70235000D01*
X148959166Y-70211190D01*
X149078214Y-70211190D01*
X149149642Y-70235000D01*
X149316309Y-70211190D02*
X149435357Y-70711190D01*
X149530595Y-70354047D01*
X149625833Y-70711190D01*
X149744880Y-70211190D01*
X149935357Y-70711190D02*
X149935357Y-70211190D01*
X150054404Y-70211190D01*
X150125833Y-70235000D01*
X150173452Y-70282619D01*
X150197261Y-70330238D01*
X150221071Y-70425476D01*
X150221071Y-70496904D01*
X150197261Y-70592142D01*
X150173452Y-70639761D01*
X150125833Y-70687380D01*
X150054404Y-70711190D01*
X149935357Y-70711190D01*
X146927166Y-70560380D02*
X146974785Y-70584190D01*
X147070023Y-70584190D01*
X147117642Y-70560380D01*
X147141452Y-70512761D01*
X147141452Y-70488952D01*
X147117642Y-70441333D01*
X147070023Y-70417523D01*
X146998595Y-70417523D01*
X146950976Y-70393714D01*
X146927166Y-70346095D01*
X146927166Y-70322285D01*
X146950976Y-70274666D01*
X146998595Y-70250857D01*
X147070023Y-70250857D01*
X147117642Y-70274666D01*
X147308119Y-70250857D02*
X147403357Y-70584190D01*
X147498595Y-70346095D01*
X147593833Y-70584190D01*
X147689071Y-70250857D01*
X148093833Y-70560380D02*
X148046214Y-70584190D01*
X147950976Y-70584190D01*
X147903357Y-70560380D01*
X147879547Y-70536571D01*
X147855738Y-70488952D01*
X147855738Y-70346095D01*
X147879547Y-70298476D01*
X147903357Y-70274666D01*
X147950976Y-70250857D01*
X148046214Y-70250857D01*
X148093833Y-70274666D01*
X145807880Y-71397738D02*
X145831690Y-71350119D01*
X145831690Y-71254880D01*
X145807880Y-71207261D01*
X145760261Y-71183452D01*
X145736452Y-71183452D01*
X145688833Y-71207261D01*
X145665023Y-71254880D01*
X145665023Y-71326309D01*
X145641214Y-71373928D01*
X145593595Y-71397738D01*
X145569785Y-71397738D01*
X145522166Y-71373928D01*
X145498357Y-71326309D01*
X145498357Y-71254880D01*
X145522166Y-71207261D01*
X145498357Y-71016785D02*
X145831690Y-70921547D01*
X145593595Y-70826309D01*
X145831690Y-70731071D01*
X145498357Y-70635833D01*
X145831690Y-70373928D02*
X145807880Y-70421547D01*
X145784071Y-70445357D01*
X145736452Y-70469166D01*
X145593595Y-70469166D01*
X145545976Y-70445357D01*
X145522166Y-70421547D01*
X145498357Y-70373928D01*
X145498357Y-70302500D01*
X145522166Y-70254880D01*
X145545976Y-70231071D01*
X145593595Y-70207261D01*
X145736452Y-70207261D01*
X145784071Y-70231071D01*
X145807880Y-70254880D01*
X145831690Y-70302500D01*
X145831690Y-70373928D01*
X143387000Y-71246952D02*
X143363190Y-71294571D01*
X143363190Y-71366000D01*
X143387000Y-71437428D01*
X143434619Y-71485047D01*
X143482238Y-71508857D01*
X143577476Y-71532666D01*
X143648904Y-71532666D01*
X143744142Y-71508857D01*
X143791761Y-71485047D01*
X143839380Y-71437428D01*
X143863190Y-71366000D01*
X143863190Y-71318380D01*
X143839380Y-71246952D01*
X143815571Y-71223142D01*
X143648904Y-71223142D01*
X143648904Y-71318380D01*
X143863190Y-71008857D02*
X143363190Y-71008857D01*
X143863190Y-70723142D01*
X143363190Y-70723142D01*
X143863190Y-70485047D02*
X143363190Y-70485047D01*
X143363190Y-70366000D01*
X143387000Y-70294571D01*
X143434619Y-70246952D01*
X143482238Y-70223142D01*
X143577476Y-70199333D01*
X143648904Y-70199333D01*
X143744142Y-70223142D01*
X143791761Y-70246952D01*
X143839380Y-70294571D01*
X143863190Y-70366000D01*
X143863190Y-70485047D01*
X141894690Y-71139809D02*
X141656595Y-71306476D01*
X141894690Y-71425523D02*
X141394690Y-71425523D01*
X141394690Y-71235047D01*
X141418500Y-71187428D01*
X141442309Y-71163619D01*
X141489928Y-71139809D01*
X141561357Y-71139809D01*
X141608976Y-71163619D01*
X141632785Y-71187428D01*
X141656595Y-71235047D01*
X141656595Y-71425523D01*
X141870880Y-70949333D02*
X141894690Y-70877904D01*
X141894690Y-70758857D01*
X141870880Y-70711238D01*
X141847071Y-70687428D01*
X141799452Y-70663619D01*
X141751833Y-70663619D01*
X141704214Y-70687428D01*
X141680404Y-70711238D01*
X141656595Y-70758857D01*
X141632785Y-70854095D01*
X141608976Y-70901714D01*
X141585166Y-70925523D01*
X141537547Y-70949333D01*
X141489928Y-70949333D01*
X141442309Y-70925523D01*
X141418500Y-70901714D01*
X141394690Y-70854095D01*
X141394690Y-70735047D01*
X141418500Y-70663619D01*
X141394690Y-70520761D02*
X141394690Y-70235047D01*
X141894690Y-70377904D02*
X141394690Y-70377904D01*
D12*
%TO.C,C11*%
X124507164Y-79481000D02*
X124722836Y-79481000D01*
X124507164Y-78761000D02*
X124722836Y-78761000D01*
%TO.C,J4*%
X141878500Y-95841000D02*
X142938500Y-95841000D01*
X141878500Y-96901000D02*
X141878500Y-95841000D01*
X141878500Y-97901000D02*
X143998500Y-97901000D01*
X143998500Y-97901000D02*
X143998500Y-99961000D01*
X141878500Y-97901000D02*
X141878500Y-99961000D01*
X141878500Y-99961000D02*
X143998500Y-99961000D01*
%TO.C,C13*%
X145902000Y-101555664D02*
X145902000Y-101771336D01*
X145182000Y-101555664D02*
X145182000Y-101771336D01*
%TO.C,J3*%
X120854000Y-87809000D02*
X120229000Y-87809000D01*
X120229000Y-87809000D02*
X120229000Y-83689000D01*
X120229000Y-83689000D02*
X121144507Y-83689000D01*
X120229000Y-87459000D02*
X118229000Y-87459000D01*
X118229000Y-87459000D02*
X118229000Y-87039000D01*
X118229000Y-87039000D02*
X120229000Y-87039000D01*
X120229000Y-87399000D02*
X118229000Y-87399000D01*
X120229000Y-87279000D02*
X118229000Y-87279000D01*
X120229000Y-87159000D02*
X118229000Y-87159000D01*
X120854000Y-86749000D02*
X120229000Y-86749000D01*
X120229000Y-86459000D02*
X118229000Y-86459000D01*
X118229000Y-86459000D02*
X118229000Y-86039000D01*
X118229000Y-86039000D02*
X120229000Y-86039000D01*
X121070785Y-85749000D02*
X120229000Y-85749000D01*
X120229000Y-85459000D02*
X118229000Y-85459000D01*
X118229000Y-85459000D02*
X118229000Y-85039000D01*
X118229000Y-85039000D02*
X120229000Y-85039000D01*
X121070785Y-84749000D02*
X120229000Y-84749000D01*
X120229000Y-84459000D02*
X118229000Y-84459000D01*
X118229000Y-84459000D02*
X118229000Y-84039000D01*
X118229000Y-84039000D02*
X120229000Y-84039000D01*
X122224000Y-87249000D02*
X122224000Y-87934000D01*
X122224000Y-87934000D02*
X121539000Y-87934000D01*
%TO.C,J5*%
X148606000Y-67964500D02*
X148606000Y-70084500D01*
X148606000Y-67964500D02*
X140546000Y-67964500D01*
X140546000Y-67964500D02*
X140546000Y-70084500D01*
X148606000Y-70084500D02*
X140546000Y-70084500D01*
X150666000Y-70084500D02*
X149606000Y-70084500D01*
X150666000Y-69024500D02*
X150666000Y-70084500D01*
%TO.C,C22*%
X130790836Y-75671000D02*
X130575164Y-75671000D01*
X130790836Y-74951000D02*
X130575164Y-74951000D01*
%TO.C,C21*%
X132198164Y-68220000D02*
X132413836Y-68220000D01*
X132198164Y-68940000D02*
X132413836Y-68940000D01*
%TO.C,C8*%
X128250836Y-100245500D02*
X128035164Y-100245500D01*
X128250836Y-99525500D02*
X128035164Y-99525500D01*
%TO.C,R12*%
X127913641Y-83565000D02*
X127606359Y-83565000D01*
X127913641Y-82805000D02*
X127606359Y-82805000D01*
%TO.C,C23*%
X133244000Y-97809164D02*
X133244000Y-98024836D01*
X133964000Y-97809164D02*
X133964000Y-98024836D01*
%TO.C,C19*%
X134512164Y-69194000D02*
X134727836Y-69194000D01*
X134512164Y-68474000D02*
X134727836Y-68474000D01*
%TO.C,C18*%
X128291000Y-88919164D02*
X128291000Y-89134836D01*
X129011000Y-88919164D02*
X129011000Y-89134836D01*
%TO.C,C17*%
X127710693Y-87172190D02*
X127558190Y-87324693D01*
X128219810Y-87681307D02*
X128067307Y-87833810D01*
%TO.C,C16*%
X132632336Y-90800600D02*
X132416664Y-90800600D01*
X132632336Y-91520600D02*
X132416664Y-91520600D01*
%TO.C,C15*%
X142642000Y-80410164D02*
X142642000Y-80625836D01*
X143362000Y-80410164D02*
X143362000Y-80625836D01*
%TO.C,C14*%
X132381164Y-76814000D02*
X132596836Y-76814000D01*
X132381164Y-76094000D02*
X132596836Y-76094000D01*
%TO.C,C12*%
X124722836Y-84603000D02*
X124507164Y-84603000D01*
X124722836Y-85323000D02*
X124507164Y-85323000D01*
%TO.C,C10*%
X149142336Y-89048000D02*
X148926664Y-89048000D01*
X149142336Y-89768000D02*
X148926664Y-89768000D01*
%TO.C,C9*%
X139528664Y-98785000D02*
X139744336Y-98785000D01*
X139528664Y-98065000D02*
X139744336Y-98065000D01*
%TO.C,C7*%
X130471500Y-97580336D02*
X130471500Y-97364664D01*
X129751500Y-97580336D02*
X129751500Y-97364664D01*
%TO.C,C6*%
X131932000Y-98024836D02*
X131932000Y-97809164D01*
X131212000Y-98024836D02*
X131212000Y-97809164D01*
%TO.C,C5*%
X132948000Y-98024836D02*
X132948000Y-97809164D01*
X132228000Y-98024836D02*
X132228000Y-97809164D01*
%TO.C,C4*%
X146537000Y-92436836D02*
X146537000Y-92221164D01*
X145817000Y-92436836D02*
X145817000Y-92221164D01*
%TO.C,C3*%
X126356164Y-96372000D02*
X126571836Y-96372000D01*
X126356164Y-95652000D02*
X126571836Y-95652000D01*
%TO.C,C2*%
X123551836Y-95398000D02*
X123336164Y-95398000D01*
X123551836Y-96118000D02*
X123336164Y-96118000D01*
%TO.C,C1*%
X120288164Y-103484000D02*
X120503836Y-103484000D01*
X120288164Y-102764000D02*
X120503836Y-102764000D01*
D13*
%TO.C,J1*%
X151217000Y-79790000D02*
X152720000Y-79790000D01*
X146970000Y-79790000D02*
X148747000Y-79790000D01*
X151217000Y-87790000D02*
X152699000Y-87790000D01*
X146970000Y-87790000D02*
X148747000Y-87790000D01*
X146970000Y-87134000D02*
X146970000Y-87790000D01*
X146970000Y-79790000D02*
X146970000Y-80446000D01*
X152600000Y-87760000D02*
X152010000Y-87170000D01*
X152699000Y-87760000D02*
X152600000Y-87760000D01*
X152600000Y-79810000D02*
X152010000Y-80400000D01*
X152720000Y-79810000D02*
X152600000Y-79810000D01*
X152010000Y-80400000D02*
X152010000Y-87170000D01*
X152720000Y-79790000D02*
X152720000Y-87790000D01*
D11*
%TO.C,D6*%
X149225000Y-76200000D02*
X149225000Y-76327000D01*
X149225000Y-76327000D02*
X147955000Y-76327000D01*
X147955000Y-76327000D02*
X147955000Y-76200000D01*
X149225000Y-76073000D02*
X149225000Y-76200000D01*
X149225000Y-76200000D02*
X147955000Y-76200000D01*
X147955000Y-76200000D02*
X147955000Y-76073000D01*
X147955000Y-76073000D02*
X147955000Y-73787000D01*
X147955000Y-73787000D02*
X149225000Y-73787000D01*
X149225000Y-73787000D02*
X149225000Y-76073000D01*
X149225000Y-76073000D02*
X147955000Y-76073000D01*
D12*
%TO.C,Y1*%
X123230000Y-80085000D02*
X123230000Y-84085000D01*
X126530000Y-80085000D02*
X123230000Y-80085000D01*
D11*
%TO.C,U4*%
X129930000Y-74286000D02*
X130455000Y-74286000D01*
X129930000Y-69986000D02*
X130455000Y-69986000D01*
X134230000Y-69986000D02*
X133705000Y-69986000D01*
X134230000Y-74286000D02*
X133705000Y-74286000D01*
X129930000Y-69986000D02*
X129930000Y-70511000D01*
X134230000Y-69986000D02*
X134230000Y-70511000D01*
X129930000Y-74286000D02*
X129930000Y-73761000D01*
D12*
%TO.C,U2*%
X130639600Y-79649200D02*
X129299600Y-79649200D01*
X130639600Y-78699200D02*
X130639600Y-79649200D01*
X131589600Y-78699200D02*
X130639600Y-78699200D01*
X140859600Y-78699200D02*
X140859600Y-79649200D01*
X139909600Y-78699200D02*
X140859600Y-78699200D01*
X130639600Y-88919200D02*
X130639600Y-87969200D01*
X131589600Y-88919200D02*
X130639600Y-88919200D01*
X140859600Y-88919200D02*
X140859600Y-87969200D01*
X139909600Y-88919200D02*
X140859600Y-88919200D01*
%TO.C,U1*%
X149528500Y-101146500D02*
X149528500Y-98716500D01*
X146458500Y-99386500D02*
X146458500Y-101146500D01*
%TO.C,TP1*%
X140209500Y-94678500D02*
G75*
G03*
X140209500Y-94678500I-700000J0D01*
G01*
%TO.C,S2*%
X122146000Y-76050000D02*
X117546000Y-76050000D01*
X117546000Y-76050000D02*
X117546000Y-71250000D01*
X117546000Y-71250000D02*
X122146000Y-71250000D01*
X122146000Y-71250000D02*
X122146000Y-76050000D01*
%TO.C,S1*%
X122146000Y-95862000D02*
X117546000Y-95862000D01*
X117546000Y-95862000D02*
X117546000Y-91062000D01*
X117546000Y-91062000D02*
X122146000Y-91062000D01*
X122146000Y-91062000D02*
X122146000Y-95862000D01*
%TO.C,R11*%
X135889000Y-70869121D02*
X135889000Y-70533879D01*
X135129000Y-70869121D02*
X135129000Y-70533879D01*
%TO.C,R10*%
X137095500Y-70843121D02*
X137095500Y-70507879D01*
X136335500Y-70843121D02*
X136335500Y-70507879D01*
%TO.C,R9*%
X142796879Y-77596000D02*
X143132121Y-77596000D01*
X142796879Y-76836000D02*
X143132121Y-76836000D01*
%TO.C,R8*%
X143132121Y-77915500D02*
X142796879Y-77915500D01*
X143132121Y-78675500D02*
X142796879Y-78675500D01*
%TO.C,R7*%
X148210000Y-77302379D02*
X148210000Y-77637621D01*
X148970000Y-77302379D02*
X148970000Y-77637621D01*
%TO.C,R6*%
X124461000Y-71333379D02*
X124461000Y-71668621D01*
X125221000Y-71333379D02*
X125221000Y-71668621D01*
%TO.C,R5*%
X150748000Y-102275621D02*
X150748000Y-101940379D01*
X149988000Y-102275621D02*
X149988000Y-101940379D01*
%TO.C,R4*%
X145519121Y-103061500D02*
X145183879Y-103061500D01*
X145519121Y-103821500D02*
X145183879Y-103821500D01*
%TO.C,R3*%
X128017000Y-94637879D02*
X128017000Y-94973121D01*
X128777000Y-94637879D02*
X128777000Y-94973121D01*
%TO.C,R2*%
X150367000Y-95925621D02*
X150367000Y-95590379D01*
X149607000Y-95925621D02*
X149607000Y-95590379D01*
%TO.C,R1*%
X130620500Y-90891379D02*
X130620500Y-91226621D01*
X131380500Y-90891379D02*
X131380500Y-91226621D01*
D14*
%TO.C,Q3*%
X144600000Y-76781000D02*
X144600000Y-76381000D01*
X144600000Y-76381000D02*
X147500000Y-76381000D01*
X147500000Y-76381000D02*
X147500000Y-76781000D01*
X147500000Y-76781000D02*
X144600000Y-76781000D01*
X144550000Y-78231000D02*
X144550000Y-77131000D01*
D12*
%TO.C,Q2*%
X131824000Y-95560000D02*
X130364000Y-95560000D01*
X131824000Y-92400000D02*
X129664000Y-92400000D01*
X131824000Y-92400000D02*
X131824000Y-93330000D01*
X131824000Y-95560000D02*
X131824000Y-94630000D01*
D14*
%TO.C,Q1*%
X147120000Y-94498500D02*
X147520000Y-94498500D01*
X147520000Y-94498500D02*
X147520000Y-97398500D01*
X147520000Y-97398500D02*
X147120000Y-97398500D01*
X147120000Y-97398500D02*
X147120000Y-94498500D01*
X145670000Y-94448500D02*
X146770000Y-94448500D01*
D12*
%TO.C,M1*%
X146609500Y-71012500D02*
X146609500Y-73132500D01*
X148669500Y-71012500D02*
X146609500Y-71012500D01*
X148669500Y-73132500D02*
X146609500Y-73132500D01*
X148669500Y-71012500D02*
X148669500Y-73132500D01*
X149669500Y-71012500D02*
X150729500Y-71012500D01*
X150729500Y-71012500D02*
X150729500Y-72072500D01*
%TO.C,L2*%
X124257748Y-92296000D02*
X124780252Y-92296000D01*
X124257748Y-90076000D02*
X124780252Y-90076000D01*
%TO.C,L1*%
X121506000Y-100337252D02*
X121506000Y-99814748D01*
X119286000Y-100337252D02*
X119286000Y-99814748D01*
%TO.C,JP1*%
X123254500Y-69315000D02*
X125539500Y-69315000D01*
X123254500Y-67845000D02*
X123254500Y-69315000D01*
X125539500Y-67845000D02*
X123254500Y-67845000D01*
D14*
%TO.C,IC1*%
X148834500Y-90307500D02*
X149234500Y-90307500D01*
X149234500Y-90307500D02*
X149234500Y-93207500D01*
X149234500Y-93207500D02*
X148834500Y-93207500D01*
X148834500Y-93207500D02*
X148834500Y-90307500D01*
X147084500Y-90257500D02*
X148484500Y-90257500D01*
D12*
%TO.C,D5*%
X149988000Y-99400379D02*
X149988000Y-99735621D01*
X150748000Y-99400379D02*
X150748000Y-99735621D01*
%TO.C,D4*%
X127092000Y-94980000D02*
X123192000Y-94980000D01*
X127092000Y-92980000D02*
X123192000Y-92980000D01*
X127092000Y-94980000D02*
X127092000Y-92980000D01*
%TO.C,D3*%
X122444000Y-104232000D02*
X122444000Y-100332000D01*
X124444000Y-104232000D02*
X124444000Y-100332000D01*
X122444000Y-104232000D02*
X124444000Y-104232000D01*
%TO.C,D2*%
X122718000Y-97044000D02*
X126618000Y-97044000D01*
X122718000Y-99044000D02*
X126618000Y-99044000D01*
X122718000Y-97044000D02*
X122718000Y-99044000D01*
%TO.C,D1*%
X140732000Y-95277500D02*
X140732000Y-91377500D01*
X142732000Y-95277500D02*
X142732000Y-91377500D01*
X140732000Y-95277500D02*
X142732000Y-95277500D01*
%TO.C,C24*%
X139426836Y-90724400D02*
X139211164Y-90724400D01*
X139426836Y-91444400D02*
X139211164Y-91444400D01*
%TO.C,C25*%
X128065920Y-79186500D02*
X128347080Y-79186500D01*
X128065920Y-78166500D02*
X128347080Y-78166500D01*
%TO.C,C20*%
X150347000Y-74882836D02*
X150347000Y-74667164D01*
X149627000Y-74882836D02*
X149627000Y-74667164D01*
%TO.C,C11*%
D10*
X124293571Y-78139571D02*
X124269761Y-78163380D01*
X124198333Y-78187190D01*
X124150714Y-78187190D01*
X124079285Y-78163380D01*
X124031666Y-78115761D01*
X124007857Y-78068142D01*
X123984047Y-77972904D01*
X123984047Y-77901476D01*
X124007857Y-77806238D01*
X124031666Y-77758619D01*
X124079285Y-77711000D01*
X124150714Y-77687190D01*
X124198333Y-77687190D01*
X124269761Y-77711000D01*
X124293571Y-77734809D01*
X124769761Y-78187190D02*
X124484047Y-78187190D01*
X124626904Y-78187190D02*
X124626904Y-77687190D01*
X124579285Y-77758619D01*
X124531666Y-77806238D01*
X124484047Y-77830047D01*
X125245952Y-78187190D02*
X124960238Y-78187190D01*
X125103095Y-78187190D02*
X125103095Y-77687190D01*
X125055476Y-77758619D01*
X125007857Y-77806238D01*
X124960238Y-77830047D01*
D11*
%TO.C,J4*%
D10*
X140549333Y-95992190D02*
X140549333Y-96349333D01*
X140525523Y-96420761D01*
X140477904Y-96468380D01*
X140406476Y-96492190D01*
X140358857Y-96492190D01*
X141001714Y-96158857D02*
X141001714Y-96492190D01*
X140882666Y-95968380D02*
X140763619Y-96325523D01*
X141073142Y-96325523D01*
D11*
%TO.C,C13*%
D10*
X144704571Y-101984928D02*
X144728380Y-102008738D01*
X144752190Y-102080166D01*
X144752190Y-102127785D01*
X144728380Y-102199214D01*
X144680761Y-102246833D01*
X144633142Y-102270642D01*
X144537904Y-102294452D01*
X144466476Y-102294452D01*
X144371238Y-102270642D01*
X144323619Y-102246833D01*
X144276000Y-102199214D01*
X144252190Y-102127785D01*
X144252190Y-102080166D01*
X144276000Y-102008738D01*
X144299809Y-101984928D01*
X144752190Y-101508738D02*
X144752190Y-101794452D01*
X144752190Y-101651595D02*
X144252190Y-101651595D01*
X144323619Y-101699214D01*
X144371238Y-101746833D01*
X144395047Y-101794452D01*
X144252190Y-101342071D02*
X144252190Y-101032547D01*
X144442666Y-101199214D01*
X144442666Y-101127785D01*
X144466476Y-101080166D01*
X144490285Y-101056357D01*
X144537904Y-101032547D01*
X144656952Y-101032547D01*
X144704571Y-101056357D01*
X144728380Y-101080166D01*
X144752190Y-101127785D01*
X144752190Y-101270642D01*
X144728380Y-101318261D01*
X144704571Y-101342071D01*
D11*
%TO.C,J3*%
D10*
X119997333Y-88475190D02*
X119997333Y-88832333D01*
X119973523Y-88903761D01*
X119925904Y-88951380D01*
X119854476Y-88975190D01*
X119806857Y-88975190D01*
X120187809Y-88475190D02*
X120497333Y-88475190D01*
X120330666Y-88665666D01*
X120402095Y-88665666D01*
X120449714Y-88689476D01*
X120473523Y-88713285D01*
X120497333Y-88760904D01*
X120497333Y-88879952D01*
X120473523Y-88927571D01*
X120449714Y-88951380D01*
X120402095Y-88975190D01*
X120259238Y-88975190D01*
X120211619Y-88951380D01*
X120187809Y-88927571D01*
D11*
%TO.C,J5*%
D10*
X151832190Y-69191166D02*
X152189333Y-69191166D01*
X152260761Y-69214976D01*
X152308380Y-69262595D01*
X152332190Y-69334023D01*
X152332190Y-69381642D01*
X151832190Y-68714976D02*
X151832190Y-68953071D01*
X152070285Y-68976880D01*
X152046476Y-68953071D01*
X152022666Y-68905452D01*
X152022666Y-68786404D01*
X152046476Y-68738785D01*
X152070285Y-68714976D01*
X152117904Y-68691166D01*
X152236952Y-68691166D01*
X152284571Y-68714976D01*
X152308380Y-68738785D01*
X152332190Y-68786404D01*
X152332190Y-68905452D01*
X152308380Y-68953071D01*
X152284571Y-68976880D01*
D11*
%TO.C,C22*%
D10*
X128520071Y-75426071D02*
X128496261Y-75449880D01*
X128424833Y-75473690D01*
X128377214Y-75473690D01*
X128305785Y-75449880D01*
X128258166Y-75402261D01*
X128234357Y-75354642D01*
X128210547Y-75259404D01*
X128210547Y-75187976D01*
X128234357Y-75092738D01*
X128258166Y-75045119D01*
X128305785Y-74997500D01*
X128377214Y-74973690D01*
X128424833Y-74973690D01*
X128496261Y-74997500D01*
X128520071Y-75021309D01*
X128710547Y-75021309D02*
X128734357Y-74997500D01*
X128781976Y-74973690D01*
X128901023Y-74973690D01*
X128948642Y-74997500D01*
X128972452Y-75021309D01*
X128996261Y-75068928D01*
X128996261Y-75116547D01*
X128972452Y-75187976D01*
X128686738Y-75473690D01*
X128996261Y-75473690D01*
X129186738Y-75021309D02*
X129210547Y-74997500D01*
X129258166Y-74973690D01*
X129377214Y-74973690D01*
X129424833Y-74997500D01*
X129448642Y-75021309D01*
X129472452Y-75068928D01*
X129472452Y-75116547D01*
X129448642Y-75187976D01*
X129162928Y-75473690D01*
X129472452Y-75473690D01*
D11*
%TO.C,C21*%
D10*
X130107571Y-68695071D02*
X130083761Y-68718880D01*
X130012333Y-68742690D01*
X129964714Y-68742690D01*
X129893285Y-68718880D01*
X129845666Y-68671261D01*
X129821857Y-68623642D01*
X129798047Y-68528404D01*
X129798047Y-68456976D01*
X129821857Y-68361738D01*
X129845666Y-68314119D01*
X129893285Y-68266500D01*
X129964714Y-68242690D01*
X130012333Y-68242690D01*
X130083761Y-68266500D01*
X130107571Y-68290309D01*
X130298047Y-68290309D02*
X130321857Y-68266500D01*
X130369476Y-68242690D01*
X130488523Y-68242690D01*
X130536142Y-68266500D01*
X130559952Y-68290309D01*
X130583761Y-68337928D01*
X130583761Y-68385547D01*
X130559952Y-68456976D01*
X130274238Y-68742690D01*
X130583761Y-68742690D01*
X131059952Y-68742690D02*
X130774238Y-68742690D01*
X130917095Y-68742690D02*
X130917095Y-68242690D01*
X130869476Y-68314119D01*
X130821857Y-68361738D01*
X130774238Y-68385547D01*
D11*
%TO.C,C8*%
D10*
X128059666Y-101224071D02*
X128035857Y-101247880D01*
X127964428Y-101271690D01*
X127916809Y-101271690D01*
X127845380Y-101247880D01*
X127797761Y-101200261D01*
X127773952Y-101152642D01*
X127750142Y-101057404D01*
X127750142Y-100985976D01*
X127773952Y-100890738D01*
X127797761Y-100843119D01*
X127845380Y-100795500D01*
X127916809Y-100771690D01*
X127964428Y-100771690D01*
X128035857Y-100795500D01*
X128059666Y-100819309D01*
X128345380Y-100985976D02*
X128297761Y-100962166D01*
X128273952Y-100938357D01*
X128250142Y-100890738D01*
X128250142Y-100866928D01*
X128273952Y-100819309D01*
X128297761Y-100795500D01*
X128345380Y-100771690D01*
X128440619Y-100771690D01*
X128488238Y-100795500D01*
X128512047Y-100819309D01*
X128535857Y-100866928D01*
X128535857Y-100890738D01*
X128512047Y-100938357D01*
X128488238Y-100962166D01*
X128440619Y-100985976D01*
X128345380Y-100985976D01*
X128297761Y-101009785D01*
X128273952Y-101033595D01*
X128250142Y-101081214D01*
X128250142Y-101176452D01*
X128273952Y-101224071D01*
X128297761Y-101247880D01*
X128345380Y-101271690D01*
X128440619Y-101271690D01*
X128488238Y-101247880D01*
X128512047Y-101224071D01*
X128535857Y-101176452D01*
X128535857Y-101081214D01*
X128512047Y-101033595D01*
X128488238Y-101009785D01*
X128440619Y-100985976D01*
D11*
%TO.C,R12*%
D10*
X127438571Y-84581190D02*
X127271904Y-84343095D01*
X127152857Y-84581190D02*
X127152857Y-84081190D01*
X127343333Y-84081190D01*
X127390952Y-84105000D01*
X127414761Y-84128809D01*
X127438571Y-84176428D01*
X127438571Y-84247857D01*
X127414761Y-84295476D01*
X127390952Y-84319285D01*
X127343333Y-84343095D01*
X127152857Y-84343095D01*
X127914761Y-84581190D02*
X127629047Y-84581190D01*
X127771904Y-84581190D02*
X127771904Y-84081190D01*
X127724285Y-84152619D01*
X127676666Y-84200238D01*
X127629047Y-84224047D01*
X128105238Y-84128809D02*
X128129047Y-84105000D01*
X128176666Y-84081190D01*
X128295714Y-84081190D01*
X128343333Y-84105000D01*
X128367142Y-84128809D01*
X128390952Y-84176428D01*
X128390952Y-84224047D01*
X128367142Y-84295476D01*
X128081428Y-84581190D01*
X128390952Y-84581190D01*
D11*
%TO.C,C23*%
D10*
X134735071Y-98111428D02*
X134758880Y-98135238D01*
X134782690Y-98206666D01*
X134782690Y-98254285D01*
X134758880Y-98325714D01*
X134711261Y-98373333D01*
X134663642Y-98397142D01*
X134568404Y-98420952D01*
X134496976Y-98420952D01*
X134401738Y-98397142D01*
X134354119Y-98373333D01*
X134306500Y-98325714D01*
X134282690Y-98254285D01*
X134282690Y-98206666D01*
X134306500Y-98135238D01*
X134330309Y-98111428D01*
X134330309Y-97920952D02*
X134306500Y-97897142D01*
X134282690Y-97849523D01*
X134282690Y-97730476D01*
X134306500Y-97682857D01*
X134330309Y-97659047D01*
X134377928Y-97635238D01*
X134425547Y-97635238D01*
X134496976Y-97659047D01*
X134782690Y-97944761D01*
X134782690Y-97635238D01*
X134282690Y-97468571D02*
X134282690Y-97159047D01*
X134473166Y-97325714D01*
X134473166Y-97254285D01*
X134496976Y-97206666D01*
X134520785Y-97182857D01*
X134568404Y-97159047D01*
X134687452Y-97159047D01*
X134735071Y-97182857D01*
X134758880Y-97206666D01*
X134782690Y-97254285D01*
X134782690Y-97397142D01*
X134758880Y-97444761D01*
X134735071Y-97468571D01*
D11*
%TO.C,C19*%
D10*
X136457571Y-68314071D02*
X136433761Y-68337880D01*
X136362333Y-68361690D01*
X136314714Y-68361690D01*
X136243285Y-68337880D01*
X136195666Y-68290261D01*
X136171857Y-68242642D01*
X136148047Y-68147404D01*
X136148047Y-68075976D01*
X136171857Y-67980738D01*
X136195666Y-67933119D01*
X136243285Y-67885500D01*
X136314714Y-67861690D01*
X136362333Y-67861690D01*
X136433761Y-67885500D01*
X136457571Y-67909309D01*
X136933761Y-68361690D02*
X136648047Y-68361690D01*
X136790904Y-68361690D02*
X136790904Y-67861690D01*
X136743285Y-67933119D01*
X136695666Y-67980738D01*
X136648047Y-68004547D01*
X137171857Y-68361690D02*
X137267095Y-68361690D01*
X137314714Y-68337880D01*
X137338523Y-68314071D01*
X137386142Y-68242642D01*
X137409952Y-68147404D01*
X137409952Y-67956928D01*
X137386142Y-67909309D01*
X137362333Y-67885500D01*
X137314714Y-67861690D01*
X137219476Y-67861690D01*
X137171857Y-67885500D01*
X137148047Y-67909309D01*
X137124238Y-67956928D01*
X137124238Y-68075976D01*
X137148047Y-68123595D01*
X137171857Y-68147404D01*
X137219476Y-68171214D01*
X137314714Y-68171214D01*
X137362333Y-68147404D01*
X137386142Y-68123595D01*
X137409952Y-68075976D01*
D11*
%TO.C,C18*%
D10*
X129989571Y-89348428D02*
X130013380Y-89372238D01*
X130037190Y-89443666D01*
X130037190Y-89491285D01*
X130013380Y-89562714D01*
X129965761Y-89610333D01*
X129918142Y-89634142D01*
X129822904Y-89657952D01*
X129751476Y-89657952D01*
X129656238Y-89634142D01*
X129608619Y-89610333D01*
X129561000Y-89562714D01*
X129537190Y-89491285D01*
X129537190Y-89443666D01*
X129561000Y-89372238D01*
X129584809Y-89348428D01*
X130037190Y-88872238D02*
X130037190Y-89157952D01*
X130037190Y-89015095D02*
X129537190Y-89015095D01*
X129608619Y-89062714D01*
X129656238Y-89110333D01*
X129680047Y-89157952D01*
X129751476Y-88586523D02*
X129727666Y-88634142D01*
X129703857Y-88657952D01*
X129656238Y-88681761D01*
X129632428Y-88681761D01*
X129584809Y-88657952D01*
X129561000Y-88634142D01*
X129537190Y-88586523D01*
X129537190Y-88491285D01*
X129561000Y-88443666D01*
X129584809Y-88419857D01*
X129632428Y-88396047D01*
X129656238Y-88396047D01*
X129703857Y-88419857D01*
X129727666Y-88443666D01*
X129751476Y-88491285D01*
X129751476Y-88586523D01*
X129775285Y-88634142D01*
X129799095Y-88657952D01*
X129846714Y-88681761D01*
X129941952Y-88681761D01*
X129989571Y-88657952D01*
X130013380Y-88634142D01*
X130037190Y-88586523D01*
X130037190Y-88491285D01*
X130013380Y-88443666D01*
X129989571Y-88419857D01*
X129941952Y-88396047D01*
X129846714Y-88396047D01*
X129799095Y-88419857D01*
X129775285Y-88443666D01*
X129751476Y-88491285D01*
D11*
%TO.C,C17*%
D10*
X126328946Y-88481484D02*
X126295274Y-88481484D01*
X126227931Y-88447812D01*
X126194259Y-88414141D01*
X126160587Y-88346797D01*
X126160587Y-88279454D01*
X126177423Y-88228946D01*
X126227931Y-88144767D01*
X126278438Y-88094259D01*
X126362618Y-88043751D01*
X126413125Y-88026916D01*
X126480469Y-88026916D01*
X126547812Y-88060587D01*
X126581484Y-88094259D01*
X126615156Y-88161603D01*
X126615156Y-88195274D01*
X126631992Y-88851874D02*
X126429961Y-88649843D01*
X126530977Y-88750858D02*
X126884530Y-88397305D01*
X126800351Y-88414141D01*
X126733007Y-88414141D01*
X126682500Y-88397305D01*
X127103396Y-88616171D02*
X127339099Y-88851874D01*
X126834022Y-89053904D01*
D11*
%TO.C,C16*%
D10*
X133854071Y-91936071D02*
X133830261Y-91959880D01*
X133758833Y-91983690D01*
X133711214Y-91983690D01*
X133639785Y-91959880D01*
X133592166Y-91912261D01*
X133568357Y-91864642D01*
X133544547Y-91769404D01*
X133544547Y-91697976D01*
X133568357Y-91602738D01*
X133592166Y-91555119D01*
X133639785Y-91507500D01*
X133711214Y-91483690D01*
X133758833Y-91483690D01*
X133830261Y-91507500D01*
X133854071Y-91531309D01*
X134330261Y-91983690D02*
X134044547Y-91983690D01*
X134187404Y-91983690D02*
X134187404Y-91483690D01*
X134139785Y-91555119D01*
X134092166Y-91602738D01*
X134044547Y-91626547D01*
X134758833Y-91483690D02*
X134663595Y-91483690D01*
X134615976Y-91507500D01*
X134592166Y-91531309D01*
X134544547Y-91602738D01*
X134520738Y-91697976D01*
X134520738Y-91888452D01*
X134544547Y-91936071D01*
X134568357Y-91959880D01*
X134615976Y-91983690D01*
X134711214Y-91983690D01*
X134758833Y-91959880D01*
X134782642Y-91936071D01*
X134806452Y-91888452D01*
X134806452Y-91769404D01*
X134782642Y-91721785D01*
X134758833Y-91697976D01*
X134711214Y-91674166D01*
X134615976Y-91674166D01*
X134568357Y-91697976D01*
X134544547Y-91721785D01*
X134520738Y-91769404D01*
D11*
%TO.C,C15*%
D10*
X144768071Y-80712428D02*
X144791880Y-80736238D01*
X144815690Y-80807666D01*
X144815690Y-80855285D01*
X144791880Y-80926714D01*
X144744261Y-80974333D01*
X144696642Y-80998142D01*
X144601404Y-81021952D01*
X144529976Y-81021952D01*
X144434738Y-80998142D01*
X144387119Y-80974333D01*
X144339500Y-80926714D01*
X144315690Y-80855285D01*
X144315690Y-80807666D01*
X144339500Y-80736238D01*
X144363309Y-80712428D01*
X144815690Y-80236238D02*
X144815690Y-80521952D01*
X144815690Y-80379095D02*
X144315690Y-80379095D01*
X144387119Y-80426714D01*
X144434738Y-80474333D01*
X144458547Y-80521952D01*
X144315690Y-79783857D02*
X144315690Y-80021952D01*
X144553785Y-80045761D01*
X144529976Y-80021952D01*
X144506166Y-79974333D01*
X144506166Y-79855285D01*
X144529976Y-79807666D01*
X144553785Y-79783857D01*
X144601404Y-79760047D01*
X144720452Y-79760047D01*
X144768071Y-79783857D01*
X144791880Y-79807666D01*
X144815690Y-79855285D01*
X144815690Y-79974333D01*
X144791880Y-80021952D01*
X144768071Y-80045761D01*
D11*
%TO.C,C14*%
D10*
X134489071Y-76315071D02*
X134465261Y-76338880D01*
X134393833Y-76362690D01*
X134346214Y-76362690D01*
X134274785Y-76338880D01*
X134227166Y-76291261D01*
X134203357Y-76243642D01*
X134179547Y-76148404D01*
X134179547Y-76076976D01*
X134203357Y-75981738D01*
X134227166Y-75934119D01*
X134274785Y-75886500D01*
X134346214Y-75862690D01*
X134393833Y-75862690D01*
X134465261Y-75886500D01*
X134489071Y-75910309D01*
X134965261Y-76362690D02*
X134679547Y-76362690D01*
X134822404Y-76362690D02*
X134822404Y-75862690D01*
X134774785Y-75934119D01*
X134727166Y-75981738D01*
X134679547Y-76005547D01*
X135393833Y-76029357D02*
X135393833Y-76362690D01*
X135274785Y-75838880D02*
X135155738Y-76196023D01*
X135465261Y-76196023D01*
D11*
%TO.C,C12*%
D10*
X124293571Y-86301571D02*
X124269761Y-86325380D01*
X124198333Y-86349190D01*
X124150714Y-86349190D01*
X124079285Y-86325380D01*
X124031666Y-86277761D01*
X124007857Y-86230142D01*
X123984047Y-86134904D01*
X123984047Y-86063476D01*
X124007857Y-85968238D01*
X124031666Y-85920619D01*
X124079285Y-85873000D01*
X124150714Y-85849190D01*
X124198333Y-85849190D01*
X124269761Y-85873000D01*
X124293571Y-85896809D01*
X124769761Y-86349190D02*
X124484047Y-86349190D01*
X124626904Y-86349190D02*
X124626904Y-85849190D01*
X124579285Y-85920619D01*
X124531666Y-85968238D01*
X124484047Y-85992047D01*
X124960238Y-85896809D02*
X124984047Y-85873000D01*
X125031666Y-85849190D01*
X125150714Y-85849190D01*
X125198333Y-85873000D01*
X125222142Y-85896809D01*
X125245952Y-85944428D01*
X125245952Y-85992047D01*
X125222142Y-86063476D01*
X124936428Y-86349190D01*
X125245952Y-86349190D01*
D11*
%TO.C,C10*%
D10*
X146744571Y-88824571D02*
X146720761Y-88848380D01*
X146649333Y-88872190D01*
X146601714Y-88872190D01*
X146530285Y-88848380D01*
X146482666Y-88800761D01*
X146458857Y-88753142D01*
X146435047Y-88657904D01*
X146435047Y-88586476D01*
X146458857Y-88491238D01*
X146482666Y-88443619D01*
X146530285Y-88396000D01*
X146601714Y-88372190D01*
X146649333Y-88372190D01*
X146720761Y-88396000D01*
X146744571Y-88419809D01*
X147220761Y-88872190D02*
X146935047Y-88872190D01*
X147077904Y-88872190D02*
X147077904Y-88372190D01*
X147030285Y-88443619D01*
X146982666Y-88491238D01*
X146935047Y-88515047D01*
X147530285Y-88372190D02*
X147577904Y-88372190D01*
X147625523Y-88396000D01*
X147649333Y-88419809D01*
X147673142Y-88467428D01*
X147696952Y-88562666D01*
X147696952Y-88681714D01*
X147673142Y-88776952D01*
X147649333Y-88824571D01*
X147625523Y-88848380D01*
X147577904Y-88872190D01*
X147530285Y-88872190D01*
X147482666Y-88848380D01*
X147458857Y-88824571D01*
X147435047Y-88776952D01*
X147411238Y-88681714D01*
X147411238Y-88562666D01*
X147435047Y-88467428D01*
X147458857Y-88419809D01*
X147482666Y-88396000D01*
X147530285Y-88372190D01*
D11*
%TO.C,C9*%
D10*
X139553166Y-97443571D02*
X139529357Y-97467380D01*
X139457928Y-97491190D01*
X139410309Y-97491190D01*
X139338880Y-97467380D01*
X139291261Y-97419761D01*
X139267452Y-97372142D01*
X139243642Y-97276904D01*
X139243642Y-97205476D01*
X139267452Y-97110238D01*
X139291261Y-97062619D01*
X139338880Y-97015000D01*
X139410309Y-96991190D01*
X139457928Y-96991190D01*
X139529357Y-97015000D01*
X139553166Y-97038809D01*
X139791261Y-97491190D02*
X139886500Y-97491190D01*
X139934119Y-97467380D01*
X139957928Y-97443571D01*
X140005547Y-97372142D01*
X140029357Y-97276904D01*
X140029357Y-97086428D01*
X140005547Y-97038809D01*
X139981738Y-97015000D01*
X139934119Y-96991190D01*
X139838880Y-96991190D01*
X139791261Y-97015000D01*
X139767452Y-97038809D01*
X139743642Y-97086428D01*
X139743642Y-97205476D01*
X139767452Y-97253095D01*
X139791261Y-97276904D01*
X139838880Y-97300714D01*
X139934119Y-97300714D01*
X139981738Y-97276904D01*
X140005547Y-97253095D01*
X140029357Y-97205476D01*
D11*
%TO.C,C7*%
D10*
X129274071Y-98127333D02*
X129297880Y-98151142D01*
X129321690Y-98222571D01*
X129321690Y-98270190D01*
X129297880Y-98341619D01*
X129250261Y-98389238D01*
X129202642Y-98413047D01*
X129107404Y-98436857D01*
X129035976Y-98436857D01*
X128940738Y-98413047D01*
X128893119Y-98389238D01*
X128845500Y-98341619D01*
X128821690Y-98270190D01*
X128821690Y-98222571D01*
X128845500Y-98151142D01*
X128869309Y-98127333D01*
X128821690Y-97960666D02*
X128821690Y-97627333D01*
X129321690Y-97841619D01*
D11*
%TO.C,C6*%
D10*
X130472666Y-96381071D02*
X130448857Y-96404880D01*
X130377428Y-96428690D01*
X130329809Y-96428690D01*
X130258380Y-96404880D01*
X130210761Y-96357261D01*
X130186952Y-96309642D01*
X130163142Y-96214404D01*
X130163142Y-96142976D01*
X130186952Y-96047738D01*
X130210761Y-96000119D01*
X130258380Y-95952500D01*
X130329809Y-95928690D01*
X130377428Y-95928690D01*
X130448857Y-95952500D01*
X130472666Y-95976309D01*
X130901238Y-95928690D02*
X130806000Y-95928690D01*
X130758380Y-95952500D01*
X130734571Y-95976309D01*
X130686952Y-96047738D01*
X130663142Y-96142976D01*
X130663142Y-96333452D01*
X130686952Y-96381071D01*
X130710761Y-96404880D01*
X130758380Y-96428690D01*
X130853619Y-96428690D01*
X130901238Y-96404880D01*
X130925047Y-96381071D01*
X130948857Y-96333452D01*
X130948857Y-96214404D01*
X130925047Y-96166785D01*
X130901238Y-96142976D01*
X130853619Y-96119166D01*
X130758380Y-96119166D01*
X130710761Y-96142976D01*
X130686952Y-96166785D01*
X130663142Y-96214404D01*
%TO.C,C5*%
X132504666Y-96000071D02*
X132480857Y-96023880D01*
X132409428Y-96047690D01*
X132361809Y-96047690D01*
X132290380Y-96023880D01*
X132242761Y-95976261D01*
X132218952Y-95928642D01*
X132195142Y-95833404D01*
X132195142Y-95761976D01*
X132218952Y-95666738D01*
X132242761Y-95619119D01*
X132290380Y-95571500D01*
X132361809Y-95547690D01*
X132409428Y-95547690D01*
X132480857Y-95571500D01*
X132504666Y-95595309D01*
X132957047Y-95547690D02*
X132718952Y-95547690D01*
X132695142Y-95785785D01*
X132718952Y-95761976D01*
X132766571Y-95738166D01*
X132885619Y-95738166D01*
X132933238Y-95761976D01*
X132957047Y-95785785D01*
X132980857Y-95833404D01*
X132980857Y-95952452D01*
X132957047Y-96000071D01*
X132933238Y-96023880D01*
X132885619Y-96047690D01*
X132766571Y-96047690D01*
X132718952Y-96023880D01*
X132695142Y-96000071D01*
D11*
%TO.C,C4*%
D10*
X144887166Y-93015571D02*
X144863357Y-93039380D01*
X144791928Y-93063190D01*
X144744309Y-93063190D01*
X144672880Y-93039380D01*
X144625261Y-92991761D01*
X144601452Y-92944142D01*
X144577642Y-92848904D01*
X144577642Y-92777476D01*
X144601452Y-92682238D01*
X144625261Y-92634619D01*
X144672880Y-92587000D01*
X144744309Y-92563190D01*
X144791928Y-92563190D01*
X144863357Y-92587000D01*
X144887166Y-92610809D01*
X145315738Y-92729857D02*
X145315738Y-93063190D01*
X145196690Y-92539380D02*
X145077642Y-92896523D01*
X145387166Y-92896523D01*
D11*
%TO.C,C3*%
D10*
X127805666Y-96762071D02*
X127781857Y-96785880D01*
X127710428Y-96809690D01*
X127662809Y-96809690D01*
X127591380Y-96785880D01*
X127543761Y-96738261D01*
X127519952Y-96690642D01*
X127496142Y-96595404D01*
X127496142Y-96523976D01*
X127519952Y-96428738D01*
X127543761Y-96381119D01*
X127591380Y-96333500D01*
X127662809Y-96309690D01*
X127710428Y-96309690D01*
X127781857Y-96333500D01*
X127805666Y-96357309D01*
X127972333Y-96309690D02*
X128281857Y-96309690D01*
X128115190Y-96500166D01*
X128186619Y-96500166D01*
X128234238Y-96523976D01*
X128258047Y-96547785D01*
X128281857Y-96595404D01*
X128281857Y-96714452D01*
X128258047Y-96762071D01*
X128234238Y-96785880D01*
X128186619Y-96809690D01*
X128043761Y-96809690D01*
X127996142Y-96785880D01*
X127972333Y-96762071D01*
D11*
%TO.C,C2*%
D10*
X123297166Y-96889071D02*
X123273357Y-96912880D01*
X123201928Y-96936690D01*
X123154309Y-96936690D01*
X123082880Y-96912880D01*
X123035261Y-96865261D01*
X123011452Y-96817642D01*
X122987642Y-96722404D01*
X122987642Y-96650976D01*
X123011452Y-96555738D01*
X123035261Y-96508119D01*
X123082880Y-96460500D01*
X123154309Y-96436690D01*
X123201928Y-96436690D01*
X123273357Y-96460500D01*
X123297166Y-96484309D01*
X123487642Y-96484309D02*
X123511452Y-96460500D01*
X123559071Y-96436690D01*
X123678119Y-96436690D01*
X123725738Y-96460500D01*
X123749547Y-96484309D01*
X123773357Y-96531928D01*
X123773357Y-96579547D01*
X123749547Y-96650976D01*
X123463833Y-96936690D01*
X123773357Y-96936690D01*
%TO.C,C1*%
X120185666Y-104445571D02*
X120161857Y-104469380D01*
X120090428Y-104493190D01*
X120042809Y-104493190D01*
X119971380Y-104469380D01*
X119923761Y-104421761D01*
X119899952Y-104374142D01*
X119876142Y-104278904D01*
X119876142Y-104207476D01*
X119899952Y-104112238D01*
X119923761Y-104064619D01*
X119971380Y-104017000D01*
X120042809Y-103993190D01*
X120090428Y-103993190D01*
X120161857Y-104017000D01*
X120185666Y-104040809D01*
X120661857Y-104493190D02*
X120376142Y-104493190D01*
X120519000Y-104493190D02*
X120519000Y-103993190D01*
X120471380Y-104064619D01*
X120423761Y-104112238D01*
X120376142Y-104136047D01*
D11*
%TO.C,J1*%
D10*
X145186654Y-83355690D02*
X145186654Y-83712833D01*
X145162845Y-83784261D01*
X145115226Y-83831880D01*
X145043797Y-83855690D01*
X144996178Y-83855690D01*
X145686654Y-83855690D02*
X145400940Y-83855690D01*
X145543797Y-83855690D02*
X145543797Y-83355690D01*
X145496178Y-83427119D01*
X145448559Y-83474738D01*
X145400940Y-83498547D01*
D15*
%TO.C,D6*%
D10*
X147482690Y-75110702D02*
X146982690Y-75110702D01*
X146982690Y-74991654D01*
X147006500Y-74920226D01*
X147054119Y-74872607D01*
X147101738Y-74848797D01*
X147196976Y-74824988D01*
X147268404Y-74824988D01*
X147363642Y-74848797D01*
X147411261Y-74872607D01*
X147458880Y-74920226D01*
X147482690Y-74991654D01*
X147482690Y-75110702D01*
X146982690Y-74396416D02*
X146982690Y-74491654D01*
X147006500Y-74539273D01*
X147030309Y-74563083D01*
X147101738Y-74610702D01*
X147196976Y-74634511D01*
X147387452Y-74634511D01*
X147435071Y-74610702D01*
X147458880Y-74586892D01*
X147482690Y-74539273D01*
X147482690Y-74444035D01*
X147458880Y-74396416D01*
X147435071Y-74372607D01*
X147387452Y-74348797D01*
X147268404Y-74348797D01*
X147220785Y-74372607D01*
X147196976Y-74396416D01*
X147173166Y-74444035D01*
X147173166Y-74539273D01*
X147196976Y-74586892D01*
X147220785Y-74610702D01*
X147268404Y-74634511D01*
D15*
%TO.C,Y1*%
D10*
X127318095Y-82323095D02*
X127556190Y-82323095D01*
X127056190Y-82489761D02*
X127318095Y-82323095D01*
X127056190Y-82156428D01*
X127556190Y-81727857D02*
X127556190Y-82013571D01*
X127556190Y-81870714D02*
X127056190Y-81870714D01*
X127127619Y-81918333D01*
X127175238Y-81965952D01*
X127199047Y-82013571D01*
D11*
%TO.C,U4*%
D10*
X128968547Y-69258690D02*
X128968547Y-69663452D01*
X128992357Y-69711071D01*
X129016166Y-69734880D01*
X129063785Y-69758690D01*
X129159023Y-69758690D01*
X129206642Y-69734880D01*
X129230452Y-69711071D01*
X129254261Y-69663452D01*
X129254261Y-69258690D01*
X129706642Y-69425357D02*
X129706642Y-69758690D01*
X129587595Y-69234880D02*
X129468547Y-69592023D01*
X129778071Y-69592023D01*
D11*
%TO.C,U2*%
D10*
X130365547Y-77831190D02*
X130365547Y-78235952D01*
X130389357Y-78283571D01*
X130413166Y-78307380D01*
X130460785Y-78331190D01*
X130556023Y-78331190D01*
X130603642Y-78307380D01*
X130627452Y-78283571D01*
X130651261Y-78235952D01*
X130651261Y-77831190D01*
X130865547Y-77878809D02*
X130889357Y-77855000D01*
X130936976Y-77831190D01*
X131056023Y-77831190D01*
X131103642Y-77855000D01*
X131127452Y-77878809D01*
X131151261Y-77926428D01*
X131151261Y-77974047D01*
X131127452Y-78045476D01*
X130841738Y-78331190D01*
X131151261Y-78331190D01*
D11*
%TO.C,U1*%
D10*
X147744690Y-103377952D02*
X148149452Y-103377952D01*
X148197071Y-103354142D01*
X148220880Y-103330333D01*
X148244690Y-103282714D01*
X148244690Y-103187476D01*
X148220880Y-103139857D01*
X148197071Y-103116047D01*
X148149452Y-103092238D01*
X147744690Y-103092238D01*
X148244690Y-102592238D02*
X148244690Y-102877952D01*
X148244690Y-102735095D02*
X147744690Y-102735095D01*
X147816119Y-102782714D01*
X147863738Y-102830333D01*
X147887547Y-102877952D01*
D11*
%TO.C,TP1*%
D10*
X136973547Y-94341190D02*
X137259261Y-94341190D01*
X137116404Y-94841190D02*
X137116404Y-94341190D01*
X137425928Y-94841190D02*
X137425928Y-94341190D01*
X137616404Y-94341190D01*
X137664023Y-94365000D01*
X137687833Y-94388809D01*
X137711642Y-94436428D01*
X137711642Y-94507857D01*
X137687833Y-94555476D01*
X137664023Y-94579285D01*
X137616404Y-94603095D01*
X137425928Y-94603095D01*
X138187833Y-94841190D02*
X137902119Y-94841190D01*
X138044976Y-94841190D02*
X138044976Y-94341190D01*
X137997357Y-94412619D01*
X137949738Y-94460238D01*
X137902119Y-94484047D01*
%TO.C,R11*%
X136116190Y-72901928D02*
X135878095Y-73068595D01*
X136116190Y-73187642D02*
X135616190Y-73187642D01*
X135616190Y-72997166D01*
X135640000Y-72949547D01*
X135663809Y-72925738D01*
X135711428Y-72901928D01*
X135782857Y-72901928D01*
X135830476Y-72925738D01*
X135854285Y-72949547D01*
X135878095Y-72997166D01*
X135878095Y-73187642D01*
X136116190Y-72425738D02*
X136116190Y-72711452D01*
X136116190Y-72568595D02*
X135616190Y-72568595D01*
X135687619Y-72616214D01*
X135735238Y-72663833D01*
X135759047Y-72711452D01*
X136116190Y-71949547D02*
X136116190Y-72235261D01*
X136116190Y-72092404D02*
X135616190Y-72092404D01*
X135687619Y-72140023D01*
X135735238Y-72187642D01*
X135759047Y-72235261D01*
D11*
%TO.C,R10*%
D10*
X137195690Y-72901928D02*
X136957595Y-73068595D01*
X137195690Y-73187642D02*
X136695690Y-73187642D01*
X136695690Y-72997166D01*
X136719500Y-72949547D01*
X136743309Y-72925738D01*
X136790928Y-72901928D01*
X136862357Y-72901928D01*
X136909976Y-72925738D01*
X136933785Y-72949547D01*
X136957595Y-72997166D01*
X136957595Y-73187642D01*
X137195690Y-72425738D02*
X137195690Y-72711452D01*
X137195690Y-72568595D02*
X136695690Y-72568595D01*
X136767119Y-72616214D01*
X136814738Y-72663833D01*
X136838547Y-72711452D01*
X136695690Y-72116214D02*
X136695690Y-72068595D01*
X136719500Y-72020976D01*
X136743309Y-71997166D01*
X136790928Y-71973357D01*
X136886166Y-71949547D01*
X137005214Y-71949547D01*
X137100452Y-71973357D01*
X137148071Y-71997166D01*
X137171880Y-72020976D01*
X137195690Y-72068595D01*
X137195690Y-72116214D01*
X137171880Y-72163833D01*
X137148071Y-72187642D01*
X137100452Y-72211452D01*
X137005214Y-72235261D01*
X136886166Y-72235261D01*
X136790928Y-72211452D01*
X136743309Y-72187642D01*
X136719500Y-72163833D01*
X136695690Y-72116214D01*
D11*
%TO.C,R9*%
D10*
X140823166Y-77315190D02*
X140656500Y-77077095D01*
X140537452Y-77315190D02*
X140537452Y-76815190D01*
X140727928Y-76815190D01*
X140775547Y-76839000D01*
X140799357Y-76862809D01*
X140823166Y-76910428D01*
X140823166Y-76981857D01*
X140799357Y-77029476D01*
X140775547Y-77053285D01*
X140727928Y-77077095D01*
X140537452Y-77077095D01*
X141061261Y-77315190D02*
X141156500Y-77315190D01*
X141204119Y-77291380D01*
X141227928Y-77267571D01*
X141275547Y-77196142D01*
X141299357Y-77100904D01*
X141299357Y-76910428D01*
X141275547Y-76862809D01*
X141251738Y-76839000D01*
X141204119Y-76815190D01*
X141108880Y-76815190D01*
X141061261Y-76839000D01*
X141037452Y-76862809D01*
X141013642Y-76910428D01*
X141013642Y-77029476D01*
X141037452Y-77077095D01*
X141061261Y-77100904D01*
X141108880Y-77124714D01*
X141204119Y-77124714D01*
X141251738Y-77100904D01*
X141275547Y-77077095D01*
X141299357Y-77029476D01*
D11*
%TO.C,R8*%
D10*
X140823166Y-78077190D02*
X140656500Y-77839095D01*
X140537452Y-78077190D02*
X140537452Y-77577190D01*
X140727928Y-77577190D01*
X140775547Y-77601000D01*
X140799357Y-77624809D01*
X140823166Y-77672428D01*
X140823166Y-77743857D01*
X140799357Y-77791476D01*
X140775547Y-77815285D01*
X140727928Y-77839095D01*
X140537452Y-77839095D01*
X141108880Y-77791476D02*
X141061261Y-77767666D01*
X141037452Y-77743857D01*
X141013642Y-77696238D01*
X141013642Y-77672428D01*
X141037452Y-77624809D01*
X141061261Y-77601000D01*
X141108880Y-77577190D01*
X141204119Y-77577190D01*
X141251738Y-77601000D01*
X141275547Y-77624809D01*
X141299357Y-77672428D01*
X141299357Y-77696238D01*
X141275547Y-77743857D01*
X141251738Y-77767666D01*
X141204119Y-77791476D01*
X141108880Y-77791476D01*
X141061261Y-77815285D01*
X141037452Y-77839095D01*
X141013642Y-77886714D01*
X141013642Y-77981952D01*
X141037452Y-78029571D01*
X141061261Y-78053380D01*
X141108880Y-78077190D01*
X141204119Y-78077190D01*
X141251738Y-78053380D01*
X141275547Y-78029571D01*
X141299357Y-77981952D01*
X141299357Y-77886714D01*
X141275547Y-77839095D01*
X141251738Y-77815285D01*
X141204119Y-77791476D01*
D11*
%TO.C,R7*%
D10*
X149959190Y-77616833D02*
X149721095Y-77783500D01*
X149959190Y-77902547D02*
X149459190Y-77902547D01*
X149459190Y-77712071D01*
X149483000Y-77664452D01*
X149506809Y-77640642D01*
X149554428Y-77616833D01*
X149625857Y-77616833D01*
X149673476Y-77640642D01*
X149697285Y-77664452D01*
X149721095Y-77712071D01*
X149721095Y-77902547D01*
X149459190Y-77450166D02*
X149459190Y-77116833D01*
X149959190Y-77331119D01*
D11*
%TO.C,R6*%
D10*
X126237190Y-71584333D02*
X125999095Y-71751000D01*
X126237190Y-71870047D02*
X125737190Y-71870047D01*
X125737190Y-71679571D01*
X125761000Y-71631952D01*
X125784809Y-71608142D01*
X125832428Y-71584333D01*
X125903857Y-71584333D01*
X125951476Y-71608142D01*
X125975285Y-71631952D01*
X125999095Y-71679571D01*
X125999095Y-71870047D01*
X125737190Y-71155761D02*
X125737190Y-71251000D01*
X125761000Y-71298619D01*
X125784809Y-71322428D01*
X125856238Y-71370047D01*
X125951476Y-71393857D01*
X126141952Y-71393857D01*
X126189571Y-71370047D01*
X126213380Y-71346238D01*
X126237190Y-71298619D01*
X126237190Y-71203380D01*
X126213380Y-71155761D01*
X126189571Y-71131952D01*
X126141952Y-71108142D01*
X126022904Y-71108142D01*
X125975285Y-71131952D01*
X125951476Y-71155761D01*
X125927666Y-71203380D01*
X125927666Y-71298619D01*
X125951476Y-71346238D01*
X125975285Y-71370047D01*
X126022904Y-71393857D01*
D11*
%TO.C,R5*%
D10*
X151546690Y-102064333D02*
X151308595Y-102231000D01*
X151546690Y-102350047D02*
X151046690Y-102350047D01*
X151046690Y-102159571D01*
X151070500Y-102111952D01*
X151094309Y-102088142D01*
X151141928Y-102064333D01*
X151213357Y-102064333D01*
X151260976Y-102088142D01*
X151284785Y-102111952D01*
X151308595Y-102159571D01*
X151308595Y-102350047D01*
X151046690Y-101611952D02*
X151046690Y-101850047D01*
X151284785Y-101873857D01*
X151260976Y-101850047D01*
X151237166Y-101802428D01*
X151237166Y-101683380D01*
X151260976Y-101635761D01*
X151284785Y-101611952D01*
X151332404Y-101588142D01*
X151451452Y-101588142D01*
X151499071Y-101611952D01*
X151522880Y-101635761D01*
X151546690Y-101683380D01*
X151546690Y-101802428D01*
X151522880Y-101850047D01*
X151499071Y-101873857D01*
D11*
%TO.C,R4*%
D10*
X145204666Y-104683690D02*
X145038000Y-104445595D01*
X144918952Y-104683690D02*
X144918952Y-104183690D01*
X145109428Y-104183690D01*
X145157047Y-104207500D01*
X145180857Y-104231309D01*
X145204666Y-104278928D01*
X145204666Y-104350357D01*
X145180857Y-104397976D01*
X145157047Y-104421785D01*
X145109428Y-104445595D01*
X144918952Y-104445595D01*
X145633238Y-104350357D02*
X145633238Y-104683690D01*
X145514190Y-104159880D02*
X145395142Y-104517023D01*
X145704666Y-104517023D01*
D11*
%TO.C,R3*%
D10*
X128623190Y-93174333D02*
X128385095Y-93341000D01*
X128623190Y-93460047D02*
X128123190Y-93460047D01*
X128123190Y-93269571D01*
X128147000Y-93221952D01*
X128170809Y-93198142D01*
X128218428Y-93174333D01*
X128289857Y-93174333D01*
X128337476Y-93198142D01*
X128361285Y-93221952D01*
X128385095Y-93269571D01*
X128385095Y-93460047D01*
X128123190Y-93007666D02*
X128123190Y-92698142D01*
X128313666Y-92864809D01*
X128313666Y-92793380D01*
X128337476Y-92745761D01*
X128361285Y-92721952D01*
X128408904Y-92698142D01*
X128527952Y-92698142D01*
X128575571Y-92721952D01*
X128599380Y-92745761D01*
X128623190Y-92793380D01*
X128623190Y-92936238D01*
X128599380Y-92983857D01*
X128575571Y-93007666D01*
D11*
%TO.C,R2*%
D10*
X151165690Y-95206333D02*
X150927595Y-95373000D01*
X151165690Y-95492047D02*
X150665690Y-95492047D01*
X150665690Y-95301571D01*
X150689500Y-95253952D01*
X150713309Y-95230142D01*
X150760928Y-95206333D01*
X150832357Y-95206333D01*
X150879976Y-95230142D01*
X150903785Y-95253952D01*
X150927595Y-95301571D01*
X150927595Y-95492047D01*
X150713309Y-95015857D02*
X150689500Y-94992047D01*
X150665690Y-94944428D01*
X150665690Y-94825380D01*
X150689500Y-94777761D01*
X150713309Y-94753952D01*
X150760928Y-94730142D01*
X150808547Y-94730142D01*
X150879976Y-94753952D01*
X151165690Y-95039666D01*
X151165690Y-94730142D01*
D11*
%TO.C,R1*%
D10*
X130083690Y-91205833D02*
X129845595Y-91372500D01*
X130083690Y-91491547D02*
X129583690Y-91491547D01*
X129583690Y-91301071D01*
X129607500Y-91253452D01*
X129631309Y-91229642D01*
X129678928Y-91205833D01*
X129750357Y-91205833D01*
X129797976Y-91229642D01*
X129821785Y-91253452D01*
X129845595Y-91301071D01*
X129845595Y-91491547D01*
X130083690Y-90729642D02*
X130083690Y-91015357D01*
X130083690Y-90872500D02*
X129583690Y-90872500D01*
X129655119Y-90920119D01*
X129702738Y-90967738D01*
X129726547Y-91015357D01*
D11*
%TO.C,Q3*%
D10*
X144732380Y-75457809D02*
X144684761Y-75434000D01*
X144637142Y-75386380D01*
X144565714Y-75314952D01*
X144518095Y-75291142D01*
X144470476Y-75291142D01*
X144494285Y-75410190D02*
X144446666Y-75386380D01*
X144399047Y-75338761D01*
X144375238Y-75243523D01*
X144375238Y-75076857D01*
X144399047Y-74981619D01*
X144446666Y-74934000D01*
X144494285Y-74910190D01*
X144589523Y-74910190D01*
X144637142Y-74934000D01*
X144684761Y-74981619D01*
X144708571Y-75076857D01*
X144708571Y-75243523D01*
X144684761Y-75338761D01*
X144637142Y-75386380D01*
X144589523Y-75410190D01*
X144494285Y-75410190D01*
X144875238Y-74910190D02*
X145184761Y-74910190D01*
X145018095Y-75100666D01*
X145089523Y-75100666D01*
X145137142Y-75124476D01*
X145160952Y-75148285D01*
X145184761Y-75195904D01*
X145184761Y-75314952D01*
X145160952Y-75362571D01*
X145137142Y-75386380D01*
X145089523Y-75410190D01*
X144946666Y-75410190D01*
X144899047Y-75386380D01*
X144875238Y-75362571D01*
%TO.C,Q2*%
X133365880Y-94317309D02*
X133318261Y-94293500D01*
X133270642Y-94245880D01*
X133199214Y-94174452D01*
X133151595Y-94150642D01*
X133103976Y-94150642D01*
X133127785Y-94269690D02*
X133080166Y-94245880D01*
X133032547Y-94198261D01*
X133008738Y-94103023D01*
X133008738Y-93936357D01*
X133032547Y-93841119D01*
X133080166Y-93793500D01*
X133127785Y-93769690D01*
X133223023Y-93769690D01*
X133270642Y-93793500D01*
X133318261Y-93841119D01*
X133342071Y-93936357D01*
X133342071Y-94103023D01*
X133318261Y-94198261D01*
X133270642Y-94245880D01*
X133223023Y-94269690D01*
X133127785Y-94269690D01*
X133532547Y-93817309D02*
X133556357Y-93793500D01*
X133603976Y-93769690D01*
X133723023Y-93769690D01*
X133770642Y-93793500D01*
X133794452Y-93817309D01*
X133818261Y-93864928D01*
X133818261Y-93912547D01*
X133794452Y-93983976D01*
X133508738Y-94269690D01*
X133818261Y-94269690D01*
%TO.C,Q1*%
X148669380Y-94444309D02*
X148621761Y-94420500D01*
X148574142Y-94372880D01*
X148502714Y-94301452D01*
X148455095Y-94277642D01*
X148407476Y-94277642D01*
X148431285Y-94396690D02*
X148383666Y-94372880D01*
X148336047Y-94325261D01*
X148312238Y-94230023D01*
X148312238Y-94063357D01*
X148336047Y-93968119D01*
X148383666Y-93920500D01*
X148431285Y-93896690D01*
X148526523Y-93896690D01*
X148574142Y-93920500D01*
X148621761Y-93968119D01*
X148645571Y-94063357D01*
X148645571Y-94230023D01*
X148621761Y-94325261D01*
X148574142Y-94372880D01*
X148526523Y-94396690D01*
X148431285Y-94396690D01*
X149121761Y-94396690D02*
X148836047Y-94396690D01*
X148978904Y-94396690D02*
X148978904Y-93896690D01*
X148931285Y-93968119D01*
X148883666Y-94015738D01*
X148836047Y-94039547D01*
%TO.C,M1*%
X144946738Y-72425690D02*
X144946738Y-71925690D01*
X145113404Y-72282833D01*
X145280071Y-71925690D01*
X145280071Y-72425690D01*
X145780071Y-72425690D02*
X145494357Y-72425690D01*
X145637214Y-72425690D02*
X145637214Y-71925690D01*
X145589595Y-71997119D01*
X145541976Y-72044738D01*
X145494357Y-72068547D01*
D11*
%TO.C,L2*%
D10*
X124435666Y-89362190D02*
X124197571Y-89362190D01*
X124197571Y-88862190D01*
X124578523Y-88909809D02*
X124602333Y-88886000D01*
X124649952Y-88862190D01*
X124769000Y-88862190D01*
X124816619Y-88886000D01*
X124840428Y-88909809D01*
X124864238Y-88957428D01*
X124864238Y-89005047D01*
X124840428Y-89076476D01*
X124554714Y-89362190D01*
X124864238Y-89362190D01*
D11*
%TO.C,L1*%
D10*
X120495190Y-97746333D02*
X120495190Y-97984428D01*
X119995190Y-97984428D01*
X120495190Y-97317761D02*
X120495190Y-97603476D01*
X120495190Y-97460619D02*
X119995190Y-97460619D01*
X120066619Y-97508238D01*
X120114238Y-97555857D01*
X120138047Y-97603476D01*
D11*
%TO.C,JP1*%
D10*
X126646833Y-68306190D02*
X126646833Y-68663333D01*
X126623023Y-68734761D01*
X126575404Y-68782380D01*
X126503976Y-68806190D01*
X126456357Y-68806190D01*
X126884928Y-68806190D02*
X126884928Y-68306190D01*
X127075404Y-68306190D01*
X127123023Y-68330000D01*
X127146833Y-68353809D01*
X127170642Y-68401428D01*
X127170642Y-68472857D01*
X127146833Y-68520476D01*
X127123023Y-68544285D01*
X127075404Y-68568095D01*
X126884928Y-68568095D01*
X127646833Y-68806190D02*
X127361119Y-68806190D01*
X127503976Y-68806190D02*
X127503976Y-68306190D01*
X127456357Y-68377619D01*
X127408738Y-68425238D01*
X127361119Y-68449047D01*
D11*
%TO.C,J2*%
D10*
X135077190Y-104338666D02*
X135434333Y-104338666D01*
X135505761Y-104362476D01*
X135553380Y-104410095D01*
X135577190Y-104481523D01*
X135577190Y-104529142D01*
X135124809Y-104124380D02*
X135101000Y-104100571D01*
X135077190Y-104052952D01*
X135077190Y-103933904D01*
X135101000Y-103886285D01*
X135124809Y-103862476D01*
X135172428Y-103838666D01*
X135220047Y-103838666D01*
X135291476Y-103862476D01*
X135577190Y-104148190D01*
X135577190Y-103838666D01*
D11*
%TO.C,IC1*%
D10*
X145371404Y-90777190D02*
X145371404Y-90277190D01*
X145895214Y-90729571D02*
X145871404Y-90753380D01*
X145799976Y-90777190D01*
X145752357Y-90777190D01*
X145680928Y-90753380D01*
X145633309Y-90705761D01*
X145609500Y-90658142D01*
X145585690Y-90562904D01*
X145585690Y-90491476D01*
X145609500Y-90396238D01*
X145633309Y-90348619D01*
X145680928Y-90301000D01*
X145752357Y-90277190D01*
X145799976Y-90277190D01*
X145871404Y-90301000D01*
X145895214Y-90324809D01*
X146371404Y-90777190D02*
X146085690Y-90777190D01*
X146228547Y-90777190D02*
X146228547Y-90277190D01*
X146180928Y-90348619D01*
X146133309Y-90396238D01*
X146085690Y-90420047D01*
%TO.C,D5*%
X151610190Y-99683047D02*
X151110190Y-99683047D01*
X151110190Y-99564000D01*
X151134000Y-99492571D01*
X151181619Y-99444952D01*
X151229238Y-99421142D01*
X151324476Y-99397333D01*
X151395904Y-99397333D01*
X151491142Y-99421142D01*
X151538761Y-99444952D01*
X151586380Y-99492571D01*
X151610190Y-99564000D01*
X151610190Y-99683047D01*
X151110190Y-98944952D02*
X151110190Y-99183047D01*
X151348285Y-99206857D01*
X151324476Y-99183047D01*
X151300666Y-99135428D01*
X151300666Y-99016380D01*
X151324476Y-98968761D01*
X151348285Y-98944952D01*
X151395904Y-98921142D01*
X151514952Y-98921142D01*
X151562571Y-98944952D01*
X151586380Y-98968761D01*
X151610190Y-99016380D01*
X151610190Y-99135428D01*
X151586380Y-99183047D01*
X151562571Y-99206857D01*
D11*
%TO.C,D4*%
D10*
X124408452Y-94206190D02*
X124408452Y-93706190D01*
X124527500Y-93706190D01*
X124598928Y-93730000D01*
X124646547Y-93777619D01*
X124670357Y-93825238D01*
X124694166Y-93920476D01*
X124694166Y-93991904D01*
X124670357Y-94087142D01*
X124646547Y-94134761D01*
X124598928Y-94182380D01*
X124527500Y-94206190D01*
X124408452Y-94206190D01*
X125122738Y-93872857D02*
X125122738Y-94206190D01*
X125003690Y-93682380D02*
X124884642Y-94039523D01*
X125194166Y-94039523D01*
%TO.C,D3*%
X123543190Y-102286547D02*
X123043190Y-102286547D01*
X123043190Y-102167500D01*
X123067000Y-102096071D01*
X123114619Y-102048452D01*
X123162238Y-102024642D01*
X123257476Y-102000833D01*
X123328904Y-102000833D01*
X123424142Y-102024642D01*
X123471761Y-102048452D01*
X123519380Y-102096071D01*
X123543190Y-102167500D01*
X123543190Y-102286547D01*
X123043190Y-101834166D02*
X123043190Y-101524642D01*
X123233666Y-101691309D01*
X123233666Y-101619880D01*
X123257476Y-101572261D01*
X123281285Y-101548452D01*
X123328904Y-101524642D01*
X123447952Y-101524642D01*
X123495571Y-101548452D01*
X123519380Y-101572261D01*
X123543190Y-101619880D01*
X123543190Y-101762738D01*
X123519380Y-101810357D01*
X123495571Y-101834166D01*
D11*
%TO.C,D2*%
D10*
X124789452Y-100111690D02*
X124789452Y-99611690D01*
X124908500Y-99611690D01*
X124979928Y-99635500D01*
X125027547Y-99683119D01*
X125051357Y-99730738D01*
X125075166Y-99825976D01*
X125075166Y-99897404D01*
X125051357Y-99992642D01*
X125027547Y-100040261D01*
X124979928Y-100087880D01*
X124908500Y-100111690D01*
X124789452Y-100111690D01*
X125265642Y-99659309D02*
X125289452Y-99635500D01*
X125337071Y-99611690D01*
X125456119Y-99611690D01*
X125503738Y-99635500D01*
X125527547Y-99659309D01*
X125551357Y-99706928D01*
X125551357Y-99754547D01*
X125527547Y-99825976D01*
X125241833Y-100111690D01*
X125551357Y-100111690D01*
D11*
%TO.C,D1*%
D10*
X139958190Y-93396547D02*
X139458190Y-93396547D01*
X139458190Y-93277500D01*
X139482000Y-93206071D01*
X139529619Y-93158452D01*
X139577238Y-93134642D01*
X139672476Y-93110833D01*
X139743904Y-93110833D01*
X139839142Y-93134642D01*
X139886761Y-93158452D01*
X139934380Y-93206071D01*
X139958190Y-93277500D01*
X139958190Y-93396547D01*
X139958190Y-92634642D02*
X139958190Y-92920357D01*
X139958190Y-92777500D02*
X139458190Y-92777500D01*
X139529619Y-92825119D01*
X139577238Y-92872738D01*
X139601047Y-92920357D01*
D11*
%TO.C,C24*%
D10*
X137029071Y-91364571D02*
X137005261Y-91388380D01*
X136933833Y-91412190D01*
X136886214Y-91412190D01*
X136814785Y-91388380D01*
X136767166Y-91340761D01*
X136743357Y-91293142D01*
X136719547Y-91197904D01*
X136719547Y-91126476D01*
X136743357Y-91031238D01*
X136767166Y-90983619D01*
X136814785Y-90936000D01*
X136886214Y-90912190D01*
X136933833Y-90912190D01*
X137005261Y-90936000D01*
X137029071Y-90959809D01*
X137219547Y-90959809D02*
X137243357Y-90936000D01*
X137290976Y-90912190D01*
X137410023Y-90912190D01*
X137457642Y-90936000D01*
X137481452Y-90959809D01*
X137505261Y-91007428D01*
X137505261Y-91055047D01*
X137481452Y-91126476D01*
X137195738Y-91412190D01*
X137505261Y-91412190D01*
X137933833Y-91078857D02*
X137933833Y-91412190D01*
X137814785Y-90888380D02*
X137695738Y-91245523D01*
X138005261Y-91245523D01*
%TO.C,C25*%
X127885071Y-77425071D02*
X127861261Y-77448880D01*
X127789833Y-77472690D01*
X127742214Y-77472690D01*
X127670785Y-77448880D01*
X127623166Y-77401261D01*
X127599357Y-77353642D01*
X127575547Y-77258404D01*
X127575547Y-77186976D01*
X127599357Y-77091738D01*
X127623166Y-77044119D01*
X127670785Y-76996500D01*
X127742214Y-76972690D01*
X127789833Y-76972690D01*
X127861261Y-76996500D01*
X127885071Y-77020309D01*
X128075547Y-77020309D02*
X128099357Y-76996500D01*
X128146976Y-76972690D01*
X128266023Y-76972690D01*
X128313642Y-76996500D01*
X128337452Y-77020309D01*
X128361261Y-77067928D01*
X128361261Y-77115547D01*
X128337452Y-77186976D01*
X128051738Y-77472690D01*
X128361261Y-77472690D01*
X128813642Y-76972690D02*
X128575547Y-76972690D01*
X128551738Y-77210785D01*
X128575547Y-77186976D01*
X128623166Y-77163166D01*
X128742214Y-77163166D01*
X128789833Y-77186976D01*
X128813642Y-77210785D01*
X128837452Y-77258404D01*
X128837452Y-77377452D01*
X128813642Y-77425071D01*
X128789833Y-77448880D01*
X128742214Y-77472690D01*
X128623166Y-77472690D01*
X128575547Y-77448880D01*
X128551738Y-77425071D01*
D11*
%TO.C,C20*%
D10*
X151308571Y-75096428D02*
X151332380Y-75120238D01*
X151356190Y-75191666D01*
X151356190Y-75239285D01*
X151332380Y-75310714D01*
X151284761Y-75358333D01*
X151237142Y-75382142D01*
X151141904Y-75405952D01*
X151070476Y-75405952D01*
X150975238Y-75382142D01*
X150927619Y-75358333D01*
X150880000Y-75310714D01*
X150856190Y-75239285D01*
X150856190Y-75191666D01*
X150880000Y-75120238D01*
X150903809Y-75096428D01*
X150903809Y-74905952D02*
X150880000Y-74882142D01*
X150856190Y-74834523D01*
X150856190Y-74715476D01*
X150880000Y-74667857D01*
X150903809Y-74644047D01*
X150951428Y-74620238D01*
X150999047Y-74620238D01*
X151070476Y-74644047D01*
X151356190Y-74929761D01*
X151356190Y-74620238D01*
X150856190Y-74310714D02*
X150856190Y-74263095D01*
X150880000Y-74215476D01*
X150903809Y-74191666D01*
X150951428Y-74167857D01*
X151046666Y-74144047D01*
X151165714Y-74144047D01*
X151260952Y-74167857D01*
X151308571Y-74191666D01*
X151332380Y-74215476D01*
X151356190Y-74263095D01*
X151356190Y-74310714D01*
X151332380Y-74358333D01*
X151308571Y-74382142D01*
X151260952Y-74405952D01*
X151165714Y-74429761D01*
X151046666Y-74429761D01*
X150951428Y-74405952D01*
X150903809Y-74382142D01*
X150880000Y-74358333D01*
X150856190Y-74310714D01*
D11*
%TD*%
M02*
