M48
; DRILL file {KiCad 5.1.9-73d0e3b20d~88~ubuntu20.04.1} date Thu Feb  4 03:57:58 2021
; FORMAT={-:-/ absolute / inch / decimal}
; #@! TF.CreationDate,2021-02-04T03:57:58+01:00
; #@! TF.GenerationSoftware,Kicad,Pcbnew,5.1.9-73d0e3b20d~88~ubuntu20.04.1
; #@! TF.FileFunction,Plated,1,4,PTH
FMAT,2
INCH
T1C0.0118
T2C0.0157
T3C0.0197
T4C0.0276
T5C0.0315
%
G90
G05
T1
X5.025Y-3.7075
X5.045Y-2.8525
X5.0805Y-3.633
X5.09Y-3.8175
X5.16Y-3.765
X5.1825Y-3.805
X5.1975Y-3.62
X5.235Y-3.62
X5.235Y-3.975
X5.2425Y-2.9575
X5.255Y-3.805
X5.2625Y-3.01
X5.275Y-3.9725
X5.295Y-3.8825
X5.305Y-3.586
X5.315Y-3.025
X5.335Y-3.135
X5.3475Y-2.71
X5.3825Y-2.7225
X5.4125Y-3.975
X5.4725Y-3.6175
X5.51Y-3.985
X5.5125Y-3.615
X5.535Y-4.035
X5.5775Y-3.0825
X5.6775Y-3.0975
X5.7325Y-3.8825
X5.79Y-4.0475
X5.88Y-4.0875
T2
X4.7525Y-3.3525
X4.775Y-3.615
X4.8025Y-4.0025
X4.805Y-3.97
X4.88Y-2.74
X4.9165Y-2.8385
X4.9275Y-3.5075
X4.955Y-2.9575
X4.9595Y-2.7645
X4.9975Y-3.75
X5.0Y-2.97
X5.017Y-3.0975
X5.0175Y-3.0575
X5.025Y-3.175
X5.025Y-3.9025
X5.065Y-3.555
X5.0775Y-2.79
X5.125Y-2.995
X5.165Y-3.01
X5.1725Y-3.3675
X5.1899Y-3.2595
X5.22Y-3.805
X5.2475Y-3.1375
X5.275Y-3.27
X5.3025Y-3.2025
X5.325Y-2.89
X5.3625Y-3.2275
X5.44Y-3.4525
X5.4625Y-2.8325
X5.51Y-2.94
X5.565Y-2.86
X5.63Y-3.1225
X5.6388Y-3.2538
X5.652Y-3.0075
X5.6575Y-3.6
X5.66Y-3.19
X5.7037Y-3.7
X5.7225Y-3.6175
X5.7325Y-2.885
X5.7425Y-3.2475
X5.85Y-3.49
X5.8575Y-3.2475
X5.9075Y-2.9975
X5.915Y-3.5
X5.9167Y-3.5467
X5.92Y-3.605
X5.935Y-3.795
T3
X4.785Y-3.3169
X4.785Y-3.3563
X4.785Y-3.3956
X4.785Y-3.435
T4
X5.7997Y-3.2033
X5.7997Y-3.3943
T5
X5.575Y-2.7175
X5.6538Y-2.7175
X5.7325Y-2.7175
X5.8113Y-2.7175
X5.89Y-2.7175
T4
G00X5.8891Y-3.1571
M15
G01X5.9206Y-3.1571
M16
G05
G00X5.8891Y-3.4406
M15
G01X5.9206Y-3.4406
M16
G05
T0
M30
