%TF.GenerationSoftware,KiCad,Pcbnew,5.1.9-73d0e3b20d~88~ubuntu20.04.1*%
%TF.CreationDate,2021-02-04T03:58:01+01:00*%
%TF.ProjectId,MorphWatch-STM32,4d6f7270-6857-4617-9463-682d53544d33,rev?*%
%TF.SameCoordinates,Original*%
%TF.FileFunction,Soldermask,Bot*%
%TF.FilePolarity,Negative*%
%FSLAX46Y46*%
G04 Gerber Fmt 4.6, Leading zero omitted, Abs format (unit mm)*
G04 Created by KiCad (PCBNEW 5.1.9-73d0e3b20d~88~ubuntu20.04.1) date 2021-02-04 03:58:01*
%MOMM*%
%LPD*%
G01*
G04 APERTURE LIST*
%ADD10O,0.850000X0.850000*%
%ADD11R,0.850000X0.850000*%
%ADD12O,1.350000X1.350000*%
%ADD13R,1.350000X1.350000*%
%ADD14O,2.200000X1.300000*%
%ADD15C,1.300000*%
%ADD16C,0.800000*%
G04 APERTURE END LIST*
D10*
%TO.C,J3*%
X121539000Y-84249000D03*
X121539000Y-85249000D03*
X121539000Y-86249000D03*
D11*
X121539000Y-87249000D03*
%TD*%
D12*
%TO.C,J5*%
X141606000Y-69024500D03*
X143606000Y-69024500D03*
X145606000Y-69024500D03*
X147606000Y-69024500D03*
D13*
X149606000Y-69024500D03*
%TD*%
D14*
%TO.C,J1*%
X149982000Y-80190000D03*
X149982000Y-87390000D03*
D15*
X147312000Y-86215000D03*
X147312000Y-81365000D03*
%TD*%
%TO.C,U3*%
G36*
G01*
X125214000Y-88187500D02*
X125214000Y-86187500D01*
G75*
G02*
X125414000Y-85987500I200000J0D01*
G01*
X126214000Y-85987500D01*
G75*
G02*
X126414000Y-86187500I0J-200000D01*
G01*
X126414000Y-88187500D01*
G75*
G02*
X126214000Y-88387500I-200000J0D01*
G01*
X125414000Y-88387500D01*
G75*
G02*
X125214000Y-88187500I0J200000D01*
G01*
G37*
G36*
G01*
X126714000Y-88187500D02*
X126714000Y-86187500D01*
G75*
G02*
X126914000Y-85987500I200000J0D01*
G01*
X127714000Y-85987500D01*
G75*
G02*
X127914000Y-86187500I0J-200000D01*
G01*
X127914000Y-88187500D01*
G75*
G02*
X127714000Y-88387500I-200000J0D01*
G01*
X126914000Y-88387500D01*
G75*
G02*
X126714000Y-88187500I0J200000D01*
G01*
G37*
G36*
G01*
X128214000Y-88187500D02*
X128214000Y-86187500D01*
G75*
G02*
X128414000Y-85987500I200000J0D01*
G01*
X129214000Y-85987500D01*
G75*
G02*
X129414000Y-86187500I0J-200000D01*
G01*
X129414000Y-88187500D01*
G75*
G02*
X129214000Y-88387500I-200000J0D01*
G01*
X128414000Y-88387500D01*
G75*
G02*
X128214000Y-88187500I0J200000D01*
G01*
G37*
G36*
G01*
X129714000Y-88187500D02*
X129714000Y-86187500D01*
G75*
G02*
X129914000Y-85987500I200000J0D01*
G01*
X130714000Y-85987500D01*
G75*
G02*
X130914000Y-86187500I0J-200000D01*
G01*
X130914000Y-88187500D01*
G75*
G02*
X130714000Y-88387500I-200000J0D01*
G01*
X129914000Y-88387500D01*
G75*
G02*
X129714000Y-88187500I0J200000D01*
G01*
G37*
G36*
G01*
X131214000Y-88187500D02*
X131214000Y-86187500D01*
G75*
G02*
X131414000Y-85987500I200000J0D01*
G01*
X132214000Y-85987500D01*
G75*
G02*
X132414000Y-86187500I0J-200000D01*
G01*
X132414000Y-88187500D01*
G75*
G02*
X132214000Y-88387500I-200000J0D01*
G01*
X131414000Y-88387500D01*
G75*
G02*
X131214000Y-88187500I0J200000D01*
G01*
G37*
G36*
G01*
X132714000Y-88187500D02*
X132714000Y-86187500D01*
G75*
G02*
X132914000Y-85987500I200000J0D01*
G01*
X133714000Y-85987500D01*
G75*
G02*
X133914000Y-86187500I0J-200000D01*
G01*
X133914000Y-88187500D01*
G75*
G02*
X133714000Y-88387500I-200000J0D01*
G01*
X132914000Y-88387500D01*
G75*
G02*
X132714000Y-88187500I0J200000D01*
G01*
G37*
G36*
G01*
X134214000Y-88187500D02*
X134214000Y-86187500D01*
G75*
G02*
X134414000Y-85987500I200000J0D01*
G01*
X135214000Y-85987500D01*
G75*
G02*
X135414000Y-86187500I0J-200000D01*
G01*
X135414000Y-88187500D01*
G75*
G02*
X135214000Y-88387500I-200000J0D01*
G01*
X134414000Y-88387500D01*
G75*
G02*
X134214000Y-88187500I0J200000D01*
G01*
G37*
G36*
G01*
X136934000Y-86487500D02*
X136934000Y-85687500D01*
G75*
G02*
X137134000Y-85487500I200000J0D01*
G01*
X139134000Y-85487500D01*
G75*
G02*
X139334000Y-85687500I0J-200000D01*
G01*
X139334000Y-86487500D01*
G75*
G02*
X139134000Y-86687500I-200000J0D01*
G01*
X137134000Y-86687500D01*
G75*
G02*
X136934000Y-86487500I0J200000D01*
G01*
G37*
G36*
G01*
X122794000Y-86487500D02*
X122794000Y-85687500D01*
G75*
G02*
X122994000Y-85487500I200000J0D01*
G01*
X124994000Y-85487500D01*
G75*
G02*
X125194000Y-85687500I0J-200000D01*
G01*
X125194000Y-86487500D01*
G75*
G02*
X124994000Y-86687500I-200000J0D01*
G01*
X122994000Y-86687500D01*
G75*
G02*
X122794000Y-86487500I0J200000D01*
G01*
G37*
G36*
G01*
X122794000Y-84987500D02*
X122794000Y-84187500D01*
G75*
G02*
X122994000Y-83987500I200000J0D01*
G01*
X124994000Y-83987500D01*
G75*
G02*
X125194000Y-84187500I0J-200000D01*
G01*
X125194000Y-84987500D01*
G75*
G02*
X124994000Y-85187500I-200000J0D01*
G01*
X122994000Y-85187500D01*
G75*
G02*
X122794000Y-84987500I0J200000D01*
G01*
G37*
G36*
G01*
X136934000Y-84987500D02*
X136934000Y-84187500D01*
G75*
G02*
X137134000Y-83987500I200000J0D01*
G01*
X139134000Y-83987500D01*
G75*
G02*
X139334000Y-84187500I0J-200000D01*
G01*
X139334000Y-84987500D01*
G75*
G02*
X139134000Y-85187500I-200000J0D01*
G01*
X137134000Y-85187500D01*
G75*
G02*
X136934000Y-84987500I0J200000D01*
G01*
G37*
G36*
G01*
X136934000Y-83487500D02*
X136934000Y-82687500D01*
G75*
G02*
X137134000Y-82487500I200000J0D01*
G01*
X139134000Y-82487500D01*
G75*
G02*
X139334000Y-82687500I0J-200000D01*
G01*
X139334000Y-83487500D01*
G75*
G02*
X139134000Y-83687500I-200000J0D01*
G01*
X137134000Y-83687500D01*
G75*
G02*
X136934000Y-83487500I0J200000D01*
G01*
G37*
G36*
G01*
X122794000Y-83487500D02*
X122794000Y-82687500D01*
G75*
G02*
X122994000Y-82487500I200000J0D01*
G01*
X124994000Y-82487500D01*
G75*
G02*
X125194000Y-82687500I0J-200000D01*
G01*
X125194000Y-83487500D01*
G75*
G02*
X124994000Y-83687500I-200000J0D01*
G01*
X122994000Y-83687500D01*
G75*
G02*
X122794000Y-83487500I0J200000D01*
G01*
G37*
G36*
G01*
X122794000Y-81987500D02*
X122794000Y-81187500D01*
G75*
G02*
X122994000Y-80987500I200000J0D01*
G01*
X124994000Y-80987500D01*
G75*
G02*
X125194000Y-81187500I0J-200000D01*
G01*
X125194000Y-81987500D01*
G75*
G02*
X124994000Y-82187500I-200000J0D01*
G01*
X122994000Y-82187500D01*
G75*
G02*
X122794000Y-81987500I0J200000D01*
G01*
G37*
G36*
G01*
X136934000Y-81987500D02*
X136934000Y-81187500D01*
G75*
G02*
X137134000Y-80987500I200000J0D01*
G01*
X139134000Y-80987500D01*
G75*
G02*
X139334000Y-81187500I0J-200000D01*
G01*
X139334000Y-81987500D01*
G75*
G02*
X139134000Y-82187500I-200000J0D01*
G01*
X137134000Y-82187500D01*
G75*
G02*
X136934000Y-81987500I0J200000D01*
G01*
G37*
G36*
G01*
X136934000Y-80487500D02*
X136934000Y-79687500D01*
G75*
G02*
X137134000Y-79487500I200000J0D01*
G01*
X139134000Y-79487500D01*
G75*
G02*
X139334000Y-79687500I0J-200000D01*
G01*
X139334000Y-80487500D01*
G75*
G02*
X139134000Y-80687500I-200000J0D01*
G01*
X137134000Y-80687500D01*
G75*
G02*
X136934000Y-80487500I0J200000D01*
G01*
G37*
G36*
G01*
X122794000Y-80487500D02*
X122794000Y-79687500D01*
G75*
G02*
X122994000Y-79487500I200000J0D01*
G01*
X124994000Y-79487500D01*
G75*
G02*
X125194000Y-79687500I0J-200000D01*
G01*
X125194000Y-80487500D01*
G75*
G02*
X124994000Y-80687500I-200000J0D01*
G01*
X122994000Y-80687500D01*
G75*
G02*
X122794000Y-80487500I0J200000D01*
G01*
G37*
G36*
G01*
X122794000Y-78987500D02*
X122794000Y-78187500D01*
G75*
G02*
X122994000Y-77987500I200000J0D01*
G01*
X124994000Y-77987500D01*
G75*
G02*
X125194000Y-78187500I0J-200000D01*
G01*
X125194000Y-78987500D01*
G75*
G02*
X124994000Y-79187500I-200000J0D01*
G01*
X122994000Y-79187500D01*
G75*
G02*
X122794000Y-78987500I0J200000D01*
G01*
G37*
G36*
G01*
X136934000Y-78987500D02*
X136934000Y-78187500D01*
G75*
G02*
X137134000Y-77987500I200000J0D01*
G01*
X139134000Y-77987500D01*
G75*
G02*
X139334000Y-78187500I0J-200000D01*
G01*
X139334000Y-78987500D01*
G75*
G02*
X139134000Y-79187500I-200000J0D01*
G01*
X137134000Y-79187500D01*
G75*
G02*
X136934000Y-78987500I0J200000D01*
G01*
G37*
G36*
G01*
X136934000Y-77487500D02*
X136934000Y-76687500D01*
G75*
G02*
X137134000Y-76487500I200000J0D01*
G01*
X139134000Y-76487500D01*
G75*
G02*
X139334000Y-76687500I0J-200000D01*
G01*
X139334000Y-77487500D01*
G75*
G02*
X139134000Y-77687500I-200000J0D01*
G01*
X137134000Y-77687500D01*
G75*
G02*
X136934000Y-77487500I0J200000D01*
G01*
G37*
G36*
G01*
X122794000Y-77487500D02*
X122794000Y-76687500D01*
G75*
G02*
X122994000Y-76487500I200000J0D01*
G01*
X124994000Y-76487500D01*
G75*
G02*
X125194000Y-76687500I0J-200000D01*
G01*
X125194000Y-77487500D01*
G75*
G02*
X124994000Y-77687500I-200000J0D01*
G01*
X122994000Y-77687500D01*
G75*
G02*
X122794000Y-77487500I0J200000D01*
G01*
G37*
G36*
G01*
X122794000Y-75987500D02*
X122794000Y-75187500D01*
G75*
G02*
X122994000Y-74987500I200000J0D01*
G01*
X124994000Y-74987500D01*
G75*
G02*
X125194000Y-75187500I0J-200000D01*
G01*
X125194000Y-75987500D01*
G75*
G02*
X124994000Y-76187500I-200000J0D01*
G01*
X122994000Y-76187500D01*
G75*
G02*
X122794000Y-75987500I0J200000D01*
G01*
G37*
G36*
G01*
X135714000Y-88187500D02*
X135714000Y-86187500D01*
G75*
G02*
X135914000Y-85987500I200000J0D01*
G01*
X136714000Y-85987500D01*
G75*
G02*
X136914000Y-86187500I0J-200000D01*
G01*
X136914000Y-88187500D01*
G75*
G02*
X136714000Y-88387500I-200000J0D01*
G01*
X135914000Y-88387500D01*
G75*
G02*
X135714000Y-88187500I0J200000D01*
G01*
G37*
G36*
G01*
X136934000Y-75987500D02*
X136934000Y-75187500D01*
G75*
G02*
X137134000Y-74987500I200000J0D01*
G01*
X139134000Y-74987500D01*
G75*
G02*
X139334000Y-75187500I0J-200000D01*
G01*
X139334000Y-75987500D01*
G75*
G02*
X139134000Y-76187500I-200000J0D01*
G01*
X137134000Y-76187500D01*
G75*
G02*
X136934000Y-75987500I0J200000D01*
G01*
G37*
%TD*%
D16*
%TO.C,S2*%
X121696000Y-73660000D03*
X119096000Y-73660000D03*
%TD*%
%TO.C,S1*%
X121696000Y-93472000D03*
X119096000Y-93472000D03*
%TD*%
M02*
