%TF.GenerationSoftware,KiCad,Pcbnew,5.1.9-73d0e3b20d~88~ubuntu20.04.1*%
%TF.CreationDate,2021-02-04T03:58:01+01:00*%
%TF.ProjectId,MorphWatch-STM32,4d6f7270-6857-4617-9463-682d53544d33,rev?*%
%TF.SameCoordinates,Original*%
%TF.FileFunction,Profile,NP*%
%FSLAX46Y46*%
G04 Gerber Fmt 4.6, Leading zero omitted, Abs format (unit mm)*
G04 Created by KiCad (PCBNEW 5.1.9-73d0e3b20d~88~ubuntu20.04.1) date 2021-02-04 03:58:01*
%MOMM*%
%LPD*%
G01*
G04 APERTURE LIST*
%TA.AperFunction,Profile*%
%ADD10C,0.150000*%
%TD*%
G04 APERTURE END LIST*
D10*
X122010000Y-105220000D02*
X126960000Y-105220000D01*
X148010000Y-107220000D02*
X122010000Y-107220000D01*
X148010000Y-107220000D02*
G75*
G03*
X149010000Y-106220000I0J1000000D01*
G01*
X149010000Y-66260000D02*
G75*
G03*
X148010000Y-65260000I-1000000J0D01*
G01*
X122010000Y-65260000D02*
G75*
G03*
X121010000Y-66260000I0J-1000000D01*
G01*
X121010000Y-106220000D02*
G75*
G03*
X122010000Y-107220000I1000000J0D01*
G01*
X121010000Y-66260000D02*
G75*
G03*
X122010000Y-67260000I1000000J0D01*
G01*
X122010000Y-105220000D02*
G75*
G03*
X121010000Y-106220000I0J-1000000D01*
G01*
X149010000Y-106220000D02*
G75*
G03*
X148010000Y-105220000I-1000000J0D01*
G01*
X148010000Y-67260000D02*
G75*
G03*
X149010000Y-66260000I0J1000000D01*
G01*
X148010000Y-67260000D02*
X122010000Y-67260000D01*
X122010000Y-65260000D02*
X148010000Y-65260000D01*
X122110000Y-63260000D02*
G75*
G03*
X118110000Y-67260000I0J-4000000D01*
G01*
X147910000Y-109220000D02*
G75*
G03*
X151910000Y-105220000I0J4000000D01*
G01*
X118110000Y-105220000D02*
G75*
G03*
X122110000Y-109220000I4000000J0D01*
G01*
X151910000Y-67260000D02*
G75*
G03*
X147910000Y-63260000I-4000000J0D01*
G01*
X122110000Y-109220000D02*
X147910000Y-109220000D01*
X151910000Y-105220000D02*
X151910000Y-67260000D01*
X148010000Y-105220000D02*
X143960000Y-105220000D01*
X127460000Y-104720000D02*
X143460000Y-104720000D01*
X126960000Y-105220000D02*
G75*
G03*
X127460000Y-104720000I0J500000D01*
G01*
X118110000Y-105220000D02*
X118110000Y-67260000D01*
X143460000Y-104720000D02*
G75*
G03*
X143960000Y-105220000I500000J0D01*
G01*
X147910000Y-63260000D02*
X122110000Y-63260000D01*
M02*
