%TF.GenerationSoftware,KiCad,Pcbnew,5.1.9-73d0e3b20d~88~ubuntu20.04.1*%
%TF.CreationDate,2021-02-04T03:58:01+01:00*%
%TF.ProjectId,MorphWatch-STM32,4d6f7270-6857-4617-9463-682d53544d33,rev?*%
%TF.SameCoordinates,Original*%
%TF.FileFunction,Copper,L4,Bot*%
%TF.FilePolarity,Positive*%
%FSLAX46Y46*%
G04 Gerber Fmt 4.6, Leading zero omitted, Abs format (unit mm)*
G04 Created by KiCad (PCBNEW 5.1.9-73d0e3b20d~88~ubuntu20.04.1) date 2021-02-04 03:58:01*
%MOMM*%
%LPD*%
G01*
G04 APERTURE LIST*
%TA.AperFunction,ComponentPad*%
%ADD10O,0.850000X0.850000*%
%TD*%
%TA.AperFunction,ComponentPad*%
%ADD11R,0.850000X0.850000*%
%TD*%
%TA.AperFunction,ComponentPad*%
%ADD12O,1.350000X1.350000*%
%TD*%
%TA.AperFunction,ComponentPad*%
%ADD13R,1.350000X1.350000*%
%TD*%
%TA.AperFunction,ComponentPad*%
%ADD14O,2.200000X1.300000*%
%TD*%
%TA.AperFunction,ComponentPad*%
%ADD15C,1.300000*%
%TD*%
%TA.AperFunction,SMDPad,CuDef*%
%ADD16R,0.800000X2.000000*%
%TD*%
%TA.AperFunction,SMDPad,CuDef*%
%ADD17R,2.000000X0.800000*%
%TD*%
%TA.AperFunction,ViaPad*%
%ADD18C,0.800000*%
%TD*%
%TA.AperFunction,ViaPad*%
%ADD19C,0.700000*%
%TD*%
%TA.AperFunction,ViaPad*%
%ADD20C,0.500000*%
%TD*%
%TA.AperFunction,Conductor*%
%ADD21C,0.300000*%
%TD*%
%TA.AperFunction,Conductor*%
%ADD22C,0.250000*%
%TD*%
G04 APERTURE END LIST*
D10*
%TO.P,J3,4*%
%TO.N,+3V3*%
X121539000Y-84249000D03*
%TO.P,J3,3*%
%TO.N,GND*%
X121539000Y-85249000D03*
%TO.P,J3,2*%
%TO.N,EXTSENSCL*%
X121539000Y-86249000D03*
D11*
%TO.P,J3,1*%
%TO.N,EXTSENSDA*%
X121539000Y-87249000D03*
%TD*%
D12*
%TO.P,J5,5*%
%TO.N,NRST*%
X141606000Y-69024500D03*
%TO.P,J5,4*%
%TO.N,GND*%
X143606000Y-69024500D03*
%TO.P,J5,3*%
%TO.N,TraceSWO*%
X145606000Y-69024500D03*
%TO.P,J5,2*%
%TO.N,SWCLK*%
X147606000Y-69024500D03*
D13*
%TO.P,J5,1*%
%TO.N,swdebug*%
X149606000Y-69024500D03*
%TD*%
D14*
%TO.P,J1,7*%
%TO.N,N/C*%
X149982000Y-80190000D03*
%TO.P,J1,8*%
X149982000Y-87390000D03*
D15*
%TO.P,J1,9*%
X147312000Y-86215000D03*
%TO.P,J1,6*%
X147312000Y-81365000D03*
%TD*%
D16*
%TO.P,U3,16*%
%TO.N,N/C*%
X125814000Y-87187500D03*
%TO.P,U3,15*%
X127314000Y-87187500D03*
%TO.P,U3,14*%
X128814000Y-87187500D03*
%TO.P,U3,13*%
X130314000Y-87187500D03*
%TO.P,U3,12*%
X131814000Y-87187500D03*
%TO.P,U3,11*%
X133314000Y-87187500D03*
%TO.P,U3,10*%
X134814000Y-87187500D03*
D17*
%TO.P,U3,8*%
X138134000Y-86087500D03*
%TO.P,U3,17*%
X123994000Y-86087500D03*
%TO.P,U3,18*%
X123994000Y-84587500D03*
%TO.P,U3,7*%
X138134000Y-84587500D03*
%TO.P,U3,6*%
X138134000Y-83087500D03*
%TO.P,U3,19*%
%TO.N,TXD*%
X123994000Y-83087500D03*
%TO.P,U3,20*%
%TO.N,RXD*%
X123994000Y-81587500D03*
%TO.P,U3,5*%
%TO.N,N/C*%
X138134000Y-81587500D03*
%TO.P,U3,4*%
X138134000Y-80087500D03*
%TO.P,U3,21*%
X123994000Y-80087500D03*
%TO.P,U3,22*%
%TO.N,Wakeup*%
X123994000Y-78587500D03*
%TO.P,U3,3*%
%TO.N,N/C*%
X138134000Y-78587500D03*
%TO.P,U3,2*%
X138134000Y-77087500D03*
%TO.P,U3,23*%
X123994000Y-77087500D03*
%TO.P,U3,24*%
%TO.N,GND*%
X123994000Y-75587500D03*
D16*
%TO.P,U3,9*%
%TO.N,N/C*%
X136314000Y-87187500D03*
D17*
%TO.P,U3,1*%
%TO.N,+3V3*%
X138134000Y-75587500D03*
%TD*%
D18*
%TO.N,*%
X150050500Y-76136500D03*
%TO.N,GND*%
X143562000Y-76390500D03*
X143764000Y-81026000D03*
X148780500Y-82486500D03*
X145859500Y-82486500D03*
X148590000Y-88646000D03*
X145351500Y-91884500D03*
X150749000Y-96393000D03*
D19*
X137477500Y-100965000D03*
X132969000Y-100965000D03*
X132016500Y-91948000D03*
X139001500Y-91884500D03*
D18*
X131381500Y-85534500D03*
X135255000Y-73406000D03*
X127000000Y-75438000D03*
X120713500Y-85153500D03*
X128651000Y-90297000D03*
D19*
X133477000Y-96647000D03*
X131635500Y-96647000D03*
D18*
X127635000Y-99123500D03*
D19*
X129286000Y-96964500D03*
X127635000Y-94170500D03*
D18*
X126936500Y-95250000D03*
X132588000Y-96647000D03*
D19*
X135826500Y-68834000D03*
D18*
X124878500Y-72098500D03*
X130175000Y-76073000D03*
D19*
X133667500Y-76454000D03*
D18*
%TO.N,+3V3*%
X127444500Y-77660500D03*
X131191000Y-76454000D03*
X150368000Y-91567000D03*
X150241000Y-88900000D03*
X150284500Y-90086500D03*
D19*
X133985000Y-100901500D03*
X132969000Y-91948000D03*
X140017500Y-91821000D03*
D18*
X123952000Y-69596000D03*
X128968500Y-70866000D03*
D19*
X136715500Y-69151500D03*
D18*
X138747500Y-71945500D03*
X143002000Y-79311500D03*
X121285000Y-91821000D03*
X127431500Y-78676500D03*
X122047000Y-100838000D03*
X121983500Y-101663500D03*
D20*
%TO.N,VBUS*%
X147066000Y-102806500D03*
X149352000Y-103822500D03*
D18*
X143700500Y-91440000D03*
X144875250Y-93980000D03*
D20*
%TO.N,MOSI*%
X134747000Y-91084400D03*
X134493000Y-98615500D03*
%TO.N,RESE*%
X131064000Y-95631000D03*
X139954000Y-101219000D03*
%TO.N,GDR*%
X129044458Y-92279168D03*
X140589000Y-102489000D03*
%TO.N,+BATT*%
X145605500Y-98615500D03*
X144208500Y-78676500D03*
D18*
%TO.N,Net-(JP1-Pad2)*%
X125970500Y-70217500D03*
X133286500Y-79692500D03*
%TO.N,BATT_STAT*%
X139954000Y-74676000D03*
D20*
X141668500Y-78295500D03*
%TO.N,imuSCL*%
X135001000Y-76835000D03*
D19*
X133159500Y-75120500D03*
D18*
%TO.N,BUT1*%
X125158500Y-89090500D03*
X138176000Y-87693500D03*
%TO.N,BUT2*%
X125857000Y-75120500D03*
X127635000Y-80645000D03*
D20*
%TO.N,INT*%
X135509000Y-79629000D03*
X128143000Y-72453500D03*
D18*
%TO.N,Wakeup*%
X143225490Y-82646490D03*
%TO.N,TXD*%
X136207500Y-81978500D03*
%TO.N,RXD*%
X133985000Y-83058000D03*
%TO.N,swdebug*%
X145605500Y-73279000D03*
%TO.N,TraceSWO*%
X141351000Y-72644000D03*
%TO.N,NRST*%
X131822337Y-82790264D03*
X134682502Y-81343500D03*
%TD*%
D21*
%TO.N,GND*%
X123994000Y-75587500D02*
X123994000Y-74697500D01*
X123994000Y-74697500D02*
X124714000Y-73977500D01*
X124714000Y-73977500D02*
X126492000Y-73977500D01*
X126492000Y-73977500D02*
X127000000Y-74485500D01*
X127000000Y-74485500D02*
X127000000Y-75438000D01*
X121443500Y-85153500D02*
X121539000Y-85249000D01*
X120713500Y-85153500D02*
X121443500Y-85153500D01*
D22*
%TO.N,+3V3*%
X138747500Y-74974000D02*
X138134000Y-75587500D01*
X138747500Y-71945500D02*
X138747500Y-74974000D01*
D21*
%TO.N,VBUS*%
X147066000Y-102806500D02*
X147066000Y-103251000D01*
X147066000Y-103251000D02*
X147637500Y-103822500D01*
X147637500Y-103822500D02*
X149352000Y-103822500D01*
X143700500Y-92805250D02*
X144875250Y-93980000D01*
X143700500Y-91440000D02*
X143700500Y-92805250D01*
X144875250Y-93980000D02*
X149129750Y-98234500D01*
X149129750Y-103600250D02*
X149352000Y-103822500D01*
X149129750Y-98234500D02*
X149129750Y-103600250D01*
D22*
%TO.N,MOSI*%
X134493000Y-98679000D02*
X134620000Y-98679000D01*
D21*
X134747000Y-98361500D02*
X134493000Y-98615500D01*
X134747000Y-91084400D02*
X134747000Y-98361500D01*
D22*
%TO.N,RESE*%
X131826000Y-101854000D02*
X139319000Y-101854000D01*
X139319000Y-101854000D02*
X139954000Y-101219000D01*
X130429000Y-96266000D02*
X130429000Y-100457000D01*
X130429000Y-100457000D02*
X131191000Y-101219000D01*
X131064000Y-95631000D02*
X130429000Y-96266000D01*
X131191000Y-101219000D02*
X131826000Y-101854000D01*
X131064000Y-101092000D02*
X131191000Y-101219000D01*
%TO.N,GDR*%
X139827000Y-103251000D02*
X140589000Y-102489000D01*
X129609009Y-102304009D02*
X130556000Y-103251000D01*
X128524000Y-101219000D02*
X129609009Y-102304009D01*
X130556000Y-103251000D02*
X139827000Y-103251000D01*
D21*
X126873000Y-99568000D02*
X128524000Y-101219000D01*
X129044458Y-92279168D02*
X126859332Y-92279168D01*
X126859332Y-92279168D02*
X125222000Y-93916500D01*
X125222000Y-97917000D02*
X126873000Y-99568000D01*
X125222000Y-93916500D02*
X125222000Y-97917000D01*
D22*
%TO.N,+BATT*%
X143319500Y-98615500D02*
X145605500Y-98615500D01*
X141033500Y-96329500D02*
X143319500Y-98615500D01*
X141033500Y-92265500D02*
X141033500Y-96329500D01*
X145034000Y-88265000D02*
X141033500Y-92265500D01*
X145034000Y-81534000D02*
X145034000Y-88265000D01*
D21*
X145034000Y-79502000D02*
X145034000Y-79692500D01*
X144208500Y-78676500D02*
X145034000Y-79502000D01*
X145034000Y-81534000D02*
X145034000Y-79692500D01*
D22*
%TO.N,Net-(JP1-Pad2)*%
X130746500Y-79692500D02*
X133286500Y-79692500D01*
X129921000Y-72580500D02*
X129095500Y-73406000D01*
X129095500Y-78041500D02*
X130746500Y-79692500D01*
X129921000Y-69977000D02*
X129921000Y-72580500D01*
X129095500Y-73406000D02*
X129095500Y-78041500D01*
X129413000Y-69469000D02*
X129921000Y-69977000D01*
X126719000Y-69469000D02*
X129413000Y-69469000D01*
X125970500Y-70217500D02*
X126719000Y-69469000D01*
%TO.N,BATT_STAT*%
X139954000Y-74676000D02*
X140779500Y-74676000D01*
X140779500Y-74676000D02*
X141287500Y-75184000D01*
D21*
X141287500Y-77914500D02*
X141668500Y-78295500D01*
X141287500Y-75184000D02*
X141287500Y-77914500D01*
D22*
%TO.N,imuSCL*%
X133159500Y-75120500D02*
X134620000Y-75120500D01*
X135001000Y-75501500D02*
X135001000Y-76835000D01*
X134620000Y-75120500D02*
X135001000Y-75501500D01*
%TO.N,BUT1*%
X136334500Y-89090500D02*
X136779000Y-89090500D01*
X136779000Y-89090500D02*
X138176000Y-87693500D01*
D21*
X136334500Y-89090500D02*
X125158500Y-89090500D01*
D22*
%TO.N,BUT2*%
X125857000Y-75120500D02*
X125857000Y-78867000D01*
X125857000Y-78867000D02*
X127635000Y-80645000D01*
D21*
%TO.N,INT*%
X128143000Y-72898000D02*
X128143000Y-72453500D01*
D22*
X134620000Y-80518000D02*
X135509000Y-79629000D01*
X130492500Y-80518000D02*
X134620000Y-80518000D01*
X128460500Y-78486000D02*
X130492500Y-80518000D01*
X128460500Y-77089000D02*
X128460500Y-78486000D01*
X128143000Y-76771500D02*
X128460500Y-77089000D01*
X128143000Y-72898000D02*
X128143000Y-76771500D01*
%TO.N,Wakeup*%
X143225490Y-87343010D02*
X143225490Y-82646490D01*
X140716000Y-89852500D02*
X143225490Y-87343010D01*
X140462000Y-90106500D02*
X140716000Y-89852500D01*
X130683000Y-91249500D02*
X131699000Y-90233500D01*
X124650500Y-91249500D02*
X130683000Y-91249500D01*
X123952000Y-90551000D02*
X124650500Y-91249500D01*
X140335000Y-90233500D02*
X140716000Y-89852500D01*
X120332500Y-90551000D02*
X123952000Y-90551000D01*
X131699000Y-90233500D02*
X140335000Y-90233500D01*
X119821001Y-90039501D02*
X120332500Y-90551000D01*
X119821001Y-79632499D02*
X119821001Y-90039501D01*
X120866000Y-78587500D02*
X119821001Y-79632499D01*
X123994000Y-78587500D02*
X120866000Y-78587500D01*
D21*
%TO.N,TXD*%
X125505500Y-83087500D02*
X123994000Y-83087500D01*
X127381000Y-84963000D02*
X125505500Y-83087500D01*
X136207500Y-81978500D02*
X133889750Y-84296250D01*
X133889750Y-84296250D02*
X129317750Y-84296250D01*
X128651000Y-84963000D02*
X127381000Y-84963000D01*
X129317750Y-84296250D02*
X128651000Y-84963000D01*
%TO.N,RXD*%
X123994000Y-81587500D02*
X132514500Y-81587500D01*
X132514500Y-81587500D02*
X133985000Y-83058000D01*
%TO.N,swdebug*%
X149606000Y-69024500D02*
X149606000Y-71501000D01*
X147828000Y-73279000D02*
X145605500Y-73279000D01*
X149606000Y-71501000D02*
X147828000Y-73279000D01*
D22*
%TO.N,TraceSWO*%
X145606000Y-69024500D02*
X145606000Y-70484500D01*
X145606000Y-70484500D02*
X143446500Y-72644000D01*
X143446500Y-72644000D02*
X141795500Y-72644000D01*
X141795500Y-72644000D02*
X141351000Y-72644000D01*
D21*
%TO.N,NRST*%
X141606000Y-69024500D02*
X138874500Y-69024500D01*
X138874500Y-69024500D02*
X136207500Y-71691500D01*
D22*
X136207500Y-79565500D02*
X136207500Y-80645000D01*
D21*
X136207500Y-71691500D02*
X136207500Y-79565500D01*
X136207500Y-79565500D02*
X136207500Y-79818502D01*
D22*
X135509000Y-81343500D02*
X134682502Y-81343500D01*
X136207500Y-80645000D02*
X135509000Y-81343500D01*
%TD*%
M02*
