%TF.GenerationSoftware,KiCad,Pcbnew,5.1.9-73d0e3b20d~88~ubuntu20.04.1*%
%TF.CreationDate,2021-02-04T03:58:01+01:00*%
%TF.ProjectId,MorphWatch-STM32,4d6f7270-6857-4617-9463-682d53544d33,rev?*%
%TF.SameCoordinates,Original*%
%TF.FileFunction,Copper,L3,Inr*%
%TF.FilePolarity,Positive*%
%FSLAX46Y46*%
G04 Gerber Fmt 4.6, Leading zero omitted, Abs format (unit mm)*
G04 Created by KiCad (PCBNEW 5.1.9-73d0e3b20d~88~ubuntu20.04.1) date 2021-02-04 03:58:01*
%MOMM*%
%LPD*%
G01*
G04 APERTURE LIST*
%TA.AperFunction,ComponentPad*%
%ADD10O,0.850000X0.850000*%
%TD*%
%TA.AperFunction,ComponentPad*%
%ADD11R,0.850000X0.850000*%
%TD*%
%TA.AperFunction,ComponentPad*%
%ADD12O,1.350000X1.350000*%
%TD*%
%TA.AperFunction,ComponentPad*%
%ADD13R,1.350000X1.350000*%
%TD*%
%TA.AperFunction,ComponentPad*%
%ADD14O,2.200000X1.300000*%
%TD*%
%TA.AperFunction,ComponentPad*%
%ADD15C,1.300000*%
%TD*%
%TA.AperFunction,ViaPad*%
%ADD16C,0.800000*%
%TD*%
%TA.AperFunction,ViaPad*%
%ADD17C,0.700000*%
%TD*%
%TA.AperFunction,ViaPad*%
%ADD18C,0.500000*%
%TD*%
%TA.AperFunction,Conductor*%
%ADD19C,0.254000*%
%TD*%
%TA.AperFunction,Conductor*%
%ADD20C,0.100000*%
%TD*%
G04 APERTURE END LIST*
D10*
%TO.N,+3V3*%
%TO.C,J3*%
X121539000Y-84249000D03*
%TO.N,GND*%
X121539000Y-85249000D03*
%TO.N,EXTSENSCL*%
X121539000Y-86249000D03*
D11*
%TO.N,EXTSENSDA*%
X121539000Y-87249000D03*
%TD*%
D12*
%TO.N,NRST*%
%TO.C,J5*%
X141606000Y-69024500D03*
%TO.N,GND*%
X143606000Y-69024500D03*
%TO.N,TraceSWO*%
X145606000Y-69024500D03*
%TO.N,SWCLK*%
X147606000Y-69024500D03*
D13*
%TO.N,swdebug*%
X149606000Y-69024500D03*
%TD*%
D14*
%TO.N,N/C*%
%TO.C,J1*%
X149982000Y-80190000D03*
X149982000Y-87390000D03*
D15*
X147312000Y-86215000D03*
X147312000Y-81365000D03*
%TD*%
D16*
%TO.N,*%
X150050500Y-76136500D03*
%TO.N,GND*%
X143562000Y-76390500D03*
X143764000Y-81026000D03*
X148780500Y-82486500D03*
X145859500Y-82486500D03*
X148590000Y-88646000D03*
X145351500Y-91884500D03*
X150749000Y-96393000D03*
D17*
X137477500Y-100965000D03*
X132969000Y-100965000D03*
X132016500Y-91948000D03*
X139001500Y-91884500D03*
D16*
X131381500Y-85534500D03*
X135255000Y-73406000D03*
X127000000Y-75438000D03*
X120713500Y-85153500D03*
X128651000Y-90297000D03*
D17*
X133477000Y-96647000D03*
X131635500Y-96647000D03*
D16*
X127635000Y-99123500D03*
D17*
X129286000Y-96964500D03*
X127635000Y-94170500D03*
D16*
X126936500Y-95250000D03*
X132588000Y-96647000D03*
D17*
X135826500Y-68834000D03*
D16*
X124878500Y-72098500D03*
X130175000Y-76073000D03*
D17*
X133667500Y-76454000D03*
D16*
%TO.N,+3V3*%
X127444500Y-77660500D03*
X131191000Y-76454000D03*
X150368000Y-91567000D03*
X150241000Y-88900000D03*
X150284500Y-90086500D03*
D17*
X133985000Y-100901500D03*
X132969000Y-91948000D03*
X140017500Y-91821000D03*
D16*
X123952000Y-69596000D03*
X128968500Y-70866000D03*
D17*
X136715500Y-69151500D03*
D16*
X138747500Y-71945500D03*
X143002000Y-79311500D03*
X121285000Y-91821000D03*
X127431500Y-78676500D03*
X122047000Y-100838000D03*
X121983500Y-101663500D03*
D18*
%TO.N,VBUS*%
X147066000Y-102806500D03*
X149352000Y-103822500D03*
D16*
X143700500Y-91440000D03*
X144875250Y-93980000D03*
D18*
%TO.N,MOSI*%
X134747000Y-91084400D03*
X134493000Y-98615500D03*
%TO.N,RESE*%
X131064000Y-95631000D03*
X139954000Y-101219000D03*
%TO.N,GDR*%
X129044458Y-92279168D03*
X140589000Y-102489000D03*
%TO.N,+BATT*%
X145605500Y-98615500D03*
X144208500Y-78676500D03*
D16*
%TO.N,Net-(JP1-Pad2)*%
X125970500Y-70217500D03*
X133286500Y-79692500D03*
%TO.N,BATT_STAT*%
X139954000Y-74676000D03*
D18*
X141668500Y-78295500D03*
%TO.N,imuSCL*%
X135001000Y-76835000D03*
D17*
X133159500Y-75120500D03*
D16*
%TO.N,BUT1*%
X125158500Y-89090500D03*
X138176000Y-87693500D03*
%TO.N,BUT2*%
X125857000Y-75120500D03*
X127635000Y-80645000D03*
D18*
%TO.N,INT*%
X135509000Y-79629000D03*
X128143000Y-72453500D03*
D16*
%TO.N,Wakeup*%
X143225490Y-82646490D03*
%TO.N,TXD*%
X136207500Y-81978500D03*
%TO.N,RXD*%
X133985000Y-83058000D03*
%TO.N,swdebug*%
X145605500Y-73279000D03*
%TO.N,TraceSWO*%
X141351000Y-72644000D03*
%TO.N,NRST*%
X131822337Y-82790264D03*
X134682502Y-81343500D03*
%TD*%
D19*
%TO.N,+3V3*%
X148548370Y-64035998D02*
X149162424Y-64221392D01*
X149728773Y-64522525D01*
X150225848Y-64927928D01*
X150634712Y-65422159D01*
X150939790Y-65986389D01*
X151129467Y-66599137D01*
X151200001Y-67270213D01*
X151200001Y-79157950D01*
X151149362Y-79116392D01*
X150926127Y-78997071D01*
X150683904Y-78923593D01*
X150495123Y-78905000D01*
X149468877Y-78905000D01*
X149280096Y-78923593D01*
X149037873Y-78997071D01*
X148814638Y-79116392D01*
X148618972Y-79276972D01*
X148458392Y-79472638D01*
X148339071Y-79695873D01*
X148265593Y-79938096D01*
X148240783Y-80190000D01*
X148265593Y-80441904D01*
X148291468Y-80527203D01*
X148131140Y-80366875D01*
X147920676Y-80226247D01*
X147686821Y-80129381D01*
X147438561Y-80080000D01*
X147185439Y-80080000D01*
X146937179Y-80129381D01*
X146703324Y-80226247D01*
X146492860Y-80366875D01*
X146313875Y-80545860D01*
X146173247Y-80756324D01*
X146076381Y-80990179D01*
X146027000Y-81238439D01*
X146027000Y-81464541D01*
X145961439Y-81451500D01*
X145757561Y-81451500D01*
X145557602Y-81491274D01*
X145369244Y-81569295D01*
X145199726Y-81682563D01*
X145055563Y-81826726D01*
X144942295Y-81996244D01*
X144864274Y-82184602D01*
X144824500Y-82384561D01*
X144824500Y-82588439D01*
X144864274Y-82788398D01*
X144942295Y-82976756D01*
X145055563Y-83146274D01*
X145199726Y-83290437D01*
X145369244Y-83403705D01*
X145557602Y-83481726D01*
X145757561Y-83521500D01*
X145961439Y-83521500D01*
X146161398Y-83481726D01*
X146349756Y-83403705D01*
X146519274Y-83290437D01*
X146663437Y-83146274D01*
X146776705Y-82976756D01*
X146854726Y-82788398D01*
X146894500Y-82588439D01*
X146894500Y-82582941D01*
X146937179Y-82600619D01*
X147185439Y-82650000D01*
X147438561Y-82650000D01*
X147686821Y-82600619D01*
X147745500Y-82576313D01*
X147745500Y-82588439D01*
X147785274Y-82788398D01*
X147863295Y-82976756D01*
X147976563Y-83146274D01*
X148120726Y-83290437D01*
X148290244Y-83403705D01*
X148478602Y-83481726D01*
X148678561Y-83521500D01*
X148882439Y-83521500D01*
X149082398Y-83481726D01*
X149270756Y-83403705D01*
X149440274Y-83290437D01*
X149584437Y-83146274D01*
X149697705Y-82976756D01*
X149775726Y-82788398D01*
X149815500Y-82588439D01*
X149815500Y-82384561D01*
X149775726Y-82184602D01*
X149697705Y-81996244D01*
X149584437Y-81826726D01*
X149440274Y-81682563D01*
X149270756Y-81569295D01*
X149082398Y-81491274D01*
X148882439Y-81451500D01*
X148678561Y-81451500D01*
X148597000Y-81467723D01*
X148597000Y-81238439D01*
X148554420Y-81024372D01*
X148618972Y-81103028D01*
X148814638Y-81263608D01*
X149037873Y-81382929D01*
X149280096Y-81456407D01*
X149468877Y-81475000D01*
X150495123Y-81475000D01*
X150683904Y-81456407D01*
X150926127Y-81382929D01*
X151149362Y-81263608D01*
X151200001Y-81222050D01*
X151200000Y-86357950D01*
X151149362Y-86316392D01*
X150926127Y-86197071D01*
X150683904Y-86123593D01*
X150495123Y-86105000D01*
X149468877Y-86105000D01*
X149280096Y-86123593D01*
X149037873Y-86197071D01*
X148814638Y-86316392D01*
X148618972Y-86476972D01*
X148554420Y-86555628D01*
X148597000Y-86341561D01*
X148597000Y-86088439D01*
X148547619Y-85840179D01*
X148450753Y-85606324D01*
X148310125Y-85395860D01*
X148131140Y-85216875D01*
X147920676Y-85076247D01*
X147686821Y-84979381D01*
X147438561Y-84930000D01*
X147185439Y-84930000D01*
X146937179Y-84979381D01*
X146703324Y-85076247D01*
X146492860Y-85216875D01*
X146313875Y-85395860D01*
X146173247Y-85606324D01*
X146076381Y-85840179D01*
X146027000Y-86088439D01*
X146027000Y-86341561D01*
X146076381Y-86589821D01*
X146173247Y-86823676D01*
X146313875Y-87034140D01*
X146492860Y-87213125D01*
X146703324Y-87353753D01*
X146937179Y-87450619D01*
X147185439Y-87500000D01*
X147438561Y-87500000D01*
X147686821Y-87450619D01*
X147920676Y-87353753D01*
X148131140Y-87213125D01*
X148291468Y-87052797D01*
X148265593Y-87138096D01*
X148240783Y-87390000D01*
X148265593Y-87641904D01*
X148270496Y-87658067D01*
X148099744Y-87728795D01*
X147930226Y-87842063D01*
X147786063Y-87986226D01*
X147672795Y-88155744D01*
X147594774Y-88344102D01*
X147555000Y-88544061D01*
X147555000Y-88747939D01*
X147594774Y-88947898D01*
X147672795Y-89136256D01*
X147786063Y-89305774D01*
X147930226Y-89449937D01*
X148099744Y-89563205D01*
X148288102Y-89641226D01*
X148488061Y-89681000D01*
X148691939Y-89681000D01*
X148891898Y-89641226D01*
X149080256Y-89563205D01*
X149249774Y-89449937D01*
X149393937Y-89305774D01*
X149507205Y-89136256D01*
X149585226Y-88947898D01*
X149625000Y-88747939D01*
X149625000Y-88675000D01*
X150495123Y-88675000D01*
X150683904Y-88656407D01*
X150926127Y-88582929D01*
X151149362Y-88463608D01*
X151200000Y-88422050D01*
X151200000Y-95459535D01*
X151050898Y-95397774D01*
X150850939Y-95358000D01*
X150647061Y-95358000D01*
X150447102Y-95397774D01*
X150258744Y-95475795D01*
X150089226Y-95589063D01*
X149945063Y-95733226D01*
X149831795Y-95902744D01*
X149753774Y-96091102D01*
X149714000Y-96291061D01*
X149714000Y-96494939D01*
X149753774Y-96694898D01*
X149831795Y-96883256D01*
X149945063Y-97052774D01*
X150089226Y-97196937D01*
X150258744Y-97310205D01*
X150447102Y-97388226D01*
X150647061Y-97428000D01*
X150850939Y-97428000D01*
X151050898Y-97388226D01*
X151200000Y-97326465D01*
X151200000Y-105185280D01*
X151134004Y-105858366D01*
X150948607Y-106472428D01*
X150647474Y-107038775D01*
X150242071Y-107535847D01*
X149747842Y-107944710D01*
X149183611Y-108249790D01*
X148570862Y-108439467D01*
X147899787Y-108510000D01*
X122144720Y-108510000D01*
X121471634Y-108444004D01*
X120857572Y-108258607D01*
X120291225Y-107957474D01*
X119794153Y-107552071D01*
X119385290Y-107057842D01*
X119080210Y-106493611D01*
X118996270Y-106222441D01*
X120300004Y-106222441D01*
X120300028Y-106229422D01*
X120303163Y-106260297D01*
X120302946Y-106291332D01*
X120303914Y-106301198D01*
X120324315Y-106495295D01*
X120337250Y-106558310D01*
X120349312Y-106621540D01*
X120352177Y-106631030D01*
X120409889Y-106817468D01*
X120434829Y-106876797D01*
X120458932Y-106936455D01*
X120463586Y-106945208D01*
X120556411Y-107116885D01*
X120592371Y-107170198D01*
X120627633Y-107224083D01*
X120633898Y-107231765D01*
X120758302Y-107382143D01*
X120803957Y-107427480D01*
X120848987Y-107473463D01*
X120856625Y-107479782D01*
X121007867Y-107603132D01*
X121061487Y-107638757D01*
X121114564Y-107675099D01*
X121123284Y-107679814D01*
X121295606Y-107771439D01*
X121355076Y-107795951D01*
X121414248Y-107821312D01*
X121423718Y-107824243D01*
X121610554Y-107880652D01*
X121673684Y-107893152D01*
X121736623Y-107906530D01*
X121746481Y-107907566D01*
X121940209Y-107926561D01*
X121975123Y-107930000D01*
X148044877Y-107930000D01*
X148075222Y-107927011D01*
X148081332Y-107927054D01*
X148091198Y-107926086D01*
X148285295Y-107905685D01*
X148348310Y-107892750D01*
X148411540Y-107880688D01*
X148421030Y-107877823D01*
X148607468Y-107820111D01*
X148666797Y-107795171D01*
X148726455Y-107771068D01*
X148735208Y-107766414D01*
X148906885Y-107673589D01*
X148960198Y-107637629D01*
X149014083Y-107602367D01*
X149021765Y-107596102D01*
X149172143Y-107471698D01*
X149217480Y-107426043D01*
X149263463Y-107381013D01*
X149269782Y-107373375D01*
X149393132Y-107222133D01*
X149428757Y-107168513D01*
X149465099Y-107115436D01*
X149469814Y-107106716D01*
X149561439Y-106934394D01*
X149585951Y-106874924D01*
X149611312Y-106815752D01*
X149614243Y-106806282D01*
X149670652Y-106619446D01*
X149683152Y-106556316D01*
X149696530Y-106493377D01*
X149697566Y-106483519D01*
X149716611Y-106289285D01*
X149716611Y-106258293D01*
X149719961Y-106227472D01*
X149719996Y-106217559D01*
X149719972Y-106210578D01*
X149716837Y-106179703D01*
X149717054Y-106148667D01*
X149716086Y-106138801D01*
X149695685Y-105944705D01*
X149682750Y-105881690D01*
X149670688Y-105818460D01*
X149667823Y-105808970D01*
X149610111Y-105622532D01*
X149585171Y-105563203D01*
X149561068Y-105503545D01*
X149556414Y-105494792D01*
X149463589Y-105323115D01*
X149427619Y-105269787D01*
X149392367Y-105215917D01*
X149386101Y-105208235D01*
X149261698Y-105057857D01*
X149216043Y-105012520D01*
X149171013Y-104966537D01*
X149163375Y-104960218D01*
X149012133Y-104836868D01*
X148958546Y-104801266D01*
X148905437Y-104764901D01*
X148896716Y-104760186D01*
X148724394Y-104668561D01*
X148664924Y-104644049D01*
X148605752Y-104618688D01*
X148596282Y-104615757D01*
X148409446Y-104559348D01*
X148346316Y-104546848D01*
X148283377Y-104533470D01*
X148273518Y-104532434D01*
X148079792Y-104513439D01*
X148044877Y-104510000D01*
X144138245Y-104510000D01*
X144119128Y-104446980D01*
X144053200Y-104323637D01*
X143964475Y-104215525D01*
X143856363Y-104126800D01*
X143733020Y-104060872D01*
X143599184Y-104020273D01*
X143494877Y-104010000D01*
X127425123Y-104010000D01*
X127320816Y-104020273D01*
X127186980Y-104060872D01*
X127063637Y-104126800D01*
X126955525Y-104215525D01*
X126866800Y-104323637D01*
X126800872Y-104446980D01*
X126781755Y-104510000D01*
X121975123Y-104510000D01*
X121944778Y-104512989D01*
X121938667Y-104512946D01*
X121928801Y-104513914D01*
X121734705Y-104534315D01*
X121671690Y-104547250D01*
X121608460Y-104559312D01*
X121598970Y-104562177D01*
X121412532Y-104619889D01*
X121353203Y-104644829D01*
X121293545Y-104668932D01*
X121284792Y-104673586D01*
X121113115Y-104766411D01*
X121059787Y-104802381D01*
X121005917Y-104837633D01*
X120998235Y-104843899D01*
X120847857Y-104968302D01*
X120802520Y-105013957D01*
X120756537Y-105058987D01*
X120750218Y-105066625D01*
X120626868Y-105217867D01*
X120591266Y-105271454D01*
X120554901Y-105324563D01*
X120550186Y-105333284D01*
X120458561Y-105505606D01*
X120434049Y-105565076D01*
X120408688Y-105624248D01*
X120405757Y-105633718D01*
X120349348Y-105820554D01*
X120336848Y-105883684D01*
X120323470Y-105946623D01*
X120322434Y-105956482D01*
X120303389Y-106150715D01*
X120303389Y-106181707D01*
X120300039Y-106212528D01*
X120300004Y-106222441D01*
X118996270Y-106222441D01*
X118890533Y-105880862D01*
X118820000Y-105209787D01*
X118820000Y-103735335D01*
X148467000Y-103735335D01*
X148467000Y-103909665D01*
X148501010Y-104080645D01*
X148567723Y-104241705D01*
X148664576Y-104386655D01*
X148787845Y-104509924D01*
X148932795Y-104606777D01*
X149093855Y-104673490D01*
X149264835Y-104707500D01*
X149439165Y-104707500D01*
X149610145Y-104673490D01*
X149771205Y-104606777D01*
X149916155Y-104509924D01*
X150039424Y-104386655D01*
X150136277Y-104241705D01*
X150202990Y-104080645D01*
X150237000Y-103909665D01*
X150237000Y-103735335D01*
X150202990Y-103564355D01*
X150136277Y-103403295D01*
X150039424Y-103258345D01*
X149916155Y-103135076D01*
X149771205Y-103038223D01*
X149610145Y-102971510D01*
X149439165Y-102937500D01*
X149264835Y-102937500D01*
X149093855Y-102971510D01*
X148932795Y-103038223D01*
X148787845Y-103135076D01*
X148664576Y-103258345D01*
X148567723Y-103403295D01*
X148501010Y-103564355D01*
X148467000Y-103735335D01*
X118820000Y-103735335D01*
X118820000Y-100867986D01*
X131984000Y-100867986D01*
X131984000Y-101062014D01*
X132021853Y-101252314D01*
X132096104Y-101431572D01*
X132203901Y-101592901D01*
X132341099Y-101730099D01*
X132502428Y-101837896D01*
X132681686Y-101912147D01*
X132871986Y-101950000D01*
X133066014Y-101950000D01*
X133256314Y-101912147D01*
X133435572Y-101837896D01*
X133596901Y-101730099D01*
X133734099Y-101592901D01*
X133841896Y-101431572D01*
X133916147Y-101252314D01*
X133954000Y-101062014D01*
X133954000Y-100867986D01*
X136492500Y-100867986D01*
X136492500Y-101062014D01*
X136530353Y-101252314D01*
X136604604Y-101431572D01*
X136712401Y-101592901D01*
X136849599Y-101730099D01*
X137010928Y-101837896D01*
X137190186Y-101912147D01*
X137380486Y-101950000D01*
X137574514Y-101950000D01*
X137764814Y-101912147D01*
X137944072Y-101837896D01*
X138105401Y-101730099D01*
X138242599Y-101592901D01*
X138350396Y-101431572D01*
X138424647Y-101252314D01*
X138448611Y-101131835D01*
X139069000Y-101131835D01*
X139069000Y-101306165D01*
X139103010Y-101477145D01*
X139169723Y-101638205D01*
X139266576Y-101783155D01*
X139389845Y-101906424D01*
X139534795Y-102003277D01*
X139695855Y-102069990D01*
X139796361Y-102089982D01*
X139738010Y-102230855D01*
X139704000Y-102401835D01*
X139704000Y-102576165D01*
X139738010Y-102747145D01*
X139804723Y-102908205D01*
X139901576Y-103053155D01*
X140024845Y-103176424D01*
X140169795Y-103273277D01*
X140330855Y-103339990D01*
X140501835Y-103374000D01*
X140676165Y-103374000D01*
X140847145Y-103339990D01*
X141008205Y-103273277D01*
X141153155Y-103176424D01*
X141276424Y-103053155D01*
X141373277Y-102908205D01*
X141439990Y-102747145D01*
X141445521Y-102719335D01*
X146181000Y-102719335D01*
X146181000Y-102893665D01*
X146215010Y-103064645D01*
X146281723Y-103225705D01*
X146378576Y-103370655D01*
X146501845Y-103493924D01*
X146646795Y-103590777D01*
X146807855Y-103657490D01*
X146978835Y-103691500D01*
X147153165Y-103691500D01*
X147324145Y-103657490D01*
X147485205Y-103590777D01*
X147630155Y-103493924D01*
X147753424Y-103370655D01*
X147850277Y-103225705D01*
X147916990Y-103064645D01*
X147951000Y-102893665D01*
X147951000Y-102719335D01*
X147916990Y-102548355D01*
X147850277Y-102387295D01*
X147753424Y-102242345D01*
X147630155Y-102119076D01*
X147485205Y-102022223D01*
X147324145Y-101955510D01*
X147153165Y-101921500D01*
X146978835Y-101921500D01*
X146807855Y-101955510D01*
X146646795Y-102022223D01*
X146501845Y-102119076D01*
X146378576Y-102242345D01*
X146281723Y-102387295D01*
X146215010Y-102548355D01*
X146181000Y-102719335D01*
X141445521Y-102719335D01*
X141474000Y-102576165D01*
X141474000Y-102401835D01*
X141439990Y-102230855D01*
X141373277Y-102069795D01*
X141276424Y-101924845D01*
X141153155Y-101801576D01*
X141008205Y-101704723D01*
X140847145Y-101638010D01*
X140746639Y-101618018D01*
X140804990Y-101477145D01*
X140839000Y-101306165D01*
X140839000Y-101131835D01*
X140804990Y-100960855D01*
X140738277Y-100799795D01*
X140641424Y-100654845D01*
X140518155Y-100531576D01*
X140373205Y-100434723D01*
X140212145Y-100368010D01*
X140041165Y-100334000D01*
X139866835Y-100334000D01*
X139695855Y-100368010D01*
X139534795Y-100434723D01*
X139389845Y-100531576D01*
X139266576Y-100654845D01*
X139169723Y-100799795D01*
X139103010Y-100960855D01*
X139069000Y-101131835D01*
X138448611Y-101131835D01*
X138462500Y-101062014D01*
X138462500Y-100867986D01*
X138424647Y-100677686D01*
X138350396Y-100498428D01*
X138242599Y-100337099D01*
X138105401Y-100199901D01*
X137944072Y-100092104D01*
X137764814Y-100017853D01*
X137574514Y-99980000D01*
X137380486Y-99980000D01*
X137190186Y-100017853D01*
X137010928Y-100092104D01*
X136849599Y-100199901D01*
X136712401Y-100337099D01*
X136604604Y-100498428D01*
X136530353Y-100677686D01*
X136492500Y-100867986D01*
X133954000Y-100867986D01*
X133916147Y-100677686D01*
X133841896Y-100498428D01*
X133734099Y-100337099D01*
X133596901Y-100199901D01*
X133435572Y-100092104D01*
X133256314Y-100017853D01*
X133066014Y-99980000D01*
X132871986Y-99980000D01*
X132681686Y-100017853D01*
X132502428Y-100092104D01*
X132341099Y-100199901D01*
X132203901Y-100337099D01*
X132096104Y-100498428D01*
X132021853Y-100677686D01*
X131984000Y-100867986D01*
X118820000Y-100867986D01*
X118820000Y-99021561D01*
X126600000Y-99021561D01*
X126600000Y-99225439D01*
X126639774Y-99425398D01*
X126717795Y-99613756D01*
X126831063Y-99783274D01*
X126975226Y-99927437D01*
X127144744Y-100040705D01*
X127333102Y-100118726D01*
X127533061Y-100158500D01*
X127736939Y-100158500D01*
X127936898Y-100118726D01*
X128125256Y-100040705D01*
X128294774Y-99927437D01*
X128438937Y-99783274D01*
X128552205Y-99613756D01*
X128630226Y-99425398D01*
X128670000Y-99225439D01*
X128670000Y-99021561D01*
X128630226Y-98821602D01*
X128552205Y-98633244D01*
X128482108Y-98528335D01*
X133608000Y-98528335D01*
X133608000Y-98702665D01*
X133642010Y-98873645D01*
X133708723Y-99034705D01*
X133805576Y-99179655D01*
X133928845Y-99302924D01*
X134073795Y-99399777D01*
X134234855Y-99466490D01*
X134405835Y-99500500D01*
X134580165Y-99500500D01*
X134751145Y-99466490D01*
X134912205Y-99399777D01*
X135057155Y-99302924D01*
X135180424Y-99179655D01*
X135277277Y-99034705D01*
X135343990Y-98873645D01*
X135378000Y-98702665D01*
X135378000Y-98528335D01*
X144720500Y-98528335D01*
X144720500Y-98702665D01*
X144754510Y-98873645D01*
X144821223Y-99034705D01*
X144918076Y-99179655D01*
X145041345Y-99302924D01*
X145186295Y-99399777D01*
X145347355Y-99466490D01*
X145518335Y-99500500D01*
X145692665Y-99500500D01*
X145863645Y-99466490D01*
X146024705Y-99399777D01*
X146169655Y-99302924D01*
X146292924Y-99179655D01*
X146389777Y-99034705D01*
X146456490Y-98873645D01*
X146490500Y-98702665D01*
X146490500Y-98528335D01*
X146456490Y-98357355D01*
X146389777Y-98196295D01*
X146292924Y-98051345D01*
X146169655Y-97928076D01*
X146024705Y-97831223D01*
X145863645Y-97764510D01*
X145692665Y-97730500D01*
X145518335Y-97730500D01*
X145347355Y-97764510D01*
X145186295Y-97831223D01*
X145041345Y-97928076D01*
X144918076Y-98051345D01*
X144821223Y-98196295D01*
X144754510Y-98357355D01*
X144720500Y-98528335D01*
X135378000Y-98528335D01*
X135343990Y-98357355D01*
X135277277Y-98196295D01*
X135180424Y-98051345D01*
X135057155Y-97928076D01*
X134912205Y-97831223D01*
X134751145Y-97764510D01*
X134580165Y-97730500D01*
X134405835Y-97730500D01*
X134234855Y-97764510D01*
X134073795Y-97831223D01*
X133928845Y-97928076D01*
X133805576Y-98051345D01*
X133708723Y-98196295D01*
X133642010Y-98357355D01*
X133608000Y-98528335D01*
X128482108Y-98528335D01*
X128438937Y-98463726D01*
X128294774Y-98319563D01*
X128125256Y-98206295D01*
X127936898Y-98128274D01*
X127736939Y-98088500D01*
X127533061Y-98088500D01*
X127333102Y-98128274D01*
X127144744Y-98206295D01*
X126975226Y-98319563D01*
X126831063Y-98463726D01*
X126717795Y-98633244D01*
X126639774Y-98821602D01*
X126600000Y-99021561D01*
X118820000Y-99021561D01*
X118820000Y-96867486D01*
X128301000Y-96867486D01*
X128301000Y-97061514D01*
X128338853Y-97251814D01*
X128413104Y-97431072D01*
X128520901Y-97592401D01*
X128658099Y-97729599D01*
X128819428Y-97837396D01*
X128998686Y-97911647D01*
X129188986Y-97949500D01*
X129383014Y-97949500D01*
X129573314Y-97911647D01*
X129752572Y-97837396D01*
X129913901Y-97729599D01*
X130051099Y-97592401D01*
X130158896Y-97431072D01*
X130233147Y-97251814D01*
X130271000Y-97061514D01*
X130271000Y-96867486D01*
X130233147Y-96677186D01*
X130158896Y-96497928D01*
X130051099Y-96336599D01*
X129913901Y-96199401D01*
X129752572Y-96091604D01*
X129573314Y-96017353D01*
X129383014Y-95979500D01*
X129188986Y-95979500D01*
X128998686Y-96017353D01*
X128819428Y-96091604D01*
X128658099Y-96199401D01*
X128520901Y-96336599D01*
X128413104Y-96497928D01*
X128338853Y-96677186D01*
X128301000Y-96867486D01*
X118820000Y-96867486D01*
X118820000Y-95148061D01*
X125901500Y-95148061D01*
X125901500Y-95351939D01*
X125941274Y-95551898D01*
X126019295Y-95740256D01*
X126132563Y-95909774D01*
X126276726Y-96053937D01*
X126446244Y-96167205D01*
X126634602Y-96245226D01*
X126834561Y-96285000D01*
X127038439Y-96285000D01*
X127238398Y-96245226D01*
X127426756Y-96167205D01*
X127596274Y-96053937D01*
X127740437Y-95909774D01*
X127853705Y-95740256D01*
X127931726Y-95551898D01*
X127933329Y-95543835D01*
X130179000Y-95543835D01*
X130179000Y-95718165D01*
X130213010Y-95889145D01*
X130279723Y-96050205D01*
X130376576Y-96195155D01*
X130499845Y-96318424D01*
X130644795Y-96415277D01*
X130674821Y-96427714D01*
X130650500Y-96549986D01*
X130650500Y-96744014D01*
X130688353Y-96934314D01*
X130762604Y-97113572D01*
X130870401Y-97274901D01*
X131007599Y-97412099D01*
X131168928Y-97519896D01*
X131348186Y-97594147D01*
X131538486Y-97632000D01*
X131732514Y-97632000D01*
X131922814Y-97594147D01*
X132058464Y-97537959D01*
X132097744Y-97564205D01*
X132286102Y-97642226D01*
X132486061Y-97682000D01*
X132689939Y-97682000D01*
X132889898Y-97642226D01*
X133078256Y-97564205D01*
X133093236Y-97554196D01*
X133189686Y-97594147D01*
X133379986Y-97632000D01*
X133574014Y-97632000D01*
X133764314Y-97594147D01*
X133943572Y-97519896D01*
X134104901Y-97412099D01*
X134242099Y-97274901D01*
X134349896Y-97113572D01*
X134424147Y-96934314D01*
X134462000Y-96744014D01*
X134462000Y-96549986D01*
X134424147Y-96359686D01*
X134349896Y-96180428D01*
X134242099Y-96019099D01*
X134104901Y-95881901D01*
X133943572Y-95774104D01*
X133764314Y-95699853D01*
X133574014Y-95662000D01*
X133379986Y-95662000D01*
X133189686Y-95699853D01*
X133093236Y-95739804D01*
X133078256Y-95729795D01*
X132889898Y-95651774D01*
X132689939Y-95612000D01*
X132486061Y-95612000D01*
X132286102Y-95651774D01*
X132097744Y-95729795D01*
X132058464Y-95756041D01*
X131949000Y-95710700D01*
X131949000Y-95543835D01*
X131914990Y-95372855D01*
X131848277Y-95211795D01*
X131751424Y-95066845D01*
X131628155Y-94943576D01*
X131483205Y-94846723D01*
X131322145Y-94780010D01*
X131151165Y-94746000D01*
X130976835Y-94746000D01*
X130805855Y-94780010D01*
X130644795Y-94846723D01*
X130499845Y-94943576D01*
X130376576Y-95066845D01*
X130279723Y-95211795D01*
X130213010Y-95372855D01*
X130179000Y-95543835D01*
X127933329Y-95543835D01*
X127971500Y-95351939D01*
X127971500Y-95148061D01*
X127962167Y-95101139D01*
X128101572Y-95043396D01*
X128262901Y-94935599D01*
X128400099Y-94798401D01*
X128507896Y-94637072D01*
X128582147Y-94457814D01*
X128620000Y-94267514D01*
X128620000Y-94073486D01*
X128582147Y-93883186D01*
X128580025Y-93878061D01*
X143840250Y-93878061D01*
X143840250Y-94081939D01*
X143880024Y-94281898D01*
X143958045Y-94470256D01*
X144071313Y-94639774D01*
X144215476Y-94783937D01*
X144384994Y-94897205D01*
X144573352Y-94975226D01*
X144773311Y-95015000D01*
X144977189Y-95015000D01*
X145177148Y-94975226D01*
X145365506Y-94897205D01*
X145535024Y-94783937D01*
X145679187Y-94639774D01*
X145792455Y-94470256D01*
X145870476Y-94281898D01*
X145910250Y-94081939D01*
X145910250Y-93878061D01*
X145870476Y-93678102D01*
X145792455Y-93489744D01*
X145679187Y-93320226D01*
X145535024Y-93176063D01*
X145365506Y-93062795D01*
X145177148Y-92984774D01*
X144977189Y-92945000D01*
X144773311Y-92945000D01*
X144573352Y-92984774D01*
X144384994Y-93062795D01*
X144215476Y-93176063D01*
X144071313Y-93320226D01*
X143958045Y-93489744D01*
X143880024Y-93678102D01*
X143840250Y-93878061D01*
X128580025Y-93878061D01*
X128507896Y-93703928D01*
X128400099Y-93542599D01*
X128262901Y-93405401D01*
X128101572Y-93297604D01*
X127922314Y-93223353D01*
X127732014Y-93185500D01*
X127537986Y-93185500D01*
X127347686Y-93223353D01*
X127168428Y-93297604D01*
X127007099Y-93405401D01*
X126869901Y-93542599D01*
X126762104Y-93703928D01*
X126687853Y-93883186D01*
X126650000Y-94073486D01*
X126650000Y-94251711D01*
X126634602Y-94254774D01*
X126446244Y-94332795D01*
X126276726Y-94446063D01*
X126132563Y-94590226D01*
X126019295Y-94759744D01*
X125941274Y-94948102D01*
X125901500Y-95148061D01*
X118820000Y-95148061D01*
X118820000Y-94472377D01*
X118994061Y-94507000D01*
X119197939Y-94507000D01*
X119397898Y-94467226D01*
X119586256Y-94389205D01*
X119755774Y-94275937D01*
X119899937Y-94131774D01*
X120013205Y-93962256D01*
X120091226Y-93773898D01*
X120131000Y-93573939D01*
X120131000Y-93370061D01*
X120661000Y-93370061D01*
X120661000Y-93573939D01*
X120700774Y-93773898D01*
X120778795Y-93962256D01*
X120892063Y-94131774D01*
X121036226Y-94275937D01*
X121205744Y-94389205D01*
X121394102Y-94467226D01*
X121594061Y-94507000D01*
X121797939Y-94507000D01*
X121997898Y-94467226D01*
X122186256Y-94389205D01*
X122355774Y-94275937D01*
X122499937Y-94131774D01*
X122613205Y-93962256D01*
X122691226Y-93773898D01*
X122731000Y-93573939D01*
X122731000Y-93370061D01*
X122691226Y-93170102D01*
X122613205Y-92981744D01*
X122499937Y-92812226D01*
X122355774Y-92668063D01*
X122186256Y-92554795D01*
X121997898Y-92476774D01*
X121797939Y-92437000D01*
X121594061Y-92437000D01*
X121394102Y-92476774D01*
X121205744Y-92554795D01*
X121036226Y-92668063D01*
X120892063Y-92812226D01*
X120778795Y-92981744D01*
X120700774Y-93170102D01*
X120661000Y-93370061D01*
X120131000Y-93370061D01*
X120091226Y-93170102D01*
X120013205Y-92981744D01*
X119899937Y-92812226D01*
X119755774Y-92668063D01*
X119586256Y-92554795D01*
X119397898Y-92476774D01*
X119197939Y-92437000D01*
X118994061Y-92437000D01*
X118820000Y-92471623D01*
X118820000Y-92192003D01*
X128159458Y-92192003D01*
X128159458Y-92366333D01*
X128193468Y-92537313D01*
X128260181Y-92698373D01*
X128357034Y-92843323D01*
X128480303Y-92966592D01*
X128625253Y-93063445D01*
X128786313Y-93130158D01*
X128957293Y-93164168D01*
X129131623Y-93164168D01*
X129302603Y-93130158D01*
X129463663Y-93063445D01*
X129608613Y-92966592D01*
X129731882Y-92843323D01*
X129828735Y-92698373D01*
X129895448Y-92537313D01*
X129929458Y-92366333D01*
X129929458Y-92192003D01*
X129895448Y-92021023D01*
X129828735Y-91859963D01*
X129822737Y-91850986D01*
X131031500Y-91850986D01*
X131031500Y-92045014D01*
X131069353Y-92235314D01*
X131143604Y-92414572D01*
X131251401Y-92575901D01*
X131388599Y-92713099D01*
X131549928Y-92820896D01*
X131729186Y-92895147D01*
X131919486Y-92933000D01*
X132113514Y-92933000D01*
X132303814Y-92895147D01*
X132483072Y-92820896D01*
X132644401Y-92713099D01*
X132781599Y-92575901D01*
X132889396Y-92414572D01*
X132963647Y-92235314D01*
X133001500Y-92045014D01*
X133001500Y-91850986D01*
X132963647Y-91660686D01*
X132889396Y-91481428D01*
X132781599Y-91320099D01*
X132644401Y-91182901D01*
X132483072Y-91075104D01*
X132303814Y-91000853D01*
X132285626Y-90997235D01*
X133862000Y-90997235D01*
X133862000Y-91171565D01*
X133896010Y-91342545D01*
X133962723Y-91503605D01*
X134059576Y-91648555D01*
X134182845Y-91771824D01*
X134327795Y-91868677D01*
X134488855Y-91935390D01*
X134659835Y-91969400D01*
X134834165Y-91969400D01*
X135005145Y-91935390D01*
X135166205Y-91868677D01*
X135287715Y-91787486D01*
X138016500Y-91787486D01*
X138016500Y-91981514D01*
X138054353Y-92171814D01*
X138128604Y-92351072D01*
X138236401Y-92512401D01*
X138373599Y-92649599D01*
X138534928Y-92757396D01*
X138714186Y-92831647D01*
X138904486Y-92869500D01*
X139098514Y-92869500D01*
X139288814Y-92831647D01*
X139468072Y-92757396D01*
X139629401Y-92649599D01*
X139766599Y-92512401D01*
X139874396Y-92351072D01*
X139948647Y-92171814D01*
X139986500Y-91981514D01*
X139986500Y-91787486D01*
X139948647Y-91597186D01*
X139874396Y-91417928D01*
X139821031Y-91338061D01*
X142665500Y-91338061D01*
X142665500Y-91541939D01*
X142705274Y-91741898D01*
X142783295Y-91930256D01*
X142896563Y-92099774D01*
X143040726Y-92243937D01*
X143210244Y-92357205D01*
X143398602Y-92435226D01*
X143598561Y-92475000D01*
X143802439Y-92475000D01*
X144002398Y-92435226D01*
X144190756Y-92357205D01*
X144360274Y-92243937D01*
X144374298Y-92229913D01*
X144434295Y-92374756D01*
X144547563Y-92544274D01*
X144691726Y-92688437D01*
X144861244Y-92801705D01*
X145049602Y-92879726D01*
X145249561Y-92919500D01*
X145453439Y-92919500D01*
X145653398Y-92879726D01*
X145841756Y-92801705D01*
X146011274Y-92688437D01*
X146155437Y-92544274D01*
X146268705Y-92374756D01*
X146346726Y-92186398D01*
X146386500Y-91986439D01*
X146386500Y-91782561D01*
X146346726Y-91582602D01*
X146268705Y-91394244D01*
X146155437Y-91224726D01*
X146011274Y-91080563D01*
X145841756Y-90967295D01*
X145653398Y-90889274D01*
X145453439Y-90849500D01*
X145249561Y-90849500D01*
X145049602Y-90889274D01*
X144861244Y-90967295D01*
X144691726Y-91080563D01*
X144677702Y-91094587D01*
X144617705Y-90949744D01*
X144504437Y-90780226D01*
X144360274Y-90636063D01*
X144190756Y-90522795D01*
X144002398Y-90444774D01*
X143802439Y-90405000D01*
X143598561Y-90405000D01*
X143398602Y-90444774D01*
X143210244Y-90522795D01*
X143040726Y-90636063D01*
X142896563Y-90780226D01*
X142783295Y-90949744D01*
X142705274Y-91138102D01*
X142665500Y-91338061D01*
X139821031Y-91338061D01*
X139766599Y-91256599D01*
X139629401Y-91119401D01*
X139468072Y-91011604D01*
X139288814Y-90937353D01*
X139098514Y-90899500D01*
X138904486Y-90899500D01*
X138714186Y-90937353D01*
X138534928Y-91011604D01*
X138373599Y-91119401D01*
X138236401Y-91256599D01*
X138128604Y-91417928D01*
X138054353Y-91597186D01*
X138016500Y-91787486D01*
X135287715Y-91787486D01*
X135311155Y-91771824D01*
X135434424Y-91648555D01*
X135531277Y-91503605D01*
X135597990Y-91342545D01*
X135632000Y-91171565D01*
X135632000Y-90997235D01*
X135597990Y-90826255D01*
X135531277Y-90665195D01*
X135434424Y-90520245D01*
X135311155Y-90396976D01*
X135166205Y-90300123D01*
X135005145Y-90233410D01*
X134834165Y-90199400D01*
X134659835Y-90199400D01*
X134488855Y-90233410D01*
X134327795Y-90300123D01*
X134182845Y-90396976D01*
X134059576Y-90520245D01*
X133962723Y-90665195D01*
X133896010Y-90826255D01*
X133862000Y-90997235D01*
X132285626Y-90997235D01*
X132113514Y-90963000D01*
X131919486Y-90963000D01*
X131729186Y-91000853D01*
X131549928Y-91075104D01*
X131388599Y-91182901D01*
X131251401Y-91320099D01*
X131143604Y-91481428D01*
X131069353Y-91660686D01*
X131031500Y-91850986D01*
X129822737Y-91850986D01*
X129731882Y-91715013D01*
X129608613Y-91591744D01*
X129463663Y-91494891D01*
X129302603Y-91428178D01*
X129131623Y-91394168D01*
X128957293Y-91394168D01*
X128786313Y-91428178D01*
X128625253Y-91494891D01*
X128480303Y-91591744D01*
X128357034Y-91715013D01*
X128260181Y-91859963D01*
X128193468Y-92021023D01*
X128159458Y-92192003D01*
X118820000Y-92192003D01*
X118820000Y-90195061D01*
X127616000Y-90195061D01*
X127616000Y-90398939D01*
X127655774Y-90598898D01*
X127733795Y-90787256D01*
X127847063Y-90956774D01*
X127991226Y-91100937D01*
X128160744Y-91214205D01*
X128349102Y-91292226D01*
X128549061Y-91332000D01*
X128752939Y-91332000D01*
X128952898Y-91292226D01*
X129141256Y-91214205D01*
X129310774Y-91100937D01*
X129454937Y-90956774D01*
X129568205Y-90787256D01*
X129646226Y-90598898D01*
X129686000Y-90398939D01*
X129686000Y-90195061D01*
X129646226Y-89995102D01*
X129568205Y-89806744D01*
X129454937Y-89637226D01*
X129310774Y-89493063D01*
X129141256Y-89379795D01*
X128952898Y-89301774D01*
X128752939Y-89262000D01*
X128549061Y-89262000D01*
X128349102Y-89301774D01*
X128160744Y-89379795D01*
X127991226Y-89493063D01*
X127847063Y-89637226D01*
X127733795Y-89806744D01*
X127655774Y-89995102D01*
X127616000Y-90195061D01*
X118820000Y-90195061D01*
X118820000Y-88988561D01*
X124123500Y-88988561D01*
X124123500Y-89192439D01*
X124163274Y-89392398D01*
X124241295Y-89580756D01*
X124354563Y-89750274D01*
X124498726Y-89894437D01*
X124668244Y-90007705D01*
X124856602Y-90085726D01*
X125056561Y-90125500D01*
X125260439Y-90125500D01*
X125460398Y-90085726D01*
X125648756Y-90007705D01*
X125818274Y-89894437D01*
X125962437Y-89750274D01*
X126075705Y-89580756D01*
X126153726Y-89392398D01*
X126193500Y-89192439D01*
X126193500Y-88988561D01*
X126153726Y-88788602D01*
X126075705Y-88600244D01*
X125962437Y-88430726D01*
X125818274Y-88286563D01*
X125648756Y-88173295D01*
X125460398Y-88095274D01*
X125260439Y-88055500D01*
X125056561Y-88055500D01*
X124856602Y-88095274D01*
X124668244Y-88173295D01*
X124498726Y-88286563D01*
X124354563Y-88430726D01*
X124241295Y-88600244D01*
X124163274Y-88788602D01*
X124123500Y-88988561D01*
X118820000Y-88988561D01*
X118820000Y-85051561D01*
X119678500Y-85051561D01*
X119678500Y-85255439D01*
X119718274Y-85455398D01*
X119796295Y-85643756D01*
X119909563Y-85813274D01*
X120053726Y-85957437D01*
X120223244Y-86070705D01*
X120411602Y-86148726D01*
X120479000Y-86162132D01*
X120479000Y-86353401D01*
X120519735Y-86558191D01*
X120526862Y-86575397D01*
X120524498Y-86579820D01*
X120488188Y-86699518D01*
X120475928Y-86824000D01*
X120475928Y-87674000D01*
X120488188Y-87798482D01*
X120524498Y-87918180D01*
X120583463Y-88028494D01*
X120662815Y-88125185D01*
X120759506Y-88204537D01*
X120869820Y-88263502D01*
X120989518Y-88299812D01*
X121114000Y-88312072D01*
X121964000Y-88312072D01*
X122088482Y-88299812D01*
X122208180Y-88263502D01*
X122318494Y-88204537D01*
X122415185Y-88125185D01*
X122494537Y-88028494D01*
X122553502Y-87918180D01*
X122589812Y-87798482D01*
X122602072Y-87674000D01*
X122602072Y-87591561D01*
X137141000Y-87591561D01*
X137141000Y-87795439D01*
X137180774Y-87995398D01*
X137258795Y-88183756D01*
X137372063Y-88353274D01*
X137516226Y-88497437D01*
X137685744Y-88610705D01*
X137874102Y-88688726D01*
X138074061Y-88728500D01*
X138277939Y-88728500D01*
X138477898Y-88688726D01*
X138666256Y-88610705D01*
X138835774Y-88497437D01*
X138979937Y-88353274D01*
X139093205Y-88183756D01*
X139171226Y-87995398D01*
X139211000Y-87795439D01*
X139211000Y-87591561D01*
X139171226Y-87391602D01*
X139093205Y-87203244D01*
X138979937Y-87033726D01*
X138835774Y-86889563D01*
X138666256Y-86776295D01*
X138477898Y-86698274D01*
X138277939Y-86658500D01*
X138074061Y-86658500D01*
X137874102Y-86698274D01*
X137685744Y-86776295D01*
X137516226Y-86889563D01*
X137372063Y-87033726D01*
X137258795Y-87203244D01*
X137180774Y-87391602D01*
X137141000Y-87591561D01*
X122602072Y-87591561D01*
X122602072Y-86824000D01*
X122589812Y-86699518D01*
X122553502Y-86579820D01*
X122551138Y-86575397D01*
X122558265Y-86558191D01*
X122599000Y-86353401D01*
X122599000Y-86144599D01*
X122558265Y-85939809D01*
X122479229Y-85749000D01*
X122558265Y-85558191D01*
X122583254Y-85432561D01*
X130346500Y-85432561D01*
X130346500Y-85636439D01*
X130386274Y-85836398D01*
X130464295Y-86024756D01*
X130577563Y-86194274D01*
X130721726Y-86338437D01*
X130891244Y-86451705D01*
X131079602Y-86529726D01*
X131279561Y-86569500D01*
X131483439Y-86569500D01*
X131683398Y-86529726D01*
X131871756Y-86451705D01*
X132041274Y-86338437D01*
X132185437Y-86194274D01*
X132298705Y-86024756D01*
X132376726Y-85836398D01*
X132416500Y-85636439D01*
X132416500Y-85432561D01*
X132376726Y-85232602D01*
X132298705Y-85044244D01*
X132185437Y-84874726D01*
X132041274Y-84730563D01*
X131871756Y-84617295D01*
X131683398Y-84539274D01*
X131483439Y-84499500D01*
X131279561Y-84499500D01*
X131079602Y-84539274D01*
X130891244Y-84617295D01*
X130721726Y-84730563D01*
X130577563Y-84874726D01*
X130464295Y-85044244D01*
X130386274Y-85232602D01*
X130346500Y-85432561D01*
X122583254Y-85432561D01*
X122599000Y-85353401D01*
X122599000Y-85144599D01*
X122558265Y-84939809D01*
X122478360Y-84746902D01*
X122475006Y-84741882D01*
X122547872Y-84574250D01*
X122558540Y-84539062D01*
X122431257Y-84376000D01*
X122140413Y-84376000D01*
X122041098Y-84309640D01*
X121848191Y-84229735D01*
X121643401Y-84189000D01*
X121434599Y-84189000D01*
X121392000Y-84197473D01*
X121392000Y-84122000D01*
X121412000Y-84122000D01*
X121412000Y-83355379D01*
X121666000Y-83355379D01*
X121666000Y-84122000D01*
X122431257Y-84122000D01*
X122558540Y-83958938D01*
X122547872Y-83923750D01*
X122465034Y-83733178D01*
X122346609Y-83562429D01*
X122197148Y-83418064D01*
X122022394Y-83305632D01*
X121829064Y-83229453D01*
X121666000Y-83355379D01*
X121412000Y-83355379D01*
X121248936Y-83229453D01*
X121055606Y-83305632D01*
X120880852Y-83418064D01*
X120731391Y-83562429D01*
X120612966Y-83733178D01*
X120530128Y-83923750D01*
X120519460Y-83958938D01*
X120644011Y-84118500D01*
X120611561Y-84118500D01*
X120593975Y-84121998D01*
X120479000Y-84121998D01*
X120479000Y-84144868D01*
X120411602Y-84158274D01*
X120223244Y-84236295D01*
X120053726Y-84349563D01*
X119909563Y-84493726D01*
X119796295Y-84663244D01*
X119718274Y-84851602D01*
X119678500Y-85051561D01*
X118820000Y-85051561D01*
X118820000Y-82688325D01*
X130787337Y-82688325D01*
X130787337Y-82892203D01*
X130827111Y-83092162D01*
X130905132Y-83280520D01*
X131018400Y-83450038D01*
X131162563Y-83594201D01*
X131332081Y-83707469D01*
X131520439Y-83785490D01*
X131720398Y-83825264D01*
X131924276Y-83825264D01*
X132124235Y-83785490D01*
X132312593Y-83707469D01*
X132482111Y-83594201D01*
X132626274Y-83450038D01*
X132739542Y-83280520D01*
X132817563Y-83092162D01*
X132844634Y-82956061D01*
X132950000Y-82956061D01*
X132950000Y-83159939D01*
X132989774Y-83359898D01*
X133067795Y-83548256D01*
X133181063Y-83717774D01*
X133325226Y-83861937D01*
X133494744Y-83975205D01*
X133683102Y-84053226D01*
X133883061Y-84093000D01*
X134086939Y-84093000D01*
X134286898Y-84053226D01*
X134475256Y-83975205D01*
X134644774Y-83861937D01*
X134788937Y-83717774D01*
X134902205Y-83548256D01*
X134980226Y-83359898D01*
X135020000Y-83159939D01*
X135020000Y-82956061D01*
X134980226Y-82756102D01*
X134902205Y-82567744D01*
X134788937Y-82398226D01*
X134769211Y-82378500D01*
X134784441Y-82378500D01*
X134984400Y-82338726D01*
X135172758Y-82260705D01*
X135204181Y-82239709D01*
X135212274Y-82280398D01*
X135290295Y-82468756D01*
X135403563Y-82638274D01*
X135547726Y-82782437D01*
X135717244Y-82895705D01*
X135905602Y-82973726D01*
X136105561Y-83013500D01*
X136309439Y-83013500D01*
X136509398Y-82973726D01*
X136697756Y-82895705D01*
X136867274Y-82782437D01*
X137011437Y-82638274D01*
X137074060Y-82544551D01*
X142190490Y-82544551D01*
X142190490Y-82748429D01*
X142230264Y-82948388D01*
X142308285Y-83136746D01*
X142421553Y-83306264D01*
X142565716Y-83450427D01*
X142735234Y-83563695D01*
X142923592Y-83641716D01*
X143123551Y-83681490D01*
X143327429Y-83681490D01*
X143527388Y-83641716D01*
X143715746Y-83563695D01*
X143885264Y-83450427D01*
X144029427Y-83306264D01*
X144142695Y-83136746D01*
X144220716Y-82948388D01*
X144260490Y-82748429D01*
X144260490Y-82544551D01*
X144220716Y-82344592D01*
X144142695Y-82156234D01*
X144054059Y-82023581D01*
X144065898Y-82021226D01*
X144254256Y-81943205D01*
X144423774Y-81829937D01*
X144567937Y-81685774D01*
X144681205Y-81516256D01*
X144759226Y-81327898D01*
X144799000Y-81127939D01*
X144799000Y-80924061D01*
X144759226Y-80724102D01*
X144681205Y-80535744D01*
X144567937Y-80366226D01*
X144423774Y-80222063D01*
X144254256Y-80108795D01*
X144065898Y-80030774D01*
X143865939Y-79991000D01*
X143662061Y-79991000D01*
X143462102Y-80030774D01*
X143273744Y-80108795D01*
X143104226Y-80222063D01*
X142960063Y-80366226D01*
X142846795Y-80535744D01*
X142768774Y-80724102D01*
X142729000Y-80924061D01*
X142729000Y-81127939D01*
X142768774Y-81327898D01*
X142846795Y-81516256D01*
X142935431Y-81648909D01*
X142923592Y-81651264D01*
X142735234Y-81729285D01*
X142565716Y-81842553D01*
X142421553Y-81986716D01*
X142308285Y-82156234D01*
X142230264Y-82344592D01*
X142190490Y-82544551D01*
X137074060Y-82544551D01*
X137124705Y-82468756D01*
X137202726Y-82280398D01*
X137242500Y-82080439D01*
X137242500Y-81876561D01*
X137202726Y-81676602D01*
X137124705Y-81488244D01*
X137011437Y-81318726D01*
X136867274Y-81174563D01*
X136697756Y-81061295D01*
X136509398Y-80983274D01*
X136309439Y-80943500D01*
X136105561Y-80943500D01*
X135905602Y-80983274D01*
X135717244Y-81061295D01*
X135685821Y-81082291D01*
X135677728Y-81041602D01*
X135599707Y-80853244D01*
X135486439Y-80683726D01*
X135342276Y-80539563D01*
X135254078Y-80480631D01*
X135421835Y-80514000D01*
X135596165Y-80514000D01*
X135767145Y-80479990D01*
X135928205Y-80413277D01*
X136073155Y-80316424D01*
X136196424Y-80193155D01*
X136293277Y-80048205D01*
X136359990Y-79887145D01*
X136394000Y-79716165D01*
X136394000Y-79541835D01*
X136359990Y-79370855D01*
X136293277Y-79209795D01*
X136196424Y-79064845D01*
X136073155Y-78941576D01*
X135928205Y-78844723D01*
X135767145Y-78778010D01*
X135596165Y-78744000D01*
X135421835Y-78744000D01*
X135250855Y-78778010D01*
X135089795Y-78844723D01*
X134944845Y-78941576D01*
X134821576Y-79064845D01*
X134724723Y-79209795D01*
X134658010Y-79370855D01*
X134624000Y-79541835D01*
X134624000Y-79716165D01*
X134658010Y-79887145D01*
X134724723Y-80048205D01*
X134821576Y-80193155D01*
X134944845Y-80316424D01*
X135005742Y-80357114D01*
X134984400Y-80348274D01*
X134784441Y-80308500D01*
X134580563Y-80308500D01*
X134380604Y-80348274D01*
X134192246Y-80426295D01*
X134022728Y-80539563D01*
X133878565Y-80683726D01*
X133765297Y-80853244D01*
X133687276Y-81041602D01*
X133647502Y-81241561D01*
X133647502Y-81445439D01*
X133687276Y-81645398D01*
X133765297Y-81833756D01*
X133878565Y-82003274D01*
X133898291Y-82023000D01*
X133883061Y-82023000D01*
X133683102Y-82062774D01*
X133494744Y-82140795D01*
X133325226Y-82254063D01*
X133181063Y-82398226D01*
X133067795Y-82567744D01*
X132989774Y-82756102D01*
X132950000Y-82956061D01*
X132844634Y-82956061D01*
X132857337Y-82892203D01*
X132857337Y-82688325D01*
X132817563Y-82488366D01*
X132739542Y-82300008D01*
X132626274Y-82130490D01*
X132482111Y-81986327D01*
X132312593Y-81873059D01*
X132124235Y-81795038D01*
X131924276Y-81755264D01*
X131720398Y-81755264D01*
X131520439Y-81795038D01*
X131332081Y-81873059D01*
X131162563Y-81986327D01*
X131018400Y-82130490D01*
X130905132Y-82300008D01*
X130827111Y-82488366D01*
X130787337Y-82688325D01*
X118820000Y-82688325D01*
X118820000Y-80543061D01*
X126600000Y-80543061D01*
X126600000Y-80746939D01*
X126639774Y-80946898D01*
X126717795Y-81135256D01*
X126831063Y-81304774D01*
X126975226Y-81448937D01*
X127144744Y-81562205D01*
X127333102Y-81640226D01*
X127533061Y-81680000D01*
X127736939Y-81680000D01*
X127936898Y-81640226D01*
X128125256Y-81562205D01*
X128294774Y-81448937D01*
X128438937Y-81304774D01*
X128552205Y-81135256D01*
X128630226Y-80946898D01*
X128670000Y-80746939D01*
X128670000Y-80543061D01*
X128630226Y-80343102D01*
X128552205Y-80154744D01*
X128438937Y-79985226D01*
X128294774Y-79841063D01*
X128125256Y-79727795D01*
X127936898Y-79649774D01*
X127736939Y-79610000D01*
X127533061Y-79610000D01*
X127333102Y-79649774D01*
X127144744Y-79727795D01*
X126975226Y-79841063D01*
X126831063Y-79985226D01*
X126717795Y-80154744D01*
X126639774Y-80343102D01*
X126600000Y-80543061D01*
X118820000Y-80543061D01*
X118820000Y-79590561D01*
X132251500Y-79590561D01*
X132251500Y-79794439D01*
X132291274Y-79994398D01*
X132369295Y-80182756D01*
X132482563Y-80352274D01*
X132626726Y-80496437D01*
X132796244Y-80609705D01*
X132984602Y-80687726D01*
X133184561Y-80727500D01*
X133388439Y-80727500D01*
X133588398Y-80687726D01*
X133776756Y-80609705D01*
X133946274Y-80496437D01*
X134090437Y-80352274D01*
X134203705Y-80182756D01*
X134281726Y-79994398D01*
X134321500Y-79794439D01*
X134321500Y-79590561D01*
X134281726Y-79390602D01*
X134203705Y-79202244D01*
X134090437Y-79032726D01*
X133946274Y-78888563D01*
X133776756Y-78775295D01*
X133588398Y-78697274D01*
X133388439Y-78657500D01*
X133184561Y-78657500D01*
X132984602Y-78697274D01*
X132796244Y-78775295D01*
X132626726Y-78888563D01*
X132482563Y-79032726D01*
X132369295Y-79202244D01*
X132291274Y-79390602D01*
X132251500Y-79590561D01*
X118820000Y-79590561D01*
X118820000Y-78208335D01*
X140783500Y-78208335D01*
X140783500Y-78382665D01*
X140817510Y-78553645D01*
X140884223Y-78714705D01*
X140981076Y-78859655D01*
X141104345Y-78982924D01*
X141249295Y-79079777D01*
X141410355Y-79146490D01*
X141581335Y-79180500D01*
X141755665Y-79180500D01*
X141926645Y-79146490D01*
X142087705Y-79079777D01*
X142232655Y-78982924D01*
X142355924Y-78859655D01*
X142452777Y-78714705D01*
X142504706Y-78589335D01*
X143323500Y-78589335D01*
X143323500Y-78763665D01*
X143357510Y-78934645D01*
X143424223Y-79095705D01*
X143521076Y-79240655D01*
X143644345Y-79363924D01*
X143789295Y-79460777D01*
X143950355Y-79527490D01*
X144121335Y-79561500D01*
X144295665Y-79561500D01*
X144466645Y-79527490D01*
X144627705Y-79460777D01*
X144772655Y-79363924D01*
X144895924Y-79240655D01*
X144992777Y-79095705D01*
X145059490Y-78934645D01*
X145093500Y-78763665D01*
X145093500Y-78589335D01*
X145059490Y-78418355D01*
X144992777Y-78257295D01*
X144895924Y-78112345D01*
X144772655Y-77989076D01*
X144627705Y-77892223D01*
X144466645Y-77825510D01*
X144295665Y-77791500D01*
X144121335Y-77791500D01*
X143950355Y-77825510D01*
X143789295Y-77892223D01*
X143644345Y-77989076D01*
X143521076Y-78112345D01*
X143424223Y-78257295D01*
X143357510Y-78418355D01*
X143323500Y-78589335D01*
X142504706Y-78589335D01*
X142519490Y-78553645D01*
X142553500Y-78382665D01*
X142553500Y-78208335D01*
X142519490Y-78037355D01*
X142452777Y-77876295D01*
X142355924Y-77731345D01*
X142232655Y-77608076D01*
X142087705Y-77511223D01*
X141926645Y-77444510D01*
X141755665Y-77410500D01*
X141581335Y-77410500D01*
X141410355Y-77444510D01*
X141249295Y-77511223D01*
X141104345Y-77608076D01*
X140981076Y-77731345D01*
X140884223Y-77876295D01*
X140817510Y-78037355D01*
X140783500Y-78208335D01*
X118820000Y-78208335D01*
X118820000Y-75018561D01*
X124822000Y-75018561D01*
X124822000Y-75222439D01*
X124861774Y-75422398D01*
X124939795Y-75610756D01*
X125053063Y-75780274D01*
X125197226Y-75924437D01*
X125366744Y-76037705D01*
X125555102Y-76115726D01*
X125755061Y-76155500D01*
X125958939Y-76155500D01*
X126158898Y-76115726D01*
X126197872Y-76099583D01*
X126340226Y-76241937D01*
X126509744Y-76355205D01*
X126698102Y-76433226D01*
X126898061Y-76473000D01*
X127101939Y-76473000D01*
X127301898Y-76433226D01*
X127490256Y-76355205D01*
X127659774Y-76241937D01*
X127803937Y-76097774D01*
X127888603Y-75971061D01*
X129140000Y-75971061D01*
X129140000Y-76174939D01*
X129179774Y-76374898D01*
X129257795Y-76563256D01*
X129371063Y-76732774D01*
X129515226Y-76876937D01*
X129684744Y-76990205D01*
X129873102Y-77068226D01*
X130073061Y-77108000D01*
X130276939Y-77108000D01*
X130476898Y-77068226D01*
X130665256Y-76990205D01*
X130834774Y-76876937D01*
X130978937Y-76732774D01*
X131092205Y-76563256D01*
X131170226Y-76374898D01*
X131210000Y-76174939D01*
X131210000Y-75971061D01*
X131170226Y-75771102D01*
X131092205Y-75582744D01*
X130978937Y-75413226D01*
X130834774Y-75269063D01*
X130665256Y-75155795D01*
X130476898Y-75077774D01*
X130276939Y-75038000D01*
X130073061Y-75038000D01*
X129873102Y-75077774D01*
X129684744Y-75155795D01*
X129515226Y-75269063D01*
X129371063Y-75413226D01*
X129257795Y-75582744D01*
X129179774Y-75771102D01*
X129140000Y-75971061D01*
X127888603Y-75971061D01*
X127917205Y-75928256D01*
X127995226Y-75739898D01*
X128035000Y-75539939D01*
X128035000Y-75336061D01*
X127995226Y-75136102D01*
X127948579Y-75023486D01*
X132174500Y-75023486D01*
X132174500Y-75217514D01*
X132212353Y-75407814D01*
X132286604Y-75587072D01*
X132394401Y-75748401D01*
X132531599Y-75885599D01*
X132692928Y-75993396D01*
X132777604Y-76028470D01*
X132720353Y-76166686D01*
X132682500Y-76356986D01*
X132682500Y-76551014D01*
X132720353Y-76741314D01*
X132794604Y-76920572D01*
X132902401Y-77081901D01*
X133039599Y-77219099D01*
X133200928Y-77326896D01*
X133380186Y-77401147D01*
X133570486Y-77439000D01*
X133764514Y-77439000D01*
X133954814Y-77401147D01*
X134134072Y-77326896D01*
X134224791Y-77266279D01*
X134313576Y-77399155D01*
X134436845Y-77522424D01*
X134581795Y-77619277D01*
X134742855Y-77685990D01*
X134913835Y-77720000D01*
X135088165Y-77720000D01*
X135259145Y-77685990D01*
X135420205Y-77619277D01*
X135565155Y-77522424D01*
X135688424Y-77399155D01*
X135785277Y-77254205D01*
X135851990Y-77093145D01*
X135886000Y-76922165D01*
X135886000Y-76747835D01*
X135851990Y-76576855D01*
X135785277Y-76415795D01*
X135700262Y-76288561D01*
X142527000Y-76288561D01*
X142527000Y-76492439D01*
X142566774Y-76692398D01*
X142644795Y-76880756D01*
X142758063Y-77050274D01*
X142902226Y-77194437D01*
X143071744Y-77307705D01*
X143260102Y-77385726D01*
X143460061Y-77425500D01*
X143663939Y-77425500D01*
X143863898Y-77385726D01*
X144052256Y-77307705D01*
X144221774Y-77194437D01*
X144365937Y-77050274D01*
X144479205Y-76880756D01*
X144557226Y-76692398D01*
X144597000Y-76492439D01*
X144597000Y-76288561D01*
X144557226Y-76088602D01*
X144534842Y-76034561D01*
X149015500Y-76034561D01*
X149015500Y-76238439D01*
X149055274Y-76438398D01*
X149133295Y-76626756D01*
X149246563Y-76796274D01*
X149390726Y-76940437D01*
X149560244Y-77053705D01*
X149748602Y-77131726D01*
X149948561Y-77171500D01*
X150152439Y-77171500D01*
X150352398Y-77131726D01*
X150540756Y-77053705D01*
X150710274Y-76940437D01*
X150854437Y-76796274D01*
X150967705Y-76626756D01*
X151045726Y-76438398D01*
X151085500Y-76238439D01*
X151085500Y-76034561D01*
X151045726Y-75834602D01*
X150967705Y-75646244D01*
X150854437Y-75476726D01*
X150710274Y-75332563D01*
X150540756Y-75219295D01*
X150352398Y-75141274D01*
X150152439Y-75101500D01*
X149948561Y-75101500D01*
X149748602Y-75141274D01*
X149560244Y-75219295D01*
X149390726Y-75332563D01*
X149246563Y-75476726D01*
X149133295Y-75646244D01*
X149055274Y-75834602D01*
X149015500Y-76034561D01*
X144534842Y-76034561D01*
X144479205Y-75900244D01*
X144365937Y-75730726D01*
X144221774Y-75586563D01*
X144052256Y-75473295D01*
X143863898Y-75395274D01*
X143663939Y-75355500D01*
X143460061Y-75355500D01*
X143260102Y-75395274D01*
X143071744Y-75473295D01*
X142902226Y-75586563D01*
X142758063Y-75730726D01*
X142644795Y-75900244D01*
X142566774Y-76088602D01*
X142527000Y-76288561D01*
X135700262Y-76288561D01*
X135688424Y-76270845D01*
X135565155Y-76147576D01*
X135420205Y-76050723D01*
X135259145Y-75984010D01*
X135088165Y-75950000D01*
X134913835Y-75950000D01*
X134742855Y-75984010D01*
X134581795Y-76050723D01*
X134569905Y-76058668D01*
X134540396Y-75987428D01*
X134432599Y-75826099D01*
X134295401Y-75688901D01*
X134134072Y-75581104D01*
X134049396Y-75546030D01*
X134106647Y-75407814D01*
X134144500Y-75217514D01*
X134144500Y-75023486D01*
X134106647Y-74833186D01*
X134032396Y-74653928D01*
X133979031Y-74574061D01*
X138919000Y-74574061D01*
X138919000Y-74777939D01*
X138958774Y-74977898D01*
X139036795Y-75166256D01*
X139150063Y-75335774D01*
X139294226Y-75479937D01*
X139463744Y-75593205D01*
X139652102Y-75671226D01*
X139852061Y-75711000D01*
X140055939Y-75711000D01*
X140255898Y-75671226D01*
X140444256Y-75593205D01*
X140613774Y-75479937D01*
X140757937Y-75335774D01*
X140871205Y-75166256D01*
X140949226Y-74977898D01*
X140989000Y-74777939D01*
X140989000Y-74574061D01*
X140949226Y-74374102D01*
X140871205Y-74185744D01*
X140757937Y-74016226D01*
X140613774Y-73872063D01*
X140444256Y-73758795D01*
X140255898Y-73680774D01*
X140055939Y-73641000D01*
X139852061Y-73641000D01*
X139652102Y-73680774D01*
X139463744Y-73758795D01*
X139294226Y-73872063D01*
X139150063Y-74016226D01*
X139036795Y-74185744D01*
X138958774Y-74374102D01*
X138919000Y-74574061D01*
X133979031Y-74574061D01*
X133924599Y-74492599D01*
X133787401Y-74355401D01*
X133626072Y-74247604D01*
X133446814Y-74173353D01*
X133256514Y-74135500D01*
X133062486Y-74135500D01*
X132872186Y-74173353D01*
X132692928Y-74247604D01*
X132531599Y-74355401D01*
X132394401Y-74492599D01*
X132286604Y-74653928D01*
X132212353Y-74833186D01*
X132174500Y-75023486D01*
X127948579Y-75023486D01*
X127917205Y-74947744D01*
X127803937Y-74778226D01*
X127659774Y-74634063D01*
X127490256Y-74520795D01*
X127301898Y-74442774D01*
X127101939Y-74403000D01*
X126898061Y-74403000D01*
X126698102Y-74442774D01*
X126659128Y-74458917D01*
X126516774Y-74316563D01*
X126347256Y-74203295D01*
X126158898Y-74125274D01*
X125958939Y-74085500D01*
X125755061Y-74085500D01*
X125555102Y-74125274D01*
X125366744Y-74203295D01*
X125197226Y-74316563D01*
X125053063Y-74460726D01*
X124939795Y-74630244D01*
X124861774Y-74818602D01*
X124822000Y-75018561D01*
X118820000Y-75018561D01*
X118820000Y-74660377D01*
X118994061Y-74695000D01*
X119197939Y-74695000D01*
X119397898Y-74655226D01*
X119586256Y-74577205D01*
X119755774Y-74463937D01*
X119899937Y-74319774D01*
X120013205Y-74150256D01*
X120091226Y-73961898D01*
X120131000Y-73761939D01*
X120131000Y-73558061D01*
X120661000Y-73558061D01*
X120661000Y-73761939D01*
X120700774Y-73961898D01*
X120778795Y-74150256D01*
X120892063Y-74319774D01*
X121036226Y-74463937D01*
X121205744Y-74577205D01*
X121394102Y-74655226D01*
X121594061Y-74695000D01*
X121797939Y-74695000D01*
X121997898Y-74655226D01*
X122186256Y-74577205D01*
X122355774Y-74463937D01*
X122499937Y-74319774D01*
X122613205Y-74150256D01*
X122691226Y-73961898D01*
X122731000Y-73761939D01*
X122731000Y-73558061D01*
X122691226Y-73358102D01*
X122613205Y-73169744D01*
X122499937Y-73000226D01*
X122355774Y-72856063D01*
X122186256Y-72742795D01*
X121997898Y-72664774D01*
X121797939Y-72625000D01*
X121594061Y-72625000D01*
X121394102Y-72664774D01*
X121205744Y-72742795D01*
X121036226Y-72856063D01*
X120892063Y-73000226D01*
X120778795Y-73169744D01*
X120700774Y-73358102D01*
X120661000Y-73558061D01*
X120131000Y-73558061D01*
X120091226Y-73358102D01*
X120013205Y-73169744D01*
X119899937Y-73000226D01*
X119755774Y-72856063D01*
X119586256Y-72742795D01*
X119397898Y-72664774D01*
X119197939Y-72625000D01*
X118994061Y-72625000D01*
X118820000Y-72659623D01*
X118820000Y-71996561D01*
X123843500Y-71996561D01*
X123843500Y-72200439D01*
X123883274Y-72400398D01*
X123961295Y-72588756D01*
X124074563Y-72758274D01*
X124218726Y-72902437D01*
X124388244Y-73015705D01*
X124576602Y-73093726D01*
X124776561Y-73133500D01*
X124980439Y-73133500D01*
X125180398Y-73093726D01*
X125368756Y-73015705D01*
X125538274Y-72902437D01*
X125682437Y-72758274D01*
X125795705Y-72588756D01*
X125873726Y-72400398D01*
X125880501Y-72366335D01*
X127258000Y-72366335D01*
X127258000Y-72540665D01*
X127292010Y-72711645D01*
X127358723Y-72872705D01*
X127455576Y-73017655D01*
X127578845Y-73140924D01*
X127723795Y-73237777D01*
X127884855Y-73304490D01*
X128055835Y-73338500D01*
X128230165Y-73338500D01*
X128401145Y-73304490D01*
X128402180Y-73304061D01*
X134220000Y-73304061D01*
X134220000Y-73507939D01*
X134259774Y-73707898D01*
X134337795Y-73896256D01*
X134451063Y-74065774D01*
X134595226Y-74209937D01*
X134764744Y-74323205D01*
X134953102Y-74401226D01*
X135153061Y-74441000D01*
X135356939Y-74441000D01*
X135556898Y-74401226D01*
X135745256Y-74323205D01*
X135914774Y-74209937D01*
X136058937Y-74065774D01*
X136172205Y-73896256D01*
X136250226Y-73707898D01*
X136290000Y-73507939D01*
X136290000Y-73304061D01*
X136250226Y-73104102D01*
X136172205Y-72915744D01*
X136058937Y-72746226D01*
X135914774Y-72602063D01*
X135824975Y-72542061D01*
X140316000Y-72542061D01*
X140316000Y-72745939D01*
X140355774Y-72945898D01*
X140433795Y-73134256D01*
X140547063Y-73303774D01*
X140691226Y-73447937D01*
X140860744Y-73561205D01*
X141049102Y-73639226D01*
X141249061Y-73679000D01*
X141452939Y-73679000D01*
X141652898Y-73639226D01*
X141841256Y-73561205D01*
X142010774Y-73447937D01*
X142154937Y-73303774D01*
X142239603Y-73177061D01*
X144570500Y-73177061D01*
X144570500Y-73380939D01*
X144610274Y-73580898D01*
X144688295Y-73769256D01*
X144801563Y-73938774D01*
X144945726Y-74082937D01*
X145115244Y-74196205D01*
X145303602Y-74274226D01*
X145503561Y-74314000D01*
X145707439Y-74314000D01*
X145907398Y-74274226D01*
X146095756Y-74196205D01*
X146265274Y-74082937D01*
X146409437Y-73938774D01*
X146522705Y-73769256D01*
X146600726Y-73580898D01*
X146640500Y-73380939D01*
X146640500Y-73177061D01*
X146600726Y-72977102D01*
X146522705Y-72788744D01*
X146409437Y-72619226D01*
X146265274Y-72475063D01*
X146095756Y-72361795D01*
X145907398Y-72283774D01*
X145707439Y-72244000D01*
X145503561Y-72244000D01*
X145303602Y-72283774D01*
X145115244Y-72361795D01*
X144945726Y-72475063D01*
X144801563Y-72619226D01*
X144688295Y-72788744D01*
X144610274Y-72977102D01*
X144570500Y-73177061D01*
X142239603Y-73177061D01*
X142268205Y-73134256D01*
X142346226Y-72945898D01*
X142386000Y-72745939D01*
X142386000Y-72542061D01*
X142346226Y-72342102D01*
X142268205Y-72153744D01*
X142154937Y-71984226D01*
X142010774Y-71840063D01*
X141841256Y-71726795D01*
X141652898Y-71648774D01*
X141452939Y-71609000D01*
X141249061Y-71609000D01*
X141049102Y-71648774D01*
X140860744Y-71726795D01*
X140691226Y-71840063D01*
X140547063Y-71984226D01*
X140433795Y-72153744D01*
X140355774Y-72342102D01*
X140316000Y-72542061D01*
X135824975Y-72542061D01*
X135745256Y-72488795D01*
X135556898Y-72410774D01*
X135356939Y-72371000D01*
X135153061Y-72371000D01*
X134953102Y-72410774D01*
X134764744Y-72488795D01*
X134595226Y-72602063D01*
X134451063Y-72746226D01*
X134337795Y-72915744D01*
X134259774Y-73104102D01*
X134220000Y-73304061D01*
X128402180Y-73304061D01*
X128562205Y-73237777D01*
X128707155Y-73140924D01*
X128830424Y-73017655D01*
X128927277Y-72872705D01*
X128993990Y-72711645D01*
X129028000Y-72540665D01*
X129028000Y-72366335D01*
X128993990Y-72195355D01*
X128927277Y-72034295D01*
X128830424Y-71889345D01*
X128707155Y-71766076D01*
X128562205Y-71669223D01*
X128401145Y-71602510D01*
X128230165Y-71568500D01*
X128055835Y-71568500D01*
X127884855Y-71602510D01*
X127723795Y-71669223D01*
X127578845Y-71766076D01*
X127455576Y-71889345D01*
X127358723Y-72034295D01*
X127292010Y-72195355D01*
X127258000Y-72366335D01*
X125880501Y-72366335D01*
X125913500Y-72200439D01*
X125913500Y-71996561D01*
X125873726Y-71796602D01*
X125795705Y-71608244D01*
X125682437Y-71438726D01*
X125538274Y-71294563D01*
X125368756Y-71181295D01*
X125180398Y-71103274D01*
X124980439Y-71063500D01*
X124776561Y-71063500D01*
X124576602Y-71103274D01*
X124388244Y-71181295D01*
X124218726Y-71294563D01*
X124074563Y-71438726D01*
X123961295Y-71608244D01*
X123883274Y-71796602D01*
X123843500Y-71996561D01*
X118820000Y-71996561D01*
X118820000Y-70115561D01*
X124935500Y-70115561D01*
X124935500Y-70319439D01*
X124975274Y-70519398D01*
X125053295Y-70707756D01*
X125166563Y-70877274D01*
X125310726Y-71021437D01*
X125480244Y-71134705D01*
X125668602Y-71212726D01*
X125868561Y-71252500D01*
X126072439Y-71252500D01*
X126272398Y-71212726D01*
X126460756Y-71134705D01*
X126630274Y-71021437D01*
X126774437Y-70877274D01*
X126887705Y-70707756D01*
X126965726Y-70519398D01*
X127005500Y-70319439D01*
X127005500Y-70115561D01*
X126965726Y-69915602D01*
X126887705Y-69727244D01*
X126774437Y-69557726D01*
X126630274Y-69413563D01*
X126460756Y-69300295D01*
X126272398Y-69222274D01*
X126072439Y-69182500D01*
X125868561Y-69182500D01*
X125668602Y-69222274D01*
X125480244Y-69300295D01*
X125310726Y-69413563D01*
X125166563Y-69557726D01*
X125053295Y-69727244D01*
X124975274Y-69915602D01*
X124935500Y-70115561D01*
X118820000Y-70115561D01*
X118820000Y-67294721D01*
X118885998Y-66621630D01*
X118994443Y-66262441D01*
X120300004Y-66262441D01*
X120300028Y-66269422D01*
X120303163Y-66300297D01*
X120302946Y-66331332D01*
X120303914Y-66341198D01*
X120324315Y-66535295D01*
X120337250Y-66598310D01*
X120349312Y-66661540D01*
X120352177Y-66671030D01*
X120409889Y-66857468D01*
X120434829Y-66916797D01*
X120458932Y-66976455D01*
X120463586Y-66985208D01*
X120556411Y-67156885D01*
X120592371Y-67210198D01*
X120627633Y-67264083D01*
X120633898Y-67271765D01*
X120758302Y-67422143D01*
X120803957Y-67467480D01*
X120848987Y-67513463D01*
X120856625Y-67519782D01*
X121007867Y-67643132D01*
X121061487Y-67678757D01*
X121114564Y-67715099D01*
X121123284Y-67719814D01*
X121295606Y-67811439D01*
X121355076Y-67835951D01*
X121414248Y-67861312D01*
X121423718Y-67864243D01*
X121610554Y-67920652D01*
X121673684Y-67933152D01*
X121736623Y-67946530D01*
X121746481Y-67947566D01*
X121940209Y-67966561D01*
X121975123Y-67970000D01*
X135346614Y-67970000D01*
X135198599Y-68068901D01*
X135061401Y-68206099D01*
X134953604Y-68367428D01*
X134879353Y-68546686D01*
X134841500Y-68736986D01*
X134841500Y-68931014D01*
X134879353Y-69121314D01*
X134953604Y-69300572D01*
X135061401Y-69461901D01*
X135198599Y-69599099D01*
X135359928Y-69706896D01*
X135539186Y-69781147D01*
X135729486Y-69819000D01*
X135923514Y-69819000D01*
X136113814Y-69781147D01*
X136293072Y-69706896D01*
X136454401Y-69599099D01*
X136591599Y-69461901D01*
X136699396Y-69300572D01*
X136773647Y-69121314D01*
X136811500Y-68931014D01*
X136811500Y-68736986D01*
X136773647Y-68546686D01*
X136699396Y-68367428D01*
X136591599Y-68206099D01*
X136454401Y-68068901D01*
X136306386Y-67970000D01*
X140826232Y-67970000D01*
X140770923Y-68006956D01*
X140588456Y-68189423D01*
X140445093Y-68403982D01*
X140346342Y-68642387D01*
X140296000Y-68895476D01*
X140296000Y-69153524D01*
X140346342Y-69406613D01*
X140445093Y-69645018D01*
X140588456Y-69859577D01*
X140770923Y-70042044D01*
X140985482Y-70185407D01*
X141223887Y-70284158D01*
X141476976Y-70334500D01*
X141735024Y-70334500D01*
X141988113Y-70284158D01*
X142226518Y-70185407D01*
X142441077Y-70042044D01*
X142606000Y-69877121D01*
X142770923Y-70042044D01*
X142985482Y-70185407D01*
X143223887Y-70284158D01*
X143476976Y-70334500D01*
X143735024Y-70334500D01*
X143988113Y-70284158D01*
X144226518Y-70185407D01*
X144441077Y-70042044D01*
X144606000Y-69877121D01*
X144770923Y-70042044D01*
X144985482Y-70185407D01*
X145223887Y-70284158D01*
X145476976Y-70334500D01*
X145735024Y-70334500D01*
X145988113Y-70284158D01*
X146226518Y-70185407D01*
X146441077Y-70042044D01*
X146606000Y-69877121D01*
X146770923Y-70042044D01*
X146985482Y-70185407D01*
X147223887Y-70284158D01*
X147476976Y-70334500D01*
X147735024Y-70334500D01*
X147988113Y-70284158D01*
X148226518Y-70185407D01*
X148408513Y-70063803D01*
X148479815Y-70150685D01*
X148576506Y-70230037D01*
X148686820Y-70289002D01*
X148806518Y-70325312D01*
X148931000Y-70337572D01*
X150281000Y-70337572D01*
X150405482Y-70325312D01*
X150525180Y-70289002D01*
X150635494Y-70230037D01*
X150732185Y-70150685D01*
X150811537Y-70053994D01*
X150870502Y-69943680D01*
X150906812Y-69823982D01*
X150919072Y-69699500D01*
X150919072Y-68349500D01*
X150906812Y-68225018D01*
X150870502Y-68105320D01*
X150811537Y-67995006D01*
X150732185Y-67898315D01*
X150635494Y-67818963D01*
X150525180Y-67759998D01*
X150405482Y-67723688D01*
X150281000Y-67711428D01*
X148931000Y-67711428D01*
X148906401Y-67713851D01*
X148906885Y-67713589D01*
X148960198Y-67677629D01*
X149014083Y-67642367D01*
X149021765Y-67636102D01*
X149172143Y-67511698D01*
X149217480Y-67466043D01*
X149263463Y-67421013D01*
X149269782Y-67413375D01*
X149393132Y-67262133D01*
X149428757Y-67208513D01*
X149465099Y-67155436D01*
X149469814Y-67146716D01*
X149561439Y-66974394D01*
X149585951Y-66914924D01*
X149611312Y-66855752D01*
X149614243Y-66846282D01*
X149670652Y-66659446D01*
X149683152Y-66596316D01*
X149696530Y-66533377D01*
X149697566Y-66523519D01*
X149716611Y-66329285D01*
X149716611Y-66298293D01*
X149719961Y-66267472D01*
X149719996Y-66257559D01*
X149719972Y-66250578D01*
X149716837Y-66219703D01*
X149717054Y-66188667D01*
X149716086Y-66178801D01*
X149695685Y-65984705D01*
X149682750Y-65921690D01*
X149670688Y-65858460D01*
X149667823Y-65848970D01*
X149610111Y-65662532D01*
X149585171Y-65603203D01*
X149561068Y-65543545D01*
X149556414Y-65534792D01*
X149463589Y-65363115D01*
X149427619Y-65309787D01*
X149392367Y-65255917D01*
X149386101Y-65248235D01*
X149261698Y-65097857D01*
X149216043Y-65052520D01*
X149171013Y-65006537D01*
X149163375Y-65000218D01*
X149012133Y-64876868D01*
X148958546Y-64841266D01*
X148905437Y-64804901D01*
X148896716Y-64800186D01*
X148724394Y-64708561D01*
X148664924Y-64684049D01*
X148605752Y-64658688D01*
X148596282Y-64655757D01*
X148409446Y-64599348D01*
X148346316Y-64586848D01*
X148283377Y-64573470D01*
X148273518Y-64572434D01*
X148079792Y-64553439D01*
X148044877Y-64550000D01*
X121975123Y-64550000D01*
X121944778Y-64552989D01*
X121938667Y-64552946D01*
X121928801Y-64553914D01*
X121734705Y-64574315D01*
X121671690Y-64587250D01*
X121608460Y-64599312D01*
X121598970Y-64602177D01*
X121412532Y-64659889D01*
X121353203Y-64684829D01*
X121293545Y-64708932D01*
X121284792Y-64713586D01*
X121113115Y-64806411D01*
X121059787Y-64842381D01*
X121005917Y-64877633D01*
X120998235Y-64883899D01*
X120847857Y-65008302D01*
X120802520Y-65053957D01*
X120756537Y-65098987D01*
X120750218Y-65106625D01*
X120626868Y-65257867D01*
X120591266Y-65311454D01*
X120554901Y-65364563D01*
X120550186Y-65373284D01*
X120458561Y-65545606D01*
X120434049Y-65605076D01*
X120408688Y-65664248D01*
X120405757Y-65673718D01*
X120349348Y-65860554D01*
X120336848Y-65923684D01*
X120323470Y-65986623D01*
X120322434Y-65996482D01*
X120303389Y-66190715D01*
X120303389Y-66221707D01*
X120300039Y-66252528D01*
X120300004Y-66262441D01*
X118994443Y-66262441D01*
X119071392Y-66007576D01*
X119372525Y-65441227D01*
X119777928Y-64944152D01*
X120272159Y-64535288D01*
X120836389Y-64230210D01*
X121449137Y-64040533D01*
X122120204Y-63970000D01*
X147875279Y-63970000D01*
X148548370Y-64035998D01*
%TA.AperFunction,Conductor*%
D20*
G36*
X148548370Y-64035998D02*
G01*
X149162424Y-64221392D01*
X149728773Y-64522525D01*
X150225848Y-64927928D01*
X150634712Y-65422159D01*
X150939790Y-65986389D01*
X151129467Y-66599137D01*
X151200001Y-67270213D01*
X151200001Y-79157950D01*
X151149362Y-79116392D01*
X150926127Y-78997071D01*
X150683904Y-78923593D01*
X150495123Y-78905000D01*
X149468877Y-78905000D01*
X149280096Y-78923593D01*
X149037873Y-78997071D01*
X148814638Y-79116392D01*
X148618972Y-79276972D01*
X148458392Y-79472638D01*
X148339071Y-79695873D01*
X148265593Y-79938096D01*
X148240783Y-80190000D01*
X148265593Y-80441904D01*
X148291468Y-80527203D01*
X148131140Y-80366875D01*
X147920676Y-80226247D01*
X147686821Y-80129381D01*
X147438561Y-80080000D01*
X147185439Y-80080000D01*
X146937179Y-80129381D01*
X146703324Y-80226247D01*
X146492860Y-80366875D01*
X146313875Y-80545860D01*
X146173247Y-80756324D01*
X146076381Y-80990179D01*
X146027000Y-81238439D01*
X146027000Y-81464541D01*
X145961439Y-81451500D01*
X145757561Y-81451500D01*
X145557602Y-81491274D01*
X145369244Y-81569295D01*
X145199726Y-81682563D01*
X145055563Y-81826726D01*
X144942295Y-81996244D01*
X144864274Y-82184602D01*
X144824500Y-82384561D01*
X144824500Y-82588439D01*
X144864274Y-82788398D01*
X144942295Y-82976756D01*
X145055563Y-83146274D01*
X145199726Y-83290437D01*
X145369244Y-83403705D01*
X145557602Y-83481726D01*
X145757561Y-83521500D01*
X145961439Y-83521500D01*
X146161398Y-83481726D01*
X146349756Y-83403705D01*
X146519274Y-83290437D01*
X146663437Y-83146274D01*
X146776705Y-82976756D01*
X146854726Y-82788398D01*
X146894500Y-82588439D01*
X146894500Y-82582941D01*
X146937179Y-82600619D01*
X147185439Y-82650000D01*
X147438561Y-82650000D01*
X147686821Y-82600619D01*
X147745500Y-82576313D01*
X147745500Y-82588439D01*
X147785274Y-82788398D01*
X147863295Y-82976756D01*
X147976563Y-83146274D01*
X148120726Y-83290437D01*
X148290244Y-83403705D01*
X148478602Y-83481726D01*
X148678561Y-83521500D01*
X148882439Y-83521500D01*
X149082398Y-83481726D01*
X149270756Y-83403705D01*
X149440274Y-83290437D01*
X149584437Y-83146274D01*
X149697705Y-82976756D01*
X149775726Y-82788398D01*
X149815500Y-82588439D01*
X149815500Y-82384561D01*
X149775726Y-82184602D01*
X149697705Y-81996244D01*
X149584437Y-81826726D01*
X149440274Y-81682563D01*
X149270756Y-81569295D01*
X149082398Y-81491274D01*
X148882439Y-81451500D01*
X148678561Y-81451500D01*
X148597000Y-81467723D01*
X148597000Y-81238439D01*
X148554420Y-81024372D01*
X148618972Y-81103028D01*
X148814638Y-81263608D01*
X149037873Y-81382929D01*
X149280096Y-81456407D01*
X149468877Y-81475000D01*
X150495123Y-81475000D01*
X150683904Y-81456407D01*
X150926127Y-81382929D01*
X151149362Y-81263608D01*
X151200001Y-81222050D01*
X151200000Y-86357950D01*
X151149362Y-86316392D01*
X150926127Y-86197071D01*
X150683904Y-86123593D01*
X150495123Y-86105000D01*
X149468877Y-86105000D01*
X149280096Y-86123593D01*
X149037873Y-86197071D01*
X148814638Y-86316392D01*
X148618972Y-86476972D01*
X148554420Y-86555628D01*
X148597000Y-86341561D01*
X148597000Y-86088439D01*
X148547619Y-85840179D01*
X148450753Y-85606324D01*
X148310125Y-85395860D01*
X148131140Y-85216875D01*
X147920676Y-85076247D01*
X147686821Y-84979381D01*
X147438561Y-84930000D01*
X147185439Y-84930000D01*
X146937179Y-84979381D01*
X146703324Y-85076247D01*
X146492860Y-85216875D01*
X146313875Y-85395860D01*
X146173247Y-85606324D01*
X146076381Y-85840179D01*
X146027000Y-86088439D01*
X146027000Y-86341561D01*
X146076381Y-86589821D01*
X146173247Y-86823676D01*
X146313875Y-87034140D01*
X146492860Y-87213125D01*
X146703324Y-87353753D01*
X146937179Y-87450619D01*
X147185439Y-87500000D01*
X147438561Y-87500000D01*
X147686821Y-87450619D01*
X147920676Y-87353753D01*
X148131140Y-87213125D01*
X148291468Y-87052797D01*
X148265593Y-87138096D01*
X148240783Y-87390000D01*
X148265593Y-87641904D01*
X148270496Y-87658067D01*
X148099744Y-87728795D01*
X147930226Y-87842063D01*
X147786063Y-87986226D01*
X147672795Y-88155744D01*
X147594774Y-88344102D01*
X147555000Y-88544061D01*
X147555000Y-88747939D01*
X147594774Y-88947898D01*
X147672795Y-89136256D01*
X147786063Y-89305774D01*
X147930226Y-89449937D01*
X148099744Y-89563205D01*
X148288102Y-89641226D01*
X148488061Y-89681000D01*
X148691939Y-89681000D01*
X148891898Y-89641226D01*
X149080256Y-89563205D01*
X149249774Y-89449937D01*
X149393937Y-89305774D01*
X149507205Y-89136256D01*
X149585226Y-88947898D01*
X149625000Y-88747939D01*
X149625000Y-88675000D01*
X150495123Y-88675000D01*
X150683904Y-88656407D01*
X150926127Y-88582929D01*
X151149362Y-88463608D01*
X151200000Y-88422050D01*
X151200000Y-95459535D01*
X151050898Y-95397774D01*
X150850939Y-95358000D01*
X150647061Y-95358000D01*
X150447102Y-95397774D01*
X150258744Y-95475795D01*
X150089226Y-95589063D01*
X149945063Y-95733226D01*
X149831795Y-95902744D01*
X149753774Y-96091102D01*
X149714000Y-96291061D01*
X149714000Y-96494939D01*
X149753774Y-96694898D01*
X149831795Y-96883256D01*
X149945063Y-97052774D01*
X150089226Y-97196937D01*
X150258744Y-97310205D01*
X150447102Y-97388226D01*
X150647061Y-97428000D01*
X150850939Y-97428000D01*
X151050898Y-97388226D01*
X151200000Y-97326465D01*
X151200000Y-105185280D01*
X151134004Y-105858366D01*
X150948607Y-106472428D01*
X150647474Y-107038775D01*
X150242071Y-107535847D01*
X149747842Y-107944710D01*
X149183611Y-108249790D01*
X148570862Y-108439467D01*
X147899787Y-108510000D01*
X122144720Y-108510000D01*
X121471634Y-108444004D01*
X120857572Y-108258607D01*
X120291225Y-107957474D01*
X119794153Y-107552071D01*
X119385290Y-107057842D01*
X119080210Y-106493611D01*
X118996270Y-106222441D01*
X120300004Y-106222441D01*
X120300028Y-106229422D01*
X120303163Y-106260297D01*
X120302946Y-106291332D01*
X120303914Y-106301198D01*
X120324315Y-106495295D01*
X120337250Y-106558310D01*
X120349312Y-106621540D01*
X120352177Y-106631030D01*
X120409889Y-106817468D01*
X120434829Y-106876797D01*
X120458932Y-106936455D01*
X120463586Y-106945208D01*
X120556411Y-107116885D01*
X120592371Y-107170198D01*
X120627633Y-107224083D01*
X120633898Y-107231765D01*
X120758302Y-107382143D01*
X120803957Y-107427480D01*
X120848987Y-107473463D01*
X120856625Y-107479782D01*
X121007867Y-107603132D01*
X121061487Y-107638757D01*
X121114564Y-107675099D01*
X121123284Y-107679814D01*
X121295606Y-107771439D01*
X121355076Y-107795951D01*
X121414248Y-107821312D01*
X121423718Y-107824243D01*
X121610554Y-107880652D01*
X121673684Y-107893152D01*
X121736623Y-107906530D01*
X121746481Y-107907566D01*
X121940209Y-107926561D01*
X121975123Y-107930000D01*
X148044877Y-107930000D01*
X148075222Y-107927011D01*
X148081332Y-107927054D01*
X148091198Y-107926086D01*
X148285295Y-107905685D01*
X148348310Y-107892750D01*
X148411540Y-107880688D01*
X148421030Y-107877823D01*
X148607468Y-107820111D01*
X148666797Y-107795171D01*
X148726455Y-107771068D01*
X148735208Y-107766414D01*
X148906885Y-107673589D01*
X148960198Y-107637629D01*
X149014083Y-107602367D01*
X149021765Y-107596102D01*
X149172143Y-107471698D01*
X149217480Y-107426043D01*
X149263463Y-107381013D01*
X149269782Y-107373375D01*
X149393132Y-107222133D01*
X149428757Y-107168513D01*
X149465099Y-107115436D01*
X149469814Y-107106716D01*
X149561439Y-106934394D01*
X149585951Y-106874924D01*
X149611312Y-106815752D01*
X149614243Y-106806282D01*
X149670652Y-106619446D01*
X149683152Y-106556316D01*
X149696530Y-106493377D01*
X149697566Y-106483519D01*
X149716611Y-106289285D01*
X149716611Y-106258293D01*
X149719961Y-106227472D01*
X149719996Y-106217559D01*
X149719972Y-106210578D01*
X149716837Y-106179703D01*
X149717054Y-106148667D01*
X149716086Y-106138801D01*
X149695685Y-105944705D01*
X149682750Y-105881690D01*
X149670688Y-105818460D01*
X149667823Y-105808970D01*
X149610111Y-105622532D01*
X149585171Y-105563203D01*
X149561068Y-105503545D01*
X149556414Y-105494792D01*
X149463589Y-105323115D01*
X149427619Y-105269787D01*
X149392367Y-105215917D01*
X149386101Y-105208235D01*
X149261698Y-105057857D01*
X149216043Y-105012520D01*
X149171013Y-104966537D01*
X149163375Y-104960218D01*
X149012133Y-104836868D01*
X148958546Y-104801266D01*
X148905437Y-104764901D01*
X148896716Y-104760186D01*
X148724394Y-104668561D01*
X148664924Y-104644049D01*
X148605752Y-104618688D01*
X148596282Y-104615757D01*
X148409446Y-104559348D01*
X148346316Y-104546848D01*
X148283377Y-104533470D01*
X148273518Y-104532434D01*
X148079792Y-104513439D01*
X148044877Y-104510000D01*
X144138245Y-104510000D01*
X144119128Y-104446980D01*
X144053200Y-104323637D01*
X143964475Y-104215525D01*
X143856363Y-104126800D01*
X143733020Y-104060872D01*
X143599184Y-104020273D01*
X143494877Y-104010000D01*
X127425123Y-104010000D01*
X127320816Y-104020273D01*
X127186980Y-104060872D01*
X127063637Y-104126800D01*
X126955525Y-104215525D01*
X126866800Y-104323637D01*
X126800872Y-104446980D01*
X126781755Y-104510000D01*
X121975123Y-104510000D01*
X121944778Y-104512989D01*
X121938667Y-104512946D01*
X121928801Y-104513914D01*
X121734705Y-104534315D01*
X121671690Y-104547250D01*
X121608460Y-104559312D01*
X121598970Y-104562177D01*
X121412532Y-104619889D01*
X121353203Y-104644829D01*
X121293545Y-104668932D01*
X121284792Y-104673586D01*
X121113115Y-104766411D01*
X121059787Y-104802381D01*
X121005917Y-104837633D01*
X120998235Y-104843899D01*
X120847857Y-104968302D01*
X120802520Y-105013957D01*
X120756537Y-105058987D01*
X120750218Y-105066625D01*
X120626868Y-105217867D01*
X120591266Y-105271454D01*
X120554901Y-105324563D01*
X120550186Y-105333284D01*
X120458561Y-105505606D01*
X120434049Y-105565076D01*
X120408688Y-105624248D01*
X120405757Y-105633718D01*
X120349348Y-105820554D01*
X120336848Y-105883684D01*
X120323470Y-105946623D01*
X120322434Y-105956482D01*
X120303389Y-106150715D01*
X120303389Y-106181707D01*
X120300039Y-106212528D01*
X120300004Y-106222441D01*
X118996270Y-106222441D01*
X118890533Y-105880862D01*
X118820000Y-105209787D01*
X118820000Y-103735335D01*
X148467000Y-103735335D01*
X148467000Y-103909665D01*
X148501010Y-104080645D01*
X148567723Y-104241705D01*
X148664576Y-104386655D01*
X148787845Y-104509924D01*
X148932795Y-104606777D01*
X149093855Y-104673490D01*
X149264835Y-104707500D01*
X149439165Y-104707500D01*
X149610145Y-104673490D01*
X149771205Y-104606777D01*
X149916155Y-104509924D01*
X150039424Y-104386655D01*
X150136277Y-104241705D01*
X150202990Y-104080645D01*
X150237000Y-103909665D01*
X150237000Y-103735335D01*
X150202990Y-103564355D01*
X150136277Y-103403295D01*
X150039424Y-103258345D01*
X149916155Y-103135076D01*
X149771205Y-103038223D01*
X149610145Y-102971510D01*
X149439165Y-102937500D01*
X149264835Y-102937500D01*
X149093855Y-102971510D01*
X148932795Y-103038223D01*
X148787845Y-103135076D01*
X148664576Y-103258345D01*
X148567723Y-103403295D01*
X148501010Y-103564355D01*
X148467000Y-103735335D01*
X118820000Y-103735335D01*
X118820000Y-100867986D01*
X131984000Y-100867986D01*
X131984000Y-101062014D01*
X132021853Y-101252314D01*
X132096104Y-101431572D01*
X132203901Y-101592901D01*
X132341099Y-101730099D01*
X132502428Y-101837896D01*
X132681686Y-101912147D01*
X132871986Y-101950000D01*
X133066014Y-101950000D01*
X133256314Y-101912147D01*
X133435572Y-101837896D01*
X133596901Y-101730099D01*
X133734099Y-101592901D01*
X133841896Y-101431572D01*
X133916147Y-101252314D01*
X133954000Y-101062014D01*
X133954000Y-100867986D01*
X136492500Y-100867986D01*
X136492500Y-101062014D01*
X136530353Y-101252314D01*
X136604604Y-101431572D01*
X136712401Y-101592901D01*
X136849599Y-101730099D01*
X137010928Y-101837896D01*
X137190186Y-101912147D01*
X137380486Y-101950000D01*
X137574514Y-101950000D01*
X137764814Y-101912147D01*
X137944072Y-101837896D01*
X138105401Y-101730099D01*
X138242599Y-101592901D01*
X138350396Y-101431572D01*
X138424647Y-101252314D01*
X138448611Y-101131835D01*
X139069000Y-101131835D01*
X139069000Y-101306165D01*
X139103010Y-101477145D01*
X139169723Y-101638205D01*
X139266576Y-101783155D01*
X139389845Y-101906424D01*
X139534795Y-102003277D01*
X139695855Y-102069990D01*
X139796361Y-102089982D01*
X139738010Y-102230855D01*
X139704000Y-102401835D01*
X139704000Y-102576165D01*
X139738010Y-102747145D01*
X139804723Y-102908205D01*
X139901576Y-103053155D01*
X140024845Y-103176424D01*
X140169795Y-103273277D01*
X140330855Y-103339990D01*
X140501835Y-103374000D01*
X140676165Y-103374000D01*
X140847145Y-103339990D01*
X141008205Y-103273277D01*
X141153155Y-103176424D01*
X141276424Y-103053155D01*
X141373277Y-102908205D01*
X141439990Y-102747145D01*
X141445521Y-102719335D01*
X146181000Y-102719335D01*
X146181000Y-102893665D01*
X146215010Y-103064645D01*
X146281723Y-103225705D01*
X146378576Y-103370655D01*
X146501845Y-103493924D01*
X146646795Y-103590777D01*
X146807855Y-103657490D01*
X146978835Y-103691500D01*
X147153165Y-103691500D01*
X147324145Y-103657490D01*
X147485205Y-103590777D01*
X147630155Y-103493924D01*
X147753424Y-103370655D01*
X147850277Y-103225705D01*
X147916990Y-103064645D01*
X147951000Y-102893665D01*
X147951000Y-102719335D01*
X147916990Y-102548355D01*
X147850277Y-102387295D01*
X147753424Y-102242345D01*
X147630155Y-102119076D01*
X147485205Y-102022223D01*
X147324145Y-101955510D01*
X147153165Y-101921500D01*
X146978835Y-101921500D01*
X146807855Y-101955510D01*
X146646795Y-102022223D01*
X146501845Y-102119076D01*
X146378576Y-102242345D01*
X146281723Y-102387295D01*
X146215010Y-102548355D01*
X146181000Y-102719335D01*
X141445521Y-102719335D01*
X141474000Y-102576165D01*
X141474000Y-102401835D01*
X141439990Y-102230855D01*
X141373277Y-102069795D01*
X141276424Y-101924845D01*
X141153155Y-101801576D01*
X141008205Y-101704723D01*
X140847145Y-101638010D01*
X140746639Y-101618018D01*
X140804990Y-101477145D01*
X140839000Y-101306165D01*
X140839000Y-101131835D01*
X140804990Y-100960855D01*
X140738277Y-100799795D01*
X140641424Y-100654845D01*
X140518155Y-100531576D01*
X140373205Y-100434723D01*
X140212145Y-100368010D01*
X140041165Y-100334000D01*
X139866835Y-100334000D01*
X139695855Y-100368010D01*
X139534795Y-100434723D01*
X139389845Y-100531576D01*
X139266576Y-100654845D01*
X139169723Y-100799795D01*
X139103010Y-100960855D01*
X139069000Y-101131835D01*
X138448611Y-101131835D01*
X138462500Y-101062014D01*
X138462500Y-100867986D01*
X138424647Y-100677686D01*
X138350396Y-100498428D01*
X138242599Y-100337099D01*
X138105401Y-100199901D01*
X137944072Y-100092104D01*
X137764814Y-100017853D01*
X137574514Y-99980000D01*
X137380486Y-99980000D01*
X137190186Y-100017853D01*
X137010928Y-100092104D01*
X136849599Y-100199901D01*
X136712401Y-100337099D01*
X136604604Y-100498428D01*
X136530353Y-100677686D01*
X136492500Y-100867986D01*
X133954000Y-100867986D01*
X133916147Y-100677686D01*
X133841896Y-100498428D01*
X133734099Y-100337099D01*
X133596901Y-100199901D01*
X133435572Y-100092104D01*
X133256314Y-100017853D01*
X133066014Y-99980000D01*
X132871986Y-99980000D01*
X132681686Y-100017853D01*
X132502428Y-100092104D01*
X132341099Y-100199901D01*
X132203901Y-100337099D01*
X132096104Y-100498428D01*
X132021853Y-100677686D01*
X131984000Y-100867986D01*
X118820000Y-100867986D01*
X118820000Y-99021561D01*
X126600000Y-99021561D01*
X126600000Y-99225439D01*
X126639774Y-99425398D01*
X126717795Y-99613756D01*
X126831063Y-99783274D01*
X126975226Y-99927437D01*
X127144744Y-100040705D01*
X127333102Y-100118726D01*
X127533061Y-100158500D01*
X127736939Y-100158500D01*
X127936898Y-100118726D01*
X128125256Y-100040705D01*
X128294774Y-99927437D01*
X128438937Y-99783274D01*
X128552205Y-99613756D01*
X128630226Y-99425398D01*
X128670000Y-99225439D01*
X128670000Y-99021561D01*
X128630226Y-98821602D01*
X128552205Y-98633244D01*
X128482108Y-98528335D01*
X133608000Y-98528335D01*
X133608000Y-98702665D01*
X133642010Y-98873645D01*
X133708723Y-99034705D01*
X133805576Y-99179655D01*
X133928845Y-99302924D01*
X134073795Y-99399777D01*
X134234855Y-99466490D01*
X134405835Y-99500500D01*
X134580165Y-99500500D01*
X134751145Y-99466490D01*
X134912205Y-99399777D01*
X135057155Y-99302924D01*
X135180424Y-99179655D01*
X135277277Y-99034705D01*
X135343990Y-98873645D01*
X135378000Y-98702665D01*
X135378000Y-98528335D01*
X144720500Y-98528335D01*
X144720500Y-98702665D01*
X144754510Y-98873645D01*
X144821223Y-99034705D01*
X144918076Y-99179655D01*
X145041345Y-99302924D01*
X145186295Y-99399777D01*
X145347355Y-99466490D01*
X145518335Y-99500500D01*
X145692665Y-99500500D01*
X145863645Y-99466490D01*
X146024705Y-99399777D01*
X146169655Y-99302924D01*
X146292924Y-99179655D01*
X146389777Y-99034705D01*
X146456490Y-98873645D01*
X146490500Y-98702665D01*
X146490500Y-98528335D01*
X146456490Y-98357355D01*
X146389777Y-98196295D01*
X146292924Y-98051345D01*
X146169655Y-97928076D01*
X146024705Y-97831223D01*
X145863645Y-97764510D01*
X145692665Y-97730500D01*
X145518335Y-97730500D01*
X145347355Y-97764510D01*
X145186295Y-97831223D01*
X145041345Y-97928076D01*
X144918076Y-98051345D01*
X144821223Y-98196295D01*
X144754510Y-98357355D01*
X144720500Y-98528335D01*
X135378000Y-98528335D01*
X135343990Y-98357355D01*
X135277277Y-98196295D01*
X135180424Y-98051345D01*
X135057155Y-97928076D01*
X134912205Y-97831223D01*
X134751145Y-97764510D01*
X134580165Y-97730500D01*
X134405835Y-97730500D01*
X134234855Y-97764510D01*
X134073795Y-97831223D01*
X133928845Y-97928076D01*
X133805576Y-98051345D01*
X133708723Y-98196295D01*
X133642010Y-98357355D01*
X133608000Y-98528335D01*
X128482108Y-98528335D01*
X128438937Y-98463726D01*
X128294774Y-98319563D01*
X128125256Y-98206295D01*
X127936898Y-98128274D01*
X127736939Y-98088500D01*
X127533061Y-98088500D01*
X127333102Y-98128274D01*
X127144744Y-98206295D01*
X126975226Y-98319563D01*
X126831063Y-98463726D01*
X126717795Y-98633244D01*
X126639774Y-98821602D01*
X126600000Y-99021561D01*
X118820000Y-99021561D01*
X118820000Y-96867486D01*
X128301000Y-96867486D01*
X128301000Y-97061514D01*
X128338853Y-97251814D01*
X128413104Y-97431072D01*
X128520901Y-97592401D01*
X128658099Y-97729599D01*
X128819428Y-97837396D01*
X128998686Y-97911647D01*
X129188986Y-97949500D01*
X129383014Y-97949500D01*
X129573314Y-97911647D01*
X129752572Y-97837396D01*
X129913901Y-97729599D01*
X130051099Y-97592401D01*
X130158896Y-97431072D01*
X130233147Y-97251814D01*
X130271000Y-97061514D01*
X130271000Y-96867486D01*
X130233147Y-96677186D01*
X130158896Y-96497928D01*
X130051099Y-96336599D01*
X129913901Y-96199401D01*
X129752572Y-96091604D01*
X129573314Y-96017353D01*
X129383014Y-95979500D01*
X129188986Y-95979500D01*
X128998686Y-96017353D01*
X128819428Y-96091604D01*
X128658099Y-96199401D01*
X128520901Y-96336599D01*
X128413104Y-96497928D01*
X128338853Y-96677186D01*
X128301000Y-96867486D01*
X118820000Y-96867486D01*
X118820000Y-95148061D01*
X125901500Y-95148061D01*
X125901500Y-95351939D01*
X125941274Y-95551898D01*
X126019295Y-95740256D01*
X126132563Y-95909774D01*
X126276726Y-96053937D01*
X126446244Y-96167205D01*
X126634602Y-96245226D01*
X126834561Y-96285000D01*
X127038439Y-96285000D01*
X127238398Y-96245226D01*
X127426756Y-96167205D01*
X127596274Y-96053937D01*
X127740437Y-95909774D01*
X127853705Y-95740256D01*
X127931726Y-95551898D01*
X127933329Y-95543835D01*
X130179000Y-95543835D01*
X130179000Y-95718165D01*
X130213010Y-95889145D01*
X130279723Y-96050205D01*
X130376576Y-96195155D01*
X130499845Y-96318424D01*
X130644795Y-96415277D01*
X130674821Y-96427714D01*
X130650500Y-96549986D01*
X130650500Y-96744014D01*
X130688353Y-96934314D01*
X130762604Y-97113572D01*
X130870401Y-97274901D01*
X131007599Y-97412099D01*
X131168928Y-97519896D01*
X131348186Y-97594147D01*
X131538486Y-97632000D01*
X131732514Y-97632000D01*
X131922814Y-97594147D01*
X132058464Y-97537959D01*
X132097744Y-97564205D01*
X132286102Y-97642226D01*
X132486061Y-97682000D01*
X132689939Y-97682000D01*
X132889898Y-97642226D01*
X133078256Y-97564205D01*
X133093236Y-97554196D01*
X133189686Y-97594147D01*
X133379986Y-97632000D01*
X133574014Y-97632000D01*
X133764314Y-97594147D01*
X133943572Y-97519896D01*
X134104901Y-97412099D01*
X134242099Y-97274901D01*
X134349896Y-97113572D01*
X134424147Y-96934314D01*
X134462000Y-96744014D01*
X134462000Y-96549986D01*
X134424147Y-96359686D01*
X134349896Y-96180428D01*
X134242099Y-96019099D01*
X134104901Y-95881901D01*
X133943572Y-95774104D01*
X133764314Y-95699853D01*
X133574014Y-95662000D01*
X133379986Y-95662000D01*
X133189686Y-95699853D01*
X133093236Y-95739804D01*
X133078256Y-95729795D01*
X132889898Y-95651774D01*
X132689939Y-95612000D01*
X132486061Y-95612000D01*
X132286102Y-95651774D01*
X132097744Y-95729795D01*
X132058464Y-95756041D01*
X131949000Y-95710700D01*
X131949000Y-95543835D01*
X131914990Y-95372855D01*
X131848277Y-95211795D01*
X131751424Y-95066845D01*
X131628155Y-94943576D01*
X131483205Y-94846723D01*
X131322145Y-94780010D01*
X131151165Y-94746000D01*
X130976835Y-94746000D01*
X130805855Y-94780010D01*
X130644795Y-94846723D01*
X130499845Y-94943576D01*
X130376576Y-95066845D01*
X130279723Y-95211795D01*
X130213010Y-95372855D01*
X130179000Y-95543835D01*
X127933329Y-95543835D01*
X127971500Y-95351939D01*
X127971500Y-95148061D01*
X127962167Y-95101139D01*
X128101572Y-95043396D01*
X128262901Y-94935599D01*
X128400099Y-94798401D01*
X128507896Y-94637072D01*
X128582147Y-94457814D01*
X128620000Y-94267514D01*
X128620000Y-94073486D01*
X128582147Y-93883186D01*
X128580025Y-93878061D01*
X143840250Y-93878061D01*
X143840250Y-94081939D01*
X143880024Y-94281898D01*
X143958045Y-94470256D01*
X144071313Y-94639774D01*
X144215476Y-94783937D01*
X144384994Y-94897205D01*
X144573352Y-94975226D01*
X144773311Y-95015000D01*
X144977189Y-95015000D01*
X145177148Y-94975226D01*
X145365506Y-94897205D01*
X145535024Y-94783937D01*
X145679187Y-94639774D01*
X145792455Y-94470256D01*
X145870476Y-94281898D01*
X145910250Y-94081939D01*
X145910250Y-93878061D01*
X145870476Y-93678102D01*
X145792455Y-93489744D01*
X145679187Y-93320226D01*
X145535024Y-93176063D01*
X145365506Y-93062795D01*
X145177148Y-92984774D01*
X144977189Y-92945000D01*
X144773311Y-92945000D01*
X144573352Y-92984774D01*
X144384994Y-93062795D01*
X144215476Y-93176063D01*
X144071313Y-93320226D01*
X143958045Y-93489744D01*
X143880024Y-93678102D01*
X143840250Y-93878061D01*
X128580025Y-93878061D01*
X128507896Y-93703928D01*
X128400099Y-93542599D01*
X128262901Y-93405401D01*
X128101572Y-93297604D01*
X127922314Y-93223353D01*
X127732014Y-93185500D01*
X127537986Y-93185500D01*
X127347686Y-93223353D01*
X127168428Y-93297604D01*
X127007099Y-93405401D01*
X126869901Y-93542599D01*
X126762104Y-93703928D01*
X126687853Y-93883186D01*
X126650000Y-94073486D01*
X126650000Y-94251711D01*
X126634602Y-94254774D01*
X126446244Y-94332795D01*
X126276726Y-94446063D01*
X126132563Y-94590226D01*
X126019295Y-94759744D01*
X125941274Y-94948102D01*
X125901500Y-95148061D01*
X118820000Y-95148061D01*
X118820000Y-94472377D01*
X118994061Y-94507000D01*
X119197939Y-94507000D01*
X119397898Y-94467226D01*
X119586256Y-94389205D01*
X119755774Y-94275937D01*
X119899937Y-94131774D01*
X120013205Y-93962256D01*
X120091226Y-93773898D01*
X120131000Y-93573939D01*
X120131000Y-93370061D01*
X120661000Y-93370061D01*
X120661000Y-93573939D01*
X120700774Y-93773898D01*
X120778795Y-93962256D01*
X120892063Y-94131774D01*
X121036226Y-94275937D01*
X121205744Y-94389205D01*
X121394102Y-94467226D01*
X121594061Y-94507000D01*
X121797939Y-94507000D01*
X121997898Y-94467226D01*
X122186256Y-94389205D01*
X122355774Y-94275937D01*
X122499937Y-94131774D01*
X122613205Y-93962256D01*
X122691226Y-93773898D01*
X122731000Y-93573939D01*
X122731000Y-93370061D01*
X122691226Y-93170102D01*
X122613205Y-92981744D01*
X122499937Y-92812226D01*
X122355774Y-92668063D01*
X122186256Y-92554795D01*
X121997898Y-92476774D01*
X121797939Y-92437000D01*
X121594061Y-92437000D01*
X121394102Y-92476774D01*
X121205744Y-92554795D01*
X121036226Y-92668063D01*
X120892063Y-92812226D01*
X120778795Y-92981744D01*
X120700774Y-93170102D01*
X120661000Y-93370061D01*
X120131000Y-93370061D01*
X120091226Y-93170102D01*
X120013205Y-92981744D01*
X119899937Y-92812226D01*
X119755774Y-92668063D01*
X119586256Y-92554795D01*
X119397898Y-92476774D01*
X119197939Y-92437000D01*
X118994061Y-92437000D01*
X118820000Y-92471623D01*
X118820000Y-92192003D01*
X128159458Y-92192003D01*
X128159458Y-92366333D01*
X128193468Y-92537313D01*
X128260181Y-92698373D01*
X128357034Y-92843323D01*
X128480303Y-92966592D01*
X128625253Y-93063445D01*
X128786313Y-93130158D01*
X128957293Y-93164168D01*
X129131623Y-93164168D01*
X129302603Y-93130158D01*
X129463663Y-93063445D01*
X129608613Y-92966592D01*
X129731882Y-92843323D01*
X129828735Y-92698373D01*
X129895448Y-92537313D01*
X129929458Y-92366333D01*
X129929458Y-92192003D01*
X129895448Y-92021023D01*
X129828735Y-91859963D01*
X129822737Y-91850986D01*
X131031500Y-91850986D01*
X131031500Y-92045014D01*
X131069353Y-92235314D01*
X131143604Y-92414572D01*
X131251401Y-92575901D01*
X131388599Y-92713099D01*
X131549928Y-92820896D01*
X131729186Y-92895147D01*
X131919486Y-92933000D01*
X132113514Y-92933000D01*
X132303814Y-92895147D01*
X132483072Y-92820896D01*
X132644401Y-92713099D01*
X132781599Y-92575901D01*
X132889396Y-92414572D01*
X132963647Y-92235314D01*
X133001500Y-92045014D01*
X133001500Y-91850986D01*
X132963647Y-91660686D01*
X132889396Y-91481428D01*
X132781599Y-91320099D01*
X132644401Y-91182901D01*
X132483072Y-91075104D01*
X132303814Y-91000853D01*
X132285626Y-90997235D01*
X133862000Y-90997235D01*
X133862000Y-91171565D01*
X133896010Y-91342545D01*
X133962723Y-91503605D01*
X134059576Y-91648555D01*
X134182845Y-91771824D01*
X134327795Y-91868677D01*
X134488855Y-91935390D01*
X134659835Y-91969400D01*
X134834165Y-91969400D01*
X135005145Y-91935390D01*
X135166205Y-91868677D01*
X135287715Y-91787486D01*
X138016500Y-91787486D01*
X138016500Y-91981514D01*
X138054353Y-92171814D01*
X138128604Y-92351072D01*
X138236401Y-92512401D01*
X138373599Y-92649599D01*
X138534928Y-92757396D01*
X138714186Y-92831647D01*
X138904486Y-92869500D01*
X139098514Y-92869500D01*
X139288814Y-92831647D01*
X139468072Y-92757396D01*
X139629401Y-92649599D01*
X139766599Y-92512401D01*
X139874396Y-92351072D01*
X139948647Y-92171814D01*
X139986500Y-91981514D01*
X139986500Y-91787486D01*
X139948647Y-91597186D01*
X139874396Y-91417928D01*
X139821031Y-91338061D01*
X142665500Y-91338061D01*
X142665500Y-91541939D01*
X142705274Y-91741898D01*
X142783295Y-91930256D01*
X142896563Y-92099774D01*
X143040726Y-92243937D01*
X143210244Y-92357205D01*
X143398602Y-92435226D01*
X143598561Y-92475000D01*
X143802439Y-92475000D01*
X144002398Y-92435226D01*
X144190756Y-92357205D01*
X144360274Y-92243937D01*
X144374298Y-92229913D01*
X144434295Y-92374756D01*
X144547563Y-92544274D01*
X144691726Y-92688437D01*
X144861244Y-92801705D01*
X145049602Y-92879726D01*
X145249561Y-92919500D01*
X145453439Y-92919500D01*
X145653398Y-92879726D01*
X145841756Y-92801705D01*
X146011274Y-92688437D01*
X146155437Y-92544274D01*
X146268705Y-92374756D01*
X146346726Y-92186398D01*
X146386500Y-91986439D01*
X146386500Y-91782561D01*
X146346726Y-91582602D01*
X146268705Y-91394244D01*
X146155437Y-91224726D01*
X146011274Y-91080563D01*
X145841756Y-90967295D01*
X145653398Y-90889274D01*
X145453439Y-90849500D01*
X145249561Y-90849500D01*
X145049602Y-90889274D01*
X144861244Y-90967295D01*
X144691726Y-91080563D01*
X144677702Y-91094587D01*
X144617705Y-90949744D01*
X144504437Y-90780226D01*
X144360274Y-90636063D01*
X144190756Y-90522795D01*
X144002398Y-90444774D01*
X143802439Y-90405000D01*
X143598561Y-90405000D01*
X143398602Y-90444774D01*
X143210244Y-90522795D01*
X143040726Y-90636063D01*
X142896563Y-90780226D01*
X142783295Y-90949744D01*
X142705274Y-91138102D01*
X142665500Y-91338061D01*
X139821031Y-91338061D01*
X139766599Y-91256599D01*
X139629401Y-91119401D01*
X139468072Y-91011604D01*
X139288814Y-90937353D01*
X139098514Y-90899500D01*
X138904486Y-90899500D01*
X138714186Y-90937353D01*
X138534928Y-91011604D01*
X138373599Y-91119401D01*
X138236401Y-91256599D01*
X138128604Y-91417928D01*
X138054353Y-91597186D01*
X138016500Y-91787486D01*
X135287715Y-91787486D01*
X135311155Y-91771824D01*
X135434424Y-91648555D01*
X135531277Y-91503605D01*
X135597990Y-91342545D01*
X135632000Y-91171565D01*
X135632000Y-90997235D01*
X135597990Y-90826255D01*
X135531277Y-90665195D01*
X135434424Y-90520245D01*
X135311155Y-90396976D01*
X135166205Y-90300123D01*
X135005145Y-90233410D01*
X134834165Y-90199400D01*
X134659835Y-90199400D01*
X134488855Y-90233410D01*
X134327795Y-90300123D01*
X134182845Y-90396976D01*
X134059576Y-90520245D01*
X133962723Y-90665195D01*
X133896010Y-90826255D01*
X133862000Y-90997235D01*
X132285626Y-90997235D01*
X132113514Y-90963000D01*
X131919486Y-90963000D01*
X131729186Y-91000853D01*
X131549928Y-91075104D01*
X131388599Y-91182901D01*
X131251401Y-91320099D01*
X131143604Y-91481428D01*
X131069353Y-91660686D01*
X131031500Y-91850986D01*
X129822737Y-91850986D01*
X129731882Y-91715013D01*
X129608613Y-91591744D01*
X129463663Y-91494891D01*
X129302603Y-91428178D01*
X129131623Y-91394168D01*
X128957293Y-91394168D01*
X128786313Y-91428178D01*
X128625253Y-91494891D01*
X128480303Y-91591744D01*
X128357034Y-91715013D01*
X128260181Y-91859963D01*
X128193468Y-92021023D01*
X128159458Y-92192003D01*
X118820000Y-92192003D01*
X118820000Y-90195061D01*
X127616000Y-90195061D01*
X127616000Y-90398939D01*
X127655774Y-90598898D01*
X127733795Y-90787256D01*
X127847063Y-90956774D01*
X127991226Y-91100937D01*
X128160744Y-91214205D01*
X128349102Y-91292226D01*
X128549061Y-91332000D01*
X128752939Y-91332000D01*
X128952898Y-91292226D01*
X129141256Y-91214205D01*
X129310774Y-91100937D01*
X129454937Y-90956774D01*
X129568205Y-90787256D01*
X129646226Y-90598898D01*
X129686000Y-90398939D01*
X129686000Y-90195061D01*
X129646226Y-89995102D01*
X129568205Y-89806744D01*
X129454937Y-89637226D01*
X129310774Y-89493063D01*
X129141256Y-89379795D01*
X128952898Y-89301774D01*
X128752939Y-89262000D01*
X128549061Y-89262000D01*
X128349102Y-89301774D01*
X128160744Y-89379795D01*
X127991226Y-89493063D01*
X127847063Y-89637226D01*
X127733795Y-89806744D01*
X127655774Y-89995102D01*
X127616000Y-90195061D01*
X118820000Y-90195061D01*
X118820000Y-88988561D01*
X124123500Y-88988561D01*
X124123500Y-89192439D01*
X124163274Y-89392398D01*
X124241295Y-89580756D01*
X124354563Y-89750274D01*
X124498726Y-89894437D01*
X124668244Y-90007705D01*
X124856602Y-90085726D01*
X125056561Y-90125500D01*
X125260439Y-90125500D01*
X125460398Y-90085726D01*
X125648756Y-90007705D01*
X125818274Y-89894437D01*
X125962437Y-89750274D01*
X126075705Y-89580756D01*
X126153726Y-89392398D01*
X126193500Y-89192439D01*
X126193500Y-88988561D01*
X126153726Y-88788602D01*
X126075705Y-88600244D01*
X125962437Y-88430726D01*
X125818274Y-88286563D01*
X125648756Y-88173295D01*
X125460398Y-88095274D01*
X125260439Y-88055500D01*
X125056561Y-88055500D01*
X124856602Y-88095274D01*
X124668244Y-88173295D01*
X124498726Y-88286563D01*
X124354563Y-88430726D01*
X124241295Y-88600244D01*
X124163274Y-88788602D01*
X124123500Y-88988561D01*
X118820000Y-88988561D01*
X118820000Y-85051561D01*
X119678500Y-85051561D01*
X119678500Y-85255439D01*
X119718274Y-85455398D01*
X119796295Y-85643756D01*
X119909563Y-85813274D01*
X120053726Y-85957437D01*
X120223244Y-86070705D01*
X120411602Y-86148726D01*
X120479000Y-86162132D01*
X120479000Y-86353401D01*
X120519735Y-86558191D01*
X120526862Y-86575397D01*
X120524498Y-86579820D01*
X120488188Y-86699518D01*
X120475928Y-86824000D01*
X120475928Y-87674000D01*
X120488188Y-87798482D01*
X120524498Y-87918180D01*
X120583463Y-88028494D01*
X120662815Y-88125185D01*
X120759506Y-88204537D01*
X120869820Y-88263502D01*
X120989518Y-88299812D01*
X121114000Y-88312072D01*
X121964000Y-88312072D01*
X122088482Y-88299812D01*
X122208180Y-88263502D01*
X122318494Y-88204537D01*
X122415185Y-88125185D01*
X122494537Y-88028494D01*
X122553502Y-87918180D01*
X122589812Y-87798482D01*
X122602072Y-87674000D01*
X122602072Y-87591561D01*
X137141000Y-87591561D01*
X137141000Y-87795439D01*
X137180774Y-87995398D01*
X137258795Y-88183756D01*
X137372063Y-88353274D01*
X137516226Y-88497437D01*
X137685744Y-88610705D01*
X137874102Y-88688726D01*
X138074061Y-88728500D01*
X138277939Y-88728500D01*
X138477898Y-88688726D01*
X138666256Y-88610705D01*
X138835774Y-88497437D01*
X138979937Y-88353274D01*
X139093205Y-88183756D01*
X139171226Y-87995398D01*
X139211000Y-87795439D01*
X139211000Y-87591561D01*
X139171226Y-87391602D01*
X139093205Y-87203244D01*
X138979937Y-87033726D01*
X138835774Y-86889563D01*
X138666256Y-86776295D01*
X138477898Y-86698274D01*
X138277939Y-86658500D01*
X138074061Y-86658500D01*
X137874102Y-86698274D01*
X137685744Y-86776295D01*
X137516226Y-86889563D01*
X137372063Y-87033726D01*
X137258795Y-87203244D01*
X137180774Y-87391602D01*
X137141000Y-87591561D01*
X122602072Y-87591561D01*
X122602072Y-86824000D01*
X122589812Y-86699518D01*
X122553502Y-86579820D01*
X122551138Y-86575397D01*
X122558265Y-86558191D01*
X122599000Y-86353401D01*
X122599000Y-86144599D01*
X122558265Y-85939809D01*
X122479229Y-85749000D01*
X122558265Y-85558191D01*
X122583254Y-85432561D01*
X130346500Y-85432561D01*
X130346500Y-85636439D01*
X130386274Y-85836398D01*
X130464295Y-86024756D01*
X130577563Y-86194274D01*
X130721726Y-86338437D01*
X130891244Y-86451705D01*
X131079602Y-86529726D01*
X131279561Y-86569500D01*
X131483439Y-86569500D01*
X131683398Y-86529726D01*
X131871756Y-86451705D01*
X132041274Y-86338437D01*
X132185437Y-86194274D01*
X132298705Y-86024756D01*
X132376726Y-85836398D01*
X132416500Y-85636439D01*
X132416500Y-85432561D01*
X132376726Y-85232602D01*
X132298705Y-85044244D01*
X132185437Y-84874726D01*
X132041274Y-84730563D01*
X131871756Y-84617295D01*
X131683398Y-84539274D01*
X131483439Y-84499500D01*
X131279561Y-84499500D01*
X131079602Y-84539274D01*
X130891244Y-84617295D01*
X130721726Y-84730563D01*
X130577563Y-84874726D01*
X130464295Y-85044244D01*
X130386274Y-85232602D01*
X130346500Y-85432561D01*
X122583254Y-85432561D01*
X122599000Y-85353401D01*
X122599000Y-85144599D01*
X122558265Y-84939809D01*
X122478360Y-84746902D01*
X122475006Y-84741882D01*
X122547872Y-84574250D01*
X122558540Y-84539062D01*
X122431257Y-84376000D01*
X122140413Y-84376000D01*
X122041098Y-84309640D01*
X121848191Y-84229735D01*
X121643401Y-84189000D01*
X121434599Y-84189000D01*
X121392000Y-84197473D01*
X121392000Y-84122000D01*
X121412000Y-84122000D01*
X121412000Y-83355379D01*
X121666000Y-83355379D01*
X121666000Y-84122000D01*
X122431257Y-84122000D01*
X122558540Y-83958938D01*
X122547872Y-83923750D01*
X122465034Y-83733178D01*
X122346609Y-83562429D01*
X122197148Y-83418064D01*
X122022394Y-83305632D01*
X121829064Y-83229453D01*
X121666000Y-83355379D01*
X121412000Y-83355379D01*
X121248936Y-83229453D01*
X121055606Y-83305632D01*
X120880852Y-83418064D01*
X120731391Y-83562429D01*
X120612966Y-83733178D01*
X120530128Y-83923750D01*
X120519460Y-83958938D01*
X120644011Y-84118500D01*
X120611561Y-84118500D01*
X120593975Y-84121998D01*
X120479000Y-84121998D01*
X120479000Y-84144868D01*
X120411602Y-84158274D01*
X120223244Y-84236295D01*
X120053726Y-84349563D01*
X119909563Y-84493726D01*
X119796295Y-84663244D01*
X119718274Y-84851602D01*
X119678500Y-85051561D01*
X118820000Y-85051561D01*
X118820000Y-82688325D01*
X130787337Y-82688325D01*
X130787337Y-82892203D01*
X130827111Y-83092162D01*
X130905132Y-83280520D01*
X131018400Y-83450038D01*
X131162563Y-83594201D01*
X131332081Y-83707469D01*
X131520439Y-83785490D01*
X131720398Y-83825264D01*
X131924276Y-83825264D01*
X132124235Y-83785490D01*
X132312593Y-83707469D01*
X132482111Y-83594201D01*
X132626274Y-83450038D01*
X132739542Y-83280520D01*
X132817563Y-83092162D01*
X132844634Y-82956061D01*
X132950000Y-82956061D01*
X132950000Y-83159939D01*
X132989774Y-83359898D01*
X133067795Y-83548256D01*
X133181063Y-83717774D01*
X133325226Y-83861937D01*
X133494744Y-83975205D01*
X133683102Y-84053226D01*
X133883061Y-84093000D01*
X134086939Y-84093000D01*
X134286898Y-84053226D01*
X134475256Y-83975205D01*
X134644774Y-83861937D01*
X134788937Y-83717774D01*
X134902205Y-83548256D01*
X134980226Y-83359898D01*
X135020000Y-83159939D01*
X135020000Y-82956061D01*
X134980226Y-82756102D01*
X134902205Y-82567744D01*
X134788937Y-82398226D01*
X134769211Y-82378500D01*
X134784441Y-82378500D01*
X134984400Y-82338726D01*
X135172758Y-82260705D01*
X135204181Y-82239709D01*
X135212274Y-82280398D01*
X135290295Y-82468756D01*
X135403563Y-82638274D01*
X135547726Y-82782437D01*
X135717244Y-82895705D01*
X135905602Y-82973726D01*
X136105561Y-83013500D01*
X136309439Y-83013500D01*
X136509398Y-82973726D01*
X136697756Y-82895705D01*
X136867274Y-82782437D01*
X137011437Y-82638274D01*
X137074060Y-82544551D01*
X142190490Y-82544551D01*
X142190490Y-82748429D01*
X142230264Y-82948388D01*
X142308285Y-83136746D01*
X142421553Y-83306264D01*
X142565716Y-83450427D01*
X142735234Y-83563695D01*
X142923592Y-83641716D01*
X143123551Y-83681490D01*
X143327429Y-83681490D01*
X143527388Y-83641716D01*
X143715746Y-83563695D01*
X143885264Y-83450427D01*
X144029427Y-83306264D01*
X144142695Y-83136746D01*
X144220716Y-82948388D01*
X144260490Y-82748429D01*
X144260490Y-82544551D01*
X144220716Y-82344592D01*
X144142695Y-82156234D01*
X144054059Y-82023581D01*
X144065898Y-82021226D01*
X144254256Y-81943205D01*
X144423774Y-81829937D01*
X144567937Y-81685774D01*
X144681205Y-81516256D01*
X144759226Y-81327898D01*
X144799000Y-81127939D01*
X144799000Y-80924061D01*
X144759226Y-80724102D01*
X144681205Y-80535744D01*
X144567937Y-80366226D01*
X144423774Y-80222063D01*
X144254256Y-80108795D01*
X144065898Y-80030774D01*
X143865939Y-79991000D01*
X143662061Y-79991000D01*
X143462102Y-80030774D01*
X143273744Y-80108795D01*
X143104226Y-80222063D01*
X142960063Y-80366226D01*
X142846795Y-80535744D01*
X142768774Y-80724102D01*
X142729000Y-80924061D01*
X142729000Y-81127939D01*
X142768774Y-81327898D01*
X142846795Y-81516256D01*
X142935431Y-81648909D01*
X142923592Y-81651264D01*
X142735234Y-81729285D01*
X142565716Y-81842553D01*
X142421553Y-81986716D01*
X142308285Y-82156234D01*
X142230264Y-82344592D01*
X142190490Y-82544551D01*
X137074060Y-82544551D01*
X137124705Y-82468756D01*
X137202726Y-82280398D01*
X137242500Y-82080439D01*
X137242500Y-81876561D01*
X137202726Y-81676602D01*
X137124705Y-81488244D01*
X137011437Y-81318726D01*
X136867274Y-81174563D01*
X136697756Y-81061295D01*
X136509398Y-80983274D01*
X136309439Y-80943500D01*
X136105561Y-80943500D01*
X135905602Y-80983274D01*
X135717244Y-81061295D01*
X135685821Y-81082291D01*
X135677728Y-81041602D01*
X135599707Y-80853244D01*
X135486439Y-80683726D01*
X135342276Y-80539563D01*
X135254078Y-80480631D01*
X135421835Y-80514000D01*
X135596165Y-80514000D01*
X135767145Y-80479990D01*
X135928205Y-80413277D01*
X136073155Y-80316424D01*
X136196424Y-80193155D01*
X136293277Y-80048205D01*
X136359990Y-79887145D01*
X136394000Y-79716165D01*
X136394000Y-79541835D01*
X136359990Y-79370855D01*
X136293277Y-79209795D01*
X136196424Y-79064845D01*
X136073155Y-78941576D01*
X135928205Y-78844723D01*
X135767145Y-78778010D01*
X135596165Y-78744000D01*
X135421835Y-78744000D01*
X135250855Y-78778010D01*
X135089795Y-78844723D01*
X134944845Y-78941576D01*
X134821576Y-79064845D01*
X134724723Y-79209795D01*
X134658010Y-79370855D01*
X134624000Y-79541835D01*
X134624000Y-79716165D01*
X134658010Y-79887145D01*
X134724723Y-80048205D01*
X134821576Y-80193155D01*
X134944845Y-80316424D01*
X135005742Y-80357114D01*
X134984400Y-80348274D01*
X134784441Y-80308500D01*
X134580563Y-80308500D01*
X134380604Y-80348274D01*
X134192246Y-80426295D01*
X134022728Y-80539563D01*
X133878565Y-80683726D01*
X133765297Y-80853244D01*
X133687276Y-81041602D01*
X133647502Y-81241561D01*
X133647502Y-81445439D01*
X133687276Y-81645398D01*
X133765297Y-81833756D01*
X133878565Y-82003274D01*
X133898291Y-82023000D01*
X133883061Y-82023000D01*
X133683102Y-82062774D01*
X133494744Y-82140795D01*
X133325226Y-82254063D01*
X133181063Y-82398226D01*
X133067795Y-82567744D01*
X132989774Y-82756102D01*
X132950000Y-82956061D01*
X132844634Y-82956061D01*
X132857337Y-82892203D01*
X132857337Y-82688325D01*
X132817563Y-82488366D01*
X132739542Y-82300008D01*
X132626274Y-82130490D01*
X132482111Y-81986327D01*
X132312593Y-81873059D01*
X132124235Y-81795038D01*
X131924276Y-81755264D01*
X131720398Y-81755264D01*
X131520439Y-81795038D01*
X131332081Y-81873059D01*
X131162563Y-81986327D01*
X131018400Y-82130490D01*
X130905132Y-82300008D01*
X130827111Y-82488366D01*
X130787337Y-82688325D01*
X118820000Y-82688325D01*
X118820000Y-80543061D01*
X126600000Y-80543061D01*
X126600000Y-80746939D01*
X126639774Y-80946898D01*
X126717795Y-81135256D01*
X126831063Y-81304774D01*
X126975226Y-81448937D01*
X127144744Y-81562205D01*
X127333102Y-81640226D01*
X127533061Y-81680000D01*
X127736939Y-81680000D01*
X127936898Y-81640226D01*
X128125256Y-81562205D01*
X128294774Y-81448937D01*
X128438937Y-81304774D01*
X128552205Y-81135256D01*
X128630226Y-80946898D01*
X128670000Y-80746939D01*
X128670000Y-80543061D01*
X128630226Y-80343102D01*
X128552205Y-80154744D01*
X128438937Y-79985226D01*
X128294774Y-79841063D01*
X128125256Y-79727795D01*
X127936898Y-79649774D01*
X127736939Y-79610000D01*
X127533061Y-79610000D01*
X127333102Y-79649774D01*
X127144744Y-79727795D01*
X126975226Y-79841063D01*
X126831063Y-79985226D01*
X126717795Y-80154744D01*
X126639774Y-80343102D01*
X126600000Y-80543061D01*
X118820000Y-80543061D01*
X118820000Y-79590561D01*
X132251500Y-79590561D01*
X132251500Y-79794439D01*
X132291274Y-79994398D01*
X132369295Y-80182756D01*
X132482563Y-80352274D01*
X132626726Y-80496437D01*
X132796244Y-80609705D01*
X132984602Y-80687726D01*
X133184561Y-80727500D01*
X133388439Y-80727500D01*
X133588398Y-80687726D01*
X133776756Y-80609705D01*
X133946274Y-80496437D01*
X134090437Y-80352274D01*
X134203705Y-80182756D01*
X134281726Y-79994398D01*
X134321500Y-79794439D01*
X134321500Y-79590561D01*
X134281726Y-79390602D01*
X134203705Y-79202244D01*
X134090437Y-79032726D01*
X133946274Y-78888563D01*
X133776756Y-78775295D01*
X133588398Y-78697274D01*
X133388439Y-78657500D01*
X133184561Y-78657500D01*
X132984602Y-78697274D01*
X132796244Y-78775295D01*
X132626726Y-78888563D01*
X132482563Y-79032726D01*
X132369295Y-79202244D01*
X132291274Y-79390602D01*
X132251500Y-79590561D01*
X118820000Y-79590561D01*
X118820000Y-78208335D01*
X140783500Y-78208335D01*
X140783500Y-78382665D01*
X140817510Y-78553645D01*
X140884223Y-78714705D01*
X140981076Y-78859655D01*
X141104345Y-78982924D01*
X141249295Y-79079777D01*
X141410355Y-79146490D01*
X141581335Y-79180500D01*
X141755665Y-79180500D01*
X141926645Y-79146490D01*
X142087705Y-79079777D01*
X142232655Y-78982924D01*
X142355924Y-78859655D01*
X142452777Y-78714705D01*
X142504706Y-78589335D01*
X143323500Y-78589335D01*
X143323500Y-78763665D01*
X143357510Y-78934645D01*
X143424223Y-79095705D01*
X143521076Y-79240655D01*
X143644345Y-79363924D01*
X143789295Y-79460777D01*
X143950355Y-79527490D01*
X144121335Y-79561500D01*
X144295665Y-79561500D01*
X144466645Y-79527490D01*
X144627705Y-79460777D01*
X144772655Y-79363924D01*
X144895924Y-79240655D01*
X144992777Y-79095705D01*
X145059490Y-78934645D01*
X145093500Y-78763665D01*
X145093500Y-78589335D01*
X145059490Y-78418355D01*
X144992777Y-78257295D01*
X144895924Y-78112345D01*
X144772655Y-77989076D01*
X144627705Y-77892223D01*
X144466645Y-77825510D01*
X144295665Y-77791500D01*
X144121335Y-77791500D01*
X143950355Y-77825510D01*
X143789295Y-77892223D01*
X143644345Y-77989076D01*
X143521076Y-78112345D01*
X143424223Y-78257295D01*
X143357510Y-78418355D01*
X143323500Y-78589335D01*
X142504706Y-78589335D01*
X142519490Y-78553645D01*
X142553500Y-78382665D01*
X142553500Y-78208335D01*
X142519490Y-78037355D01*
X142452777Y-77876295D01*
X142355924Y-77731345D01*
X142232655Y-77608076D01*
X142087705Y-77511223D01*
X141926645Y-77444510D01*
X141755665Y-77410500D01*
X141581335Y-77410500D01*
X141410355Y-77444510D01*
X141249295Y-77511223D01*
X141104345Y-77608076D01*
X140981076Y-77731345D01*
X140884223Y-77876295D01*
X140817510Y-78037355D01*
X140783500Y-78208335D01*
X118820000Y-78208335D01*
X118820000Y-75018561D01*
X124822000Y-75018561D01*
X124822000Y-75222439D01*
X124861774Y-75422398D01*
X124939795Y-75610756D01*
X125053063Y-75780274D01*
X125197226Y-75924437D01*
X125366744Y-76037705D01*
X125555102Y-76115726D01*
X125755061Y-76155500D01*
X125958939Y-76155500D01*
X126158898Y-76115726D01*
X126197872Y-76099583D01*
X126340226Y-76241937D01*
X126509744Y-76355205D01*
X126698102Y-76433226D01*
X126898061Y-76473000D01*
X127101939Y-76473000D01*
X127301898Y-76433226D01*
X127490256Y-76355205D01*
X127659774Y-76241937D01*
X127803937Y-76097774D01*
X127888603Y-75971061D01*
X129140000Y-75971061D01*
X129140000Y-76174939D01*
X129179774Y-76374898D01*
X129257795Y-76563256D01*
X129371063Y-76732774D01*
X129515226Y-76876937D01*
X129684744Y-76990205D01*
X129873102Y-77068226D01*
X130073061Y-77108000D01*
X130276939Y-77108000D01*
X130476898Y-77068226D01*
X130665256Y-76990205D01*
X130834774Y-76876937D01*
X130978937Y-76732774D01*
X131092205Y-76563256D01*
X131170226Y-76374898D01*
X131210000Y-76174939D01*
X131210000Y-75971061D01*
X131170226Y-75771102D01*
X131092205Y-75582744D01*
X130978937Y-75413226D01*
X130834774Y-75269063D01*
X130665256Y-75155795D01*
X130476898Y-75077774D01*
X130276939Y-75038000D01*
X130073061Y-75038000D01*
X129873102Y-75077774D01*
X129684744Y-75155795D01*
X129515226Y-75269063D01*
X129371063Y-75413226D01*
X129257795Y-75582744D01*
X129179774Y-75771102D01*
X129140000Y-75971061D01*
X127888603Y-75971061D01*
X127917205Y-75928256D01*
X127995226Y-75739898D01*
X128035000Y-75539939D01*
X128035000Y-75336061D01*
X127995226Y-75136102D01*
X127948579Y-75023486D01*
X132174500Y-75023486D01*
X132174500Y-75217514D01*
X132212353Y-75407814D01*
X132286604Y-75587072D01*
X132394401Y-75748401D01*
X132531599Y-75885599D01*
X132692928Y-75993396D01*
X132777604Y-76028470D01*
X132720353Y-76166686D01*
X132682500Y-76356986D01*
X132682500Y-76551014D01*
X132720353Y-76741314D01*
X132794604Y-76920572D01*
X132902401Y-77081901D01*
X133039599Y-77219099D01*
X133200928Y-77326896D01*
X133380186Y-77401147D01*
X133570486Y-77439000D01*
X133764514Y-77439000D01*
X133954814Y-77401147D01*
X134134072Y-77326896D01*
X134224791Y-77266279D01*
X134313576Y-77399155D01*
X134436845Y-77522424D01*
X134581795Y-77619277D01*
X134742855Y-77685990D01*
X134913835Y-77720000D01*
X135088165Y-77720000D01*
X135259145Y-77685990D01*
X135420205Y-77619277D01*
X135565155Y-77522424D01*
X135688424Y-77399155D01*
X135785277Y-77254205D01*
X135851990Y-77093145D01*
X135886000Y-76922165D01*
X135886000Y-76747835D01*
X135851990Y-76576855D01*
X135785277Y-76415795D01*
X135700262Y-76288561D01*
X142527000Y-76288561D01*
X142527000Y-76492439D01*
X142566774Y-76692398D01*
X142644795Y-76880756D01*
X142758063Y-77050274D01*
X142902226Y-77194437D01*
X143071744Y-77307705D01*
X143260102Y-77385726D01*
X143460061Y-77425500D01*
X143663939Y-77425500D01*
X143863898Y-77385726D01*
X144052256Y-77307705D01*
X144221774Y-77194437D01*
X144365937Y-77050274D01*
X144479205Y-76880756D01*
X144557226Y-76692398D01*
X144597000Y-76492439D01*
X144597000Y-76288561D01*
X144557226Y-76088602D01*
X144534842Y-76034561D01*
X149015500Y-76034561D01*
X149015500Y-76238439D01*
X149055274Y-76438398D01*
X149133295Y-76626756D01*
X149246563Y-76796274D01*
X149390726Y-76940437D01*
X149560244Y-77053705D01*
X149748602Y-77131726D01*
X149948561Y-77171500D01*
X150152439Y-77171500D01*
X150352398Y-77131726D01*
X150540756Y-77053705D01*
X150710274Y-76940437D01*
X150854437Y-76796274D01*
X150967705Y-76626756D01*
X151045726Y-76438398D01*
X151085500Y-76238439D01*
X151085500Y-76034561D01*
X151045726Y-75834602D01*
X150967705Y-75646244D01*
X150854437Y-75476726D01*
X150710274Y-75332563D01*
X150540756Y-75219295D01*
X150352398Y-75141274D01*
X150152439Y-75101500D01*
X149948561Y-75101500D01*
X149748602Y-75141274D01*
X149560244Y-75219295D01*
X149390726Y-75332563D01*
X149246563Y-75476726D01*
X149133295Y-75646244D01*
X149055274Y-75834602D01*
X149015500Y-76034561D01*
X144534842Y-76034561D01*
X144479205Y-75900244D01*
X144365937Y-75730726D01*
X144221774Y-75586563D01*
X144052256Y-75473295D01*
X143863898Y-75395274D01*
X143663939Y-75355500D01*
X143460061Y-75355500D01*
X143260102Y-75395274D01*
X143071744Y-75473295D01*
X142902226Y-75586563D01*
X142758063Y-75730726D01*
X142644795Y-75900244D01*
X142566774Y-76088602D01*
X142527000Y-76288561D01*
X135700262Y-76288561D01*
X135688424Y-76270845D01*
X135565155Y-76147576D01*
X135420205Y-76050723D01*
X135259145Y-75984010D01*
X135088165Y-75950000D01*
X134913835Y-75950000D01*
X134742855Y-75984010D01*
X134581795Y-76050723D01*
X134569905Y-76058668D01*
X134540396Y-75987428D01*
X134432599Y-75826099D01*
X134295401Y-75688901D01*
X134134072Y-75581104D01*
X134049396Y-75546030D01*
X134106647Y-75407814D01*
X134144500Y-75217514D01*
X134144500Y-75023486D01*
X134106647Y-74833186D01*
X134032396Y-74653928D01*
X133979031Y-74574061D01*
X138919000Y-74574061D01*
X138919000Y-74777939D01*
X138958774Y-74977898D01*
X139036795Y-75166256D01*
X139150063Y-75335774D01*
X139294226Y-75479937D01*
X139463744Y-75593205D01*
X139652102Y-75671226D01*
X139852061Y-75711000D01*
X140055939Y-75711000D01*
X140255898Y-75671226D01*
X140444256Y-75593205D01*
X140613774Y-75479937D01*
X140757937Y-75335774D01*
X140871205Y-75166256D01*
X140949226Y-74977898D01*
X140989000Y-74777939D01*
X140989000Y-74574061D01*
X140949226Y-74374102D01*
X140871205Y-74185744D01*
X140757937Y-74016226D01*
X140613774Y-73872063D01*
X140444256Y-73758795D01*
X140255898Y-73680774D01*
X140055939Y-73641000D01*
X139852061Y-73641000D01*
X139652102Y-73680774D01*
X139463744Y-73758795D01*
X139294226Y-73872063D01*
X139150063Y-74016226D01*
X139036795Y-74185744D01*
X138958774Y-74374102D01*
X138919000Y-74574061D01*
X133979031Y-74574061D01*
X133924599Y-74492599D01*
X133787401Y-74355401D01*
X133626072Y-74247604D01*
X133446814Y-74173353D01*
X133256514Y-74135500D01*
X133062486Y-74135500D01*
X132872186Y-74173353D01*
X132692928Y-74247604D01*
X132531599Y-74355401D01*
X132394401Y-74492599D01*
X132286604Y-74653928D01*
X132212353Y-74833186D01*
X132174500Y-75023486D01*
X127948579Y-75023486D01*
X127917205Y-74947744D01*
X127803937Y-74778226D01*
X127659774Y-74634063D01*
X127490256Y-74520795D01*
X127301898Y-74442774D01*
X127101939Y-74403000D01*
X126898061Y-74403000D01*
X126698102Y-74442774D01*
X126659128Y-74458917D01*
X126516774Y-74316563D01*
X126347256Y-74203295D01*
X126158898Y-74125274D01*
X125958939Y-74085500D01*
X125755061Y-74085500D01*
X125555102Y-74125274D01*
X125366744Y-74203295D01*
X125197226Y-74316563D01*
X125053063Y-74460726D01*
X124939795Y-74630244D01*
X124861774Y-74818602D01*
X124822000Y-75018561D01*
X118820000Y-75018561D01*
X118820000Y-74660377D01*
X118994061Y-74695000D01*
X119197939Y-74695000D01*
X119397898Y-74655226D01*
X119586256Y-74577205D01*
X119755774Y-74463937D01*
X119899937Y-74319774D01*
X120013205Y-74150256D01*
X120091226Y-73961898D01*
X120131000Y-73761939D01*
X120131000Y-73558061D01*
X120661000Y-73558061D01*
X120661000Y-73761939D01*
X120700774Y-73961898D01*
X120778795Y-74150256D01*
X120892063Y-74319774D01*
X121036226Y-74463937D01*
X121205744Y-74577205D01*
X121394102Y-74655226D01*
X121594061Y-74695000D01*
X121797939Y-74695000D01*
X121997898Y-74655226D01*
X122186256Y-74577205D01*
X122355774Y-74463937D01*
X122499937Y-74319774D01*
X122613205Y-74150256D01*
X122691226Y-73961898D01*
X122731000Y-73761939D01*
X122731000Y-73558061D01*
X122691226Y-73358102D01*
X122613205Y-73169744D01*
X122499937Y-73000226D01*
X122355774Y-72856063D01*
X122186256Y-72742795D01*
X121997898Y-72664774D01*
X121797939Y-72625000D01*
X121594061Y-72625000D01*
X121394102Y-72664774D01*
X121205744Y-72742795D01*
X121036226Y-72856063D01*
X120892063Y-73000226D01*
X120778795Y-73169744D01*
X120700774Y-73358102D01*
X120661000Y-73558061D01*
X120131000Y-73558061D01*
X120091226Y-73358102D01*
X120013205Y-73169744D01*
X119899937Y-73000226D01*
X119755774Y-72856063D01*
X119586256Y-72742795D01*
X119397898Y-72664774D01*
X119197939Y-72625000D01*
X118994061Y-72625000D01*
X118820000Y-72659623D01*
X118820000Y-71996561D01*
X123843500Y-71996561D01*
X123843500Y-72200439D01*
X123883274Y-72400398D01*
X123961295Y-72588756D01*
X124074563Y-72758274D01*
X124218726Y-72902437D01*
X124388244Y-73015705D01*
X124576602Y-73093726D01*
X124776561Y-73133500D01*
X124980439Y-73133500D01*
X125180398Y-73093726D01*
X125368756Y-73015705D01*
X125538274Y-72902437D01*
X125682437Y-72758274D01*
X125795705Y-72588756D01*
X125873726Y-72400398D01*
X125880501Y-72366335D01*
X127258000Y-72366335D01*
X127258000Y-72540665D01*
X127292010Y-72711645D01*
X127358723Y-72872705D01*
X127455576Y-73017655D01*
X127578845Y-73140924D01*
X127723795Y-73237777D01*
X127884855Y-73304490D01*
X128055835Y-73338500D01*
X128230165Y-73338500D01*
X128401145Y-73304490D01*
X128402180Y-73304061D01*
X134220000Y-73304061D01*
X134220000Y-73507939D01*
X134259774Y-73707898D01*
X134337795Y-73896256D01*
X134451063Y-74065774D01*
X134595226Y-74209937D01*
X134764744Y-74323205D01*
X134953102Y-74401226D01*
X135153061Y-74441000D01*
X135356939Y-74441000D01*
X135556898Y-74401226D01*
X135745256Y-74323205D01*
X135914774Y-74209937D01*
X136058937Y-74065774D01*
X136172205Y-73896256D01*
X136250226Y-73707898D01*
X136290000Y-73507939D01*
X136290000Y-73304061D01*
X136250226Y-73104102D01*
X136172205Y-72915744D01*
X136058937Y-72746226D01*
X135914774Y-72602063D01*
X135824975Y-72542061D01*
X140316000Y-72542061D01*
X140316000Y-72745939D01*
X140355774Y-72945898D01*
X140433795Y-73134256D01*
X140547063Y-73303774D01*
X140691226Y-73447937D01*
X140860744Y-73561205D01*
X141049102Y-73639226D01*
X141249061Y-73679000D01*
X141452939Y-73679000D01*
X141652898Y-73639226D01*
X141841256Y-73561205D01*
X142010774Y-73447937D01*
X142154937Y-73303774D01*
X142239603Y-73177061D01*
X144570500Y-73177061D01*
X144570500Y-73380939D01*
X144610274Y-73580898D01*
X144688295Y-73769256D01*
X144801563Y-73938774D01*
X144945726Y-74082937D01*
X145115244Y-74196205D01*
X145303602Y-74274226D01*
X145503561Y-74314000D01*
X145707439Y-74314000D01*
X145907398Y-74274226D01*
X146095756Y-74196205D01*
X146265274Y-74082937D01*
X146409437Y-73938774D01*
X146522705Y-73769256D01*
X146600726Y-73580898D01*
X146640500Y-73380939D01*
X146640500Y-73177061D01*
X146600726Y-72977102D01*
X146522705Y-72788744D01*
X146409437Y-72619226D01*
X146265274Y-72475063D01*
X146095756Y-72361795D01*
X145907398Y-72283774D01*
X145707439Y-72244000D01*
X145503561Y-72244000D01*
X145303602Y-72283774D01*
X145115244Y-72361795D01*
X144945726Y-72475063D01*
X144801563Y-72619226D01*
X144688295Y-72788744D01*
X144610274Y-72977102D01*
X144570500Y-73177061D01*
X142239603Y-73177061D01*
X142268205Y-73134256D01*
X142346226Y-72945898D01*
X142386000Y-72745939D01*
X142386000Y-72542061D01*
X142346226Y-72342102D01*
X142268205Y-72153744D01*
X142154937Y-71984226D01*
X142010774Y-71840063D01*
X141841256Y-71726795D01*
X141652898Y-71648774D01*
X141452939Y-71609000D01*
X141249061Y-71609000D01*
X141049102Y-71648774D01*
X140860744Y-71726795D01*
X140691226Y-71840063D01*
X140547063Y-71984226D01*
X140433795Y-72153744D01*
X140355774Y-72342102D01*
X140316000Y-72542061D01*
X135824975Y-72542061D01*
X135745256Y-72488795D01*
X135556898Y-72410774D01*
X135356939Y-72371000D01*
X135153061Y-72371000D01*
X134953102Y-72410774D01*
X134764744Y-72488795D01*
X134595226Y-72602063D01*
X134451063Y-72746226D01*
X134337795Y-72915744D01*
X134259774Y-73104102D01*
X134220000Y-73304061D01*
X128402180Y-73304061D01*
X128562205Y-73237777D01*
X128707155Y-73140924D01*
X128830424Y-73017655D01*
X128927277Y-72872705D01*
X128993990Y-72711645D01*
X129028000Y-72540665D01*
X129028000Y-72366335D01*
X128993990Y-72195355D01*
X128927277Y-72034295D01*
X128830424Y-71889345D01*
X128707155Y-71766076D01*
X128562205Y-71669223D01*
X128401145Y-71602510D01*
X128230165Y-71568500D01*
X128055835Y-71568500D01*
X127884855Y-71602510D01*
X127723795Y-71669223D01*
X127578845Y-71766076D01*
X127455576Y-71889345D01*
X127358723Y-72034295D01*
X127292010Y-72195355D01*
X127258000Y-72366335D01*
X125880501Y-72366335D01*
X125913500Y-72200439D01*
X125913500Y-71996561D01*
X125873726Y-71796602D01*
X125795705Y-71608244D01*
X125682437Y-71438726D01*
X125538274Y-71294563D01*
X125368756Y-71181295D01*
X125180398Y-71103274D01*
X124980439Y-71063500D01*
X124776561Y-71063500D01*
X124576602Y-71103274D01*
X124388244Y-71181295D01*
X124218726Y-71294563D01*
X124074563Y-71438726D01*
X123961295Y-71608244D01*
X123883274Y-71796602D01*
X123843500Y-71996561D01*
X118820000Y-71996561D01*
X118820000Y-70115561D01*
X124935500Y-70115561D01*
X124935500Y-70319439D01*
X124975274Y-70519398D01*
X125053295Y-70707756D01*
X125166563Y-70877274D01*
X125310726Y-71021437D01*
X125480244Y-71134705D01*
X125668602Y-71212726D01*
X125868561Y-71252500D01*
X126072439Y-71252500D01*
X126272398Y-71212726D01*
X126460756Y-71134705D01*
X126630274Y-71021437D01*
X126774437Y-70877274D01*
X126887705Y-70707756D01*
X126965726Y-70519398D01*
X127005500Y-70319439D01*
X127005500Y-70115561D01*
X126965726Y-69915602D01*
X126887705Y-69727244D01*
X126774437Y-69557726D01*
X126630274Y-69413563D01*
X126460756Y-69300295D01*
X126272398Y-69222274D01*
X126072439Y-69182500D01*
X125868561Y-69182500D01*
X125668602Y-69222274D01*
X125480244Y-69300295D01*
X125310726Y-69413563D01*
X125166563Y-69557726D01*
X125053295Y-69727244D01*
X124975274Y-69915602D01*
X124935500Y-70115561D01*
X118820000Y-70115561D01*
X118820000Y-67294721D01*
X118885998Y-66621630D01*
X118994443Y-66262441D01*
X120300004Y-66262441D01*
X120300028Y-66269422D01*
X120303163Y-66300297D01*
X120302946Y-66331332D01*
X120303914Y-66341198D01*
X120324315Y-66535295D01*
X120337250Y-66598310D01*
X120349312Y-66661540D01*
X120352177Y-66671030D01*
X120409889Y-66857468D01*
X120434829Y-66916797D01*
X120458932Y-66976455D01*
X120463586Y-66985208D01*
X120556411Y-67156885D01*
X120592371Y-67210198D01*
X120627633Y-67264083D01*
X120633898Y-67271765D01*
X120758302Y-67422143D01*
X120803957Y-67467480D01*
X120848987Y-67513463D01*
X120856625Y-67519782D01*
X121007867Y-67643132D01*
X121061487Y-67678757D01*
X121114564Y-67715099D01*
X121123284Y-67719814D01*
X121295606Y-67811439D01*
X121355076Y-67835951D01*
X121414248Y-67861312D01*
X121423718Y-67864243D01*
X121610554Y-67920652D01*
X121673684Y-67933152D01*
X121736623Y-67946530D01*
X121746481Y-67947566D01*
X121940209Y-67966561D01*
X121975123Y-67970000D01*
X135346614Y-67970000D01*
X135198599Y-68068901D01*
X135061401Y-68206099D01*
X134953604Y-68367428D01*
X134879353Y-68546686D01*
X134841500Y-68736986D01*
X134841500Y-68931014D01*
X134879353Y-69121314D01*
X134953604Y-69300572D01*
X135061401Y-69461901D01*
X135198599Y-69599099D01*
X135359928Y-69706896D01*
X135539186Y-69781147D01*
X135729486Y-69819000D01*
X135923514Y-69819000D01*
X136113814Y-69781147D01*
X136293072Y-69706896D01*
X136454401Y-69599099D01*
X136591599Y-69461901D01*
X136699396Y-69300572D01*
X136773647Y-69121314D01*
X136811500Y-68931014D01*
X136811500Y-68736986D01*
X136773647Y-68546686D01*
X136699396Y-68367428D01*
X136591599Y-68206099D01*
X136454401Y-68068901D01*
X136306386Y-67970000D01*
X140826232Y-67970000D01*
X140770923Y-68006956D01*
X140588456Y-68189423D01*
X140445093Y-68403982D01*
X140346342Y-68642387D01*
X140296000Y-68895476D01*
X140296000Y-69153524D01*
X140346342Y-69406613D01*
X140445093Y-69645018D01*
X140588456Y-69859577D01*
X140770923Y-70042044D01*
X140985482Y-70185407D01*
X141223887Y-70284158D01*
X141476976Y-70334500D01*
X141735024Y-70334500D01*
X141988113Y-70284158D01*
X142226518Y-70185407D01*
X142441077Y-70042044D01*
X142606000Y-69877121D01*
X142770923Y-70042044D01*
X142985482Y-70185407D01*
X143223887Y-70284158D01*
X143476976Y-70334500D01*
X143735024Y-70334500D01*
X143988113Y-70284158D01*
X144226518Y-70185407D01*
X144441077Y-70042044D01*
X144606000Y-69877121D01*
X144770923Y-70042044D01*
X144985482Y-70185407D01*
X145223887Y-70284158D01*
X145476976Y-70334500D01*
X145735024Y-70334500D01*
X145988113Y-70284158D01*
X146226518Y-70185407D01*
X146441077Y-70042044D01*
X146606000Y-69877121D01*
X146770923Y-70042044D01*
X146985482Y-70185407D01*
X147223887Y-70284158D01*
X147476976Y-70334500D01*
X147735024Y-70334500D01*
X147988113Y-70284158D01*
X148226518Y-70185407D01*
X148408513Y-70063803D01*
X148479815Y-70150685D01*
X148576506Y-70230037D01*
X148686820Y-70289002D01*
X148806518Y-70325312D01*
X148931000Y-70337572D01*
X150281000Y-70337572D01*
X150405482Y-70325312D01*
X150525180Y-70289002D01*
X150635494Y-70230037D01*
X150732185Y-70150685D01*
X150811537Y-70053994D01*
X150870502Y-69943680D01*
X150906812Y-69823982D01*
X150919072Y-69699500D01*
X150919072Y-68349500D01*
X150906812Y-68225018D01*
X150870502Y-68105320D01*
X150811537Y-67995006D01*
X150732185Y-67898315D01*
X150635494Y-67818963D01*
X150525180Y-67759998D01*
X150405482Y-67723688D01*
X150281000Y-67711428D01*
X148931000Y-67711428D01*
X148906401Y-67713851D01*
X148906885Y-67713589D01*
X148960198Y-67677629D01*
X149014083Y-67642367D01*
X149021765Y-67636102D01*
X149172143Y-67511698D01*
X149217480Y-67466043D01*
X149263463Y-67421013D01*
X149269782Y-67413375D01*
X149393132Y-67262133D01*
X149428757Y-67208513D01*
X149465099Y-67155436D01*
X149469814Y-67146716D01*
X149561439Y-66974394D01*
X149585951Y-66914924D01*
X149611312Y-66855752D01*
X149614243Y-66846282D01*
X149670652Y-66659446D01*
X149683152Y-66596316D01*
X149696530Y-66533377D01*
X149697566Y-66523519D01*
X149716611Y-66329285D01*
X149716611Y-66298293D01*
X149719961Y-66267472D01*
X149719996Y-66257559D01*
X149719972Y-66250578D01*
X149716837Y-66219703D01*
X149717054Y-66188667D01*
X149716086Y-66178801D01*
X149695685Y-65984705D01*
X149682750Y-65921690D01*
X149670688Y-65858460D01*
X149667823Y-65848970D01*
X149610111Y-65662532D01*
X149585171Y-65603203D01*
X149561068Y-65543545D01*
X149556414Y-65534792D01*
X149463589Y-65363115D01*
X149427619Y-65309787D01*
X149392367Y-65255917D01*
X149386101Y-65248235D01*
X149261698Y-65097857D01*
X149216043Y-65052520D01*
X149171013Y-65006537D01*
X149163375Y-65000218D01*
X149012133Y-64876868D01*
X148958546Y-64841266D01*
X148905437Y-64804901D01*
X148896716Y-64800186D01*
X148724394Y-64708561D01*
X148664924Y-64684049D01*
X148605752Y-64658688D01*
X148596282Y-64655757D01*
X148409446Y-64599348D01*
X148346316Y-64586848D01*
X148283377Y-64573470D01*
X148273518Y-64572434D01*
X148079792Y-64553439D01*
X148044877Y-64550000D01*
X121975123Y-64550000D01*
X121944778Y-64552989D01*
X121938667Y-64552946D01*
X121928801Y-64553914D01*
X121734705Y-64574315D01*
X121671690Y-64587250D01*
X121608460Y-64599312D01*
X121598970Y-64602177D01*
X121412532Y-64659889D01*
X121353203Y-64684829D01*
X121293545Y-64708932D01*
X121284792Y-64713586D01*
X121113115Y-64806411D01*
X121059787Y-64842381D01*
X121005917Y-64877633D01*
X120998235Y-64883899D01*
X120847857Y-65008302D01*
X120802520Y-65053957D01*
X120756537Y-65098987D01*
X120750218Y-65106625D01*
X120626868Y-65257867D01*
X120591266Y-65311454D01*
X120554901Y-65364563D01*
X120550186Y-65373284D01*
X120458561Y-65545606D01*
X120434049Y-65605076D01*
X120408688Y-65664248D01*
X120405757Y-65673718D01*
X120349348Y-65860554D01*
X120336848Y-65923684D01*
X120323470Y-65986623D01*
X120322434Y-65996482D01*
X120303389Y-66190715D01*
X120303389Y-66221707D01*
X120300039Y-66252528D01*
X120300004Y-66262441D01*
X118994443Y-66262441D01*
X119071392Y-66007576D01*
X119372525Y-65441227D01*
X119777928Y-64944152D01*
X120272159Y-64535288D01*
X120836389Y-64230210D01*
X121449137Y-64040533D01*
X122120204Y-63970000D01*
X147875279Y-63970000D01*
X148548370Y-64035998D01*
G37*
%TD.AperFunction*%
%TD*%
M02*
